<?xml version="1.0" standalone="no"?>
<!DOCTYPE svg PUBLIC "-//W3C//DTD SVG 1.1//EN" "http://www.w3.org/Graphics/SVG/1.1/DTD/svg11.dtd" >
<svg>
<metadata>
Created by FontForge 20090622 at Wed May 20 19:54:59 2020
 By deploy user
</metadata>
<defs>
<font id="DIN2014Web-NarrowDemi" horiz-adv-x="456" >
  <font-face 
    font-family="DIN 2014 Web"
    font-weight="600"
    font-stretch="condensed"
    units-per-em="1000"
    panose-1="2 11 6 6 2 2 2 2 2 4"
    ascent="800"
    descent="-200"
    x-height="500"
    cap-height="690"
    bbox="-304 -273 3054 1010"
    underline-thickness="50"
    underline-position="-50"
    unicode-range="U+000D-U+1F4F1"
  />
<missing-glyph horiz-adv-x="500" 
d="M442 8v496h-384v-496h384zM50 512h400v-512h-400v512z" />
    <glyph glyph-name="afii10017.var.accented" unicode="&#x410;`" horiz-adv-x="504" 
d="M1 0l193 690h114l194 -690h-123l-36 143h-185l-35 -143h-122zM184 243h134l-66 272zM265 873h119l-84 -129h-100z" />
    <glyph glyph-name="afii10022.var.accented" unicode="&#x415;`" horiz-adv-x="445" 
d="M416 690v-101h-235v-182h210v-100h-210v-207h235v-100h-351v690h351zM251 873h119l-84 -129h-100z" />
    <glyph glyph-name="afii10026.var.accented" unicode="&#x418;`" horiz-adv-x="573" 
d="M181 690v-442l233 442h95v-690h-116v437l-232 -437h-96v690h116zM316 873h119l-84 -129h-100z" />
    <glyph glyph-name="afii10032.var.accented" unicode="&#x41e;`" horiz-adv-x="516" 
d="M258 -9q-48 0 -88 18t-68.5 55.5t-44.5 96.5t-16 140v88q0 81 16 140t44.5 96.5t68.5 55.5t88 18t88 -18t68.5 -55.5t44.5 -96.5t16 -140v-88q0 -81 -16 -140t-44.5 -96.5t-68.5 -55.5t-88 -18zM258 599q-51 0 -76 -49t-25 -161v-88q0 -112 25 -161t76 -49t76 49t25 161
v88q0 112 -25 161t-76 49zM269 873h119l-84 -129h-100z" />
    <glyph glyph-name="afii10037.var.accented" unicode="&#x423;`" horiz-adv-x="488" 
d="M483 690l-160 -510q-18 -55 -36.5 -91.5t-43 -58t-57.5 -30.5t-79 -9v103q21 0 36.5 2.5t26.5 9.5t19.5 20.5t15.5 35.5l-191 528h130l120 -372l101 372h118zM267 873h119l-84 -129h-100z" />
    <glyph glyph-name="afii10045.var.accented" unicode="&#x42b;`" horiz-adv-x="690" 
d="M181 690v-262h76q56 0 96 -18t65.5 -47.5t37.5 -68t12 -80.5t-12 -80.5t-38.5 -68t-68.5 -47.5t-102 -18h-182v690h116zM626 0h-116v690h116v-690zM181 328v-228h70q57 0 79 31.5t22 82.5t-22 82.5t-79 31.5h-70zM360 873h119l-84 -129h-100z" />
    <glyph glyph-name="afii10047.var.accented" unicode="&#x42d;`" horiz-adv-x="490" 
d="M164 397h168q-1 108 -26 154.5t-75 46.5q-42 0 -65 -29.5t-31 -92.5h-110q14 113 68 168t138 55q48 0 88 -18t68.5 -55.5t44.5 -96.5t16 -140v-88q0 -81 -16 -140t-44.5 -96.5t-68.5 -55.5t-88 -18q-87 0 -139 53t-67 170h110q9 -63 31 -92.5t65 -29.5q50 0 75 48.5
t26 156.5h-168v100zM245 873h119l-84 -129h-100z" />
    <glyph glyph-name="afii10048.var.accented" unicode="&#x42e;`" horiz-adv-x="700" 
d="M659 306q0 -84 -14 -143.5t-40 -97.5t-64 -56t-86 -18t-85.5 17.5t-64 55.5t-40.5 98t-14 145h-70v-307h-116v690h116v-283h70q2 78 17.5 133.5t41.5 90.5t63 51.5t82 16.5q48 0 86 -18t64 -56t40 -97.5t14 -143.5v-78zM367 310q0 -115 18.5 -166.5t69.5 -51.5t69.5 51.5
t18.5 166.5v70q0 114 -18.5 166t-69.5 52t-69.5 -52t-18.5 -166v-70zM326 873h119l-84 -129h-100z" />
    <glyph glyph-name="afii10049.var.accented" unicode="&#x42f;`" horiz-adv-x="514" 
d="M14 0l127 297q-104 42 -104 187q0 103 56.5 154.5t154.5 51.5h201v-690h-116v280h-81l-112 -280h-126zM333 380v210h-74q-53 0 -79.5 -23.5t-26.5 -82.5t26.5 -81.5t79.5 -22.5h74zM275 873h119l-84 -129h-100z" />
    <glyph glyph-name="afii10023.var.accented" unicode="&#x401;`" horiz-adv-x="445" 
d="M416 690v-101h-235v-182h210v-100h-210v-207h235v-100h-351v690h351zM257 1010h119l-84 -129h-100zM92 869h108v-105h-108v105zM282 869h109v-105h-109v105z" />
    <glyph glyph-name="afii10065.var.accented" unicode="&#x430;`" horiz-adv-x="414" 
d="M27 147q0 40 12.5 68t33.5 46t49.5 26t61.5 8h76v42q0 47 -14 63.5t-58 16.5q-29 0 -46 -8.5t-31 -35.5l-75 53q23 45 60.5 64t100.5 19q39 0 70.5 -8.5t53 -28.5t33 -53t11.5 -83v-336h-105v46q-14 -29 -35 -42t-56 -13q-62 0 -102 40.5t-40 115.5zM260 213h-65
q-63 0 -63 -66q0 -35 15 -50t42 -15q18 0 31.5 4.5t22 16.5t13 32.5t4.5 53.5v24zM208 725h115l-74 -158h-98z" />
    <glyph glyph-name="afii10070.var.accented" unicode="&#x435;`" horiz-adv-x="406" 
d="M361 77q-23 -46 -58.5 -66t-91.5 -20q-46 0 -80 16.5t-56.5 46.5t-33.5 71.5t-11 91.5v68q0 111 43.5 167.5t124.5 56.5q87 0 128 -59t41 -171v-55h-230q0 -29 3 -55t11 -45t22 -30t37 -11q33 0 47.5 12.5t25.5 34.5zM199 416q-32 0 -46 -29.5t-16 -80.5h124
q-1 110 -62 110zM204 725h115l-74 -158h-98z" />
    <glyph glyph-name="afii10074.var.accented" unicode="&#x438;`" horiz-adv-x="447" 
d="M155 210l150 290h93v-500h-107v299l-150 -299h-93v500h107v-290zM231 725h115l-74 -158h-98z" />
    <glyph glyph-name="afii10080.var.accented" unicode="&#x43e;`" horiz-adv-x="414" 
d="M31 282q0 111 45.5 169t130.5 58t130.5 -58t45.5 -169v-64q0 -111 -45.5 -169t-130.5 -58t-130.5 58t-45.5 169v64zM276 280q0 65 -15 100.5t-54 35.5t-54 -35.5t-15 -100.5v-60q0 -65 15 -100.5t54 -35.5t54 35.5t15 100.5v60zM204 725h115l-74 -158h-98z" />
    <glyph glyph-name="afii10085.var.accented" unicode="&#x443;`" horiz-adv-x="400" 
d="M117 500l88 -348l81 348h110l-144 -520q-14 -48 -29 -80.5t-36.5 -52.5t-51.5 -28.5t-73 -8.5v98q42 0 64 22t23 59l-145 511h113zM210 725h115l-74 -158h-98z" />
    <glyph glyph-name="afii10093.var.accented" unicode="&#x44b;`" horiz-adv-x="566" 
d="M517 500v-500h-107v500h107zM155 500v-181h39q86 0 129.5 -38.5t43.5 -119.5q0 -72 -40.5 -116.5t-124.5 -44.5h-154v500h107zM155 92h41q64 0 64 70q0 32 -16 48.5t-57 16.5h-32v-135zM286 725h115l-74 -158h-98z" />
    <glyph glyph-name="afii10095.var.accented" unicode="&#x44d;`" horiz-adv-x="380" 
d="M113 297h129q-2 57 -19 88t-59 31q-25 0 -40 -12t-26 -32l-80 55q21 40 58.5 61t85.5 21q91 0 139 -57.5t48 -166.5v-68q0 -51 -12 -92.5t-35 -71.5t-57 -46t-78 -16q-108 0 -149 86l78 53q12 -25 28 -36t40 -11t39 9.5t23.5 27t12 40.5t3.5 50h-129v87zM175 725h115
l-74 -158h-98z" />
    <glyph glyph-name="afii10096.var.accented" unicode="&#x44e;`" horiz-adv-x="587" 
d="M386 -9q-81 0 -125 55.5t-45 162.5h-60v-209h-107v500h107v-199h60q3 103 47.5 155.5t122.5 52.5q81 0 125.5 -57t44.5 -167v-70q0 -110 -44.5 -167t-125.5 -57zM323 219q0 -71 15 -103t48 -32t48 32t15 103v62q0 71 -15 103t-48 32t-48 -32t-15 -103v-62zM260 725h115
l-74 -158h-98z" />
    <glyph glyph-name="afii10097.var.accented" unicode="&#x44f;`" horiz-adv-x="422" 
d="M266 0v184h-49l-84 -184h-111l101 201q-36 17 -56.5 52.5t-20.5 89.5q0 32 9 60.5t28.5 50t51.5 34t77 12.5h161v-500h-107zM266 408h-50q-63 0 -63 -64q0 -36 16.5 -52.5t51.5 -16.5h45v133zM234 725h115l-74 -158h-98z" />
    <glyph glyph-name="afii10071.var.accented" unicode="&#x451;`" horiz-adv-x="406" 
d="M361 77q-23 -46 -58.5 -66t-91.5 -20q-46 0 -80 16.5t-56.5 46.5t-33.5 71.5t-11 91.5v68q0 111 43.5 167.5t124.5 56.5q87 0 128 -59t41 -171v-55h-230q0 -29 3 -55t11 -45t22 -30t37 -11q33 0 47.5 12.5t25.5 34.5zM199 416q-32 0 -46 -29.5t-16 -80.5h124
q-1 110 -62 110zM55 690h109v-105h-109v105zM234 690h108v-105h-108v105zM204 875h115l-74 -158h-98z" />
    <glyph glyph-name="fi" unicode="fi" horiz-adv-x="442" 
d="M286 408h-113v-408h-107v408h-52v92h52v31q0 88 35 123.5t109 35.5h30v-96h-20q-29 0 -38 -19.5t-9 -63.5v-11h220v-500h-107v408z" />
    <glyph glyph-name="fl" unicode="fl" horiz-adv-x="485" 
d="M303 594h-82q-29 0 -38 -19.5t-9 -63.5v-11h67v-92h-67v-408h-107v408h-52v92h52v31q0 88 35 123.5t109 35.5h199v-508q0 -41 12 -64.5t46 -23.5v-94q-83 0 -124 35.5t-41 121.5v437z" />
    <glyph glyph-name=".notdef" horiz-adv-x="500" 
d="M442 8v496h-384v-496h384zM50 512h400v-512h-400v512z" />
    <glyph glyph-name=".null" horiz-adv-x="0" 
 />
    <glyph glyph-name="controlCR" unicode="&#xd;" horiz-adv-x="213" 
 />
    <glyph glyph-name="space" unicode=" " horiz-adv-x="213" 
 />
    <glyph glyph-name="exclam" unicode="!" horiz-adv-x="217" 
d="M163 189h-109v501h109v-501zM168 0h-119v118h119v-118z" />
    <glyph glyph-name="quotedbl" unicode="&#x22;" horiz-adv-x="324" 
d="M139 513h-105v177h105v-177zM290 513h-104v177h104v-177z" />
    <glyph glyph-name="numbersign" unicode="#" horiz-adv-x="497" 
d="M122 498l36 192h110l-36 -192h70l36 192h110l-36 -192h62v-97h-80l-20 -106h63v-97h-81l-37 -198h-109l36 198h-70l-36 -198h-111l37 198h-67v97h85l20 106h-68v97h86zM194 295h70l20 106h-70z" />
    <glyph glyph-name="dollar" unicode="$" 
d="M339 524q-14 26 -29.5 43t-39.5 25v-194q33 -14 63 -33t52.5 -44t35.5 -57.5t13 -73.5q0 -35 -10 -68t-29.5 -59.5t-49 -44.5t-68.5 -24v-110h-98v110q-108 15 -168 113l90 60q18 -29 37 -46.5t47 -25.5v204q-32 13 -61 31t-50.5 43.5t-34.5 58t-13 74.5q0 36 9.5 68
t28 57t47.5 42t68 23v116h98v-117q99 -17 149 -112zM318 185q0 32 -10 52t-38 35v-174q26 8 37 32.5t11 54.5zM142 507q0 -34 11.5 -51.5t31.5 -30.5v166q-43 -14 -43 -84z" />
    <glyph glyph-name="percent" unicode="%" horiz-adv-x="621" 
d="M519 690l-315 -690h-101l315 690h101zM264 480q0 -66 -31.5 -102t-90.5 -36t-90.5 36t-31.5 102v81q0 66 31.5 102t90.5 36t90.5 -36t31.5 -102v-81zM106 482q0 -34 8.5 -49t27.5 -15t27.5 15t8.5 49v77q0 34 -8.5 49t-27.5 15t-27.5 -15t-8.5 -49v-77zM604 129
q0 -66 -31.5 -102t-90.5 -36t-90.5 36t-31.5 102v81q0 66 31.5 102t90.5 36t90.5 -36t31.5 -102v-81zM446 131q0 -34 8.5 -49t27.5 -15t27.5 15t8.5 49v77q0 34 -8.5 49t-27.5 15t-27.5 -15t-8.5 -49v-77z" />
    <glyph glyph-name="ampersand" unicode="&#x26;" horiz-adv-x="556" 
d="M34 184q0 35 8 64t21.5 54t31 45.5t36.5 38.5q-24 38 -41.5 74.5t-17.5 81.5q0 36 12.5 65t34 49.5t50.5 31.5t63 11q38 0 67 -12t48.5 -31t29.5 -44t10 -50q0 -29 -10 -54t-26.5 -47t-38 -42.5l-43.5 -40.5l108 -166q7 25 8.5 52.5t1.5 57.5h108q0 -53 -10.5 -102.5
t-32.5 -92.5l92 -127h-129l-33 51q-29 -28 -67.5 -44t-83.5 -16q-48 0 -84.5 16.5t-61.5 43.5t-38 61.5t-13 71.5zM235 92q48 0 81 35l-126 186q-15 -20 -29.5 -48t-14.5 -68q0 -20 5.5 -39t16.5 -33.5t27.5 -23.5t39.5 -9zM185 542q0 -26 10.5 -50.5t21.5 -44.5
q29 27 46.5 52t17.5 56q0 20 -12.5 37.5t-35.5 17.5q-21 0 -34.5 -17.5t-13.5 -50.5z" />
    <glyph glyph-name="quotesingle" unicode="'" horiz-adv-x="160" 
d="M130 513h-105v177h105v-177z" />
    <glyph glyph-name="parenleft" unicode="(" horiz-adv-x="275" 
d="M162 181q0 -41 5 -69.5t16 -51.5t30 -44.5t46 -47.5l-61 -84q-43 36 -70.5 67.5t-43.5 63.5t-22 66.5t-6 76.5v380q0 42 6 76.5t22 66.5t43.5 63.5t70.5 67.5l61 -84q-27 -26 -46 -47.5t-30 -44.5t-16 -52t-5 -69v-334z" />
    <glyph glyph-name="parenright" unicode=")" horiz-adv-x="275" 
d="M119 515q0 40 -5 69t-16 52t-30 44.5t-46 47.5l61 84q43 -36 70.5 -67.5t43.5 -63.5t22 -66.5t6 -76.5v-380q0 -42 -6 -76.5t-22 -66.5t-43.5 -63.5t-70.5 -67.5l-61 84q27 26 46 47.5t30 44.5t16 51.5t5 69.5v334z" />
    <glyph glyph-name="asterisk" unicode="*" horiz-adv-x="371" 
d="M247 515l88 -54l-48 -68l-67 50l4 -102h-83l3 102l-66 -50l-48 68l87 54l-87 56l48 68l66 -51l-3 102h83l-4 -102l67 51l48 -68z" />
    <glyph glyph-name="plus" unicode="+" 
d="M66 400h115v149h93v-149h115v-92h-113v-148h-93v148h-117v92z" />
    <glyph glyph-name="comma" unicode="," horiz-adv-x="220" 
d="M169 -52l-118 -101v291h118v-190z" />
    <glyph glyph-name="hyphen" unicode="-" horiz-adv-x="262" 
d="M25 336h212v-94h-212v94z" />
    <glyph glyph-name="period" unicode="." horiz-adv-x="240" 
d="M189 0h-138v138h138v-138z" />
    <glyph glyph-name="slash" unicode="/" horiz-adv-x="416" 
d="M40 -116l275 928h97l-275 -928h-97z" />
    <glyph glyph-name="zero" unicode="0" 
d="M416 203q0 -55 -15.5 -95t-41 -66t-60 -38.5t-71.5 -12.5q-38 0 -72 12.5t-59.5 38.5t-41 66t-15.5 95v284q0 55 15.5 95t41 66t59.5 38.5t72 12.5q37 0 71.5 -12.5t60 -38.5t41 -66t15.5 -95v-284zM155 209q0 -59 17.5 -88.5t55.5 -29.5t55.5 29.5t17.5 88.5v272
q0 59 -17.5 88.5t-55.5 29.5t-55.5 -29.5t-17.5 -88.5v-272z" />
    <glyph glyph-name="one" unicode="1" 
d="M294 0h-115v564l-80 -67v117l91 76h104v-690z" />
    <glyph glyph-name="two" unicode="2" 
d="M388 0h-347v82l189 278q26 40 38 74.5t12 70.5q0 48 -20 71.5t-48 23.5q-30 0 -48.5 -24t-20.5 -71h-105q0 44 14.5 79.5t39 61t57 39.5t68.5 14q38 0 70.5 -14.5t56.5 -40t37.5 -62t13.5 -79.5q0 -33 -8 -62.5t-20 -56t-26 -49.5t-27 -42l-130 -193h204v-100z" />
    <glyph glyph-name="three" unicode="3" 
d="M166 406h41q37 0 57 27t20 76q0 38 -18 64.5t-50 26.5q-30 0 -46 -24.5t-20 -60.5h-105q1 42 15.5 76t38 58t55 37t67.5 13q39 0 71.5 -14.5t56 -40t37 -59.5t13.5 -73q0 -57 -24 -95.5t-53 -58.5q37 -21 61.5 -62t24.5 -105q0 -41 -12 -77.5t-34.5 -63.5t-56.5 -43
t-77 -16q-45 0 -79.5 14t-58.5 39.5t-37.5 60t-15.5 75.5h105q5 -38 23 -63t56 -25q35 0 53.5 28.5t18.5 73.5q0 53 -20.5 82.5t-65.5 29.5h-41v100z" />
    <glyph glyph-name="four" unicode="4" 
d="M328 690l-184 -485h116v188h115v-188h56v-101h-56v-104h-115v104h-248v82l196 504h120z" />
    <glyph glyph-name="five" unicode="5" 
d="M232 367q-23 0 -36.5 -14.5t-22.5 -36.5h-103v374h319v-109h-207v-144q12 16 31.5 27t49.5 11q66 0 107 -64t41 -185q0 -114 -44 -174.5t-132 -60.5q-35 0 -66.5 12.5t-56 36t-40.5 57t-19 74.5h112q6 -38 22.5 -58.5t44.5 -20.5q31 0 47.5 30.5t16.5 99.5
q0 72 -14.5 108.5t-49.5 36.5z" />
    <glyph glyph-name="six" unicode="6" 
d="M208 398q13 7 26 9.5t27 2.5q33 0 61.5 -15.5t49 -42.5t32.5 -64.5t12 -81.5q0 -52 -15 -92t-40.5 -67.5t-59.5 -41.5t-73 -14t-74 13.5t-60.5 40.5t-40.5 66.5t-15 92.5q0 38 14 84t35 98l117 304h121zM153 203q0 -51 18.5 -81t56.5 -30q37 0 55 30t18 81q0 50 -18 80.5
t-55 30.5q-38 0 -56.5 -30.5t-18.5 -80.5z" />
    <glyph glyph-name="seven" unicode="7" 
d="M63 476v214h343v-89l-163 -601h-117l165 589h-128v-113h-100z" />
    <glyph glyph-name="eight" unicode="8" 
d="M228 -9q-39 0 -73.5 14t-61 40t-41.5 63.5t-15 84.5q0 59 25 103t58 62q-34 21 -54.5 61.5t-20.5 89.5q0 45 15 80t40.5 59.5t58.5 37.5t69 13t69 -13t58.5 -37.5t40.5 -59.5t15 -80q0 -49 -20.5 -89.5t-54.5 -61.5q33 -18 58 -62t25 -103q0 -47 -15 -84.5t-41.5 -63.5
t-61 -40t-73.5 -14zM228 91q35 0 55.5 30.5t20.5 78.5q0 53 -23.5 80.5t-52.5 27.5t-52.5 -27.5t-23.5 -80.5q0 -48 20.5 -78.5t55.5 -30.5zM159 501q0 -44 19.5 -71.5t49.5 -27.5t49.5 27.5t19.5 71.5q0 43 -19.5 70t-49.5 27t-49.5 -27t-19.5 -70z" />
    <glyph glyph-name="nine" unicode="9" 
d="M248 292q-13 -7 -26 -9.5t-27 -2.5q-33 0 -61.5 15.5t-49 42.5t-32.5 64.5t-12 81.5q0 52 14.5 92t40 67.5t60 41.5t73.5 14t74 -13.5t60.5 -40.5t40.5 -67t15 -92q0 -38 -14 -84t-35 -98l-117 -304h-121zM303 487q0 51 -18.5 81t-56.5 30q-37 0 -55 -30t-18 -81
q0 -50 18 -80.5t55 -30.5q38 0 56.5 30.5t18.5 80.5z" />
    <glyph glyph-name="colon" unicode=":" horiz-adv-x="216" 
d="M169 381h-118v119h118v-119zM169 0h-118v118h118v-118z" />
    <glyph glyph-name="semicolon" unicode=";" horiz-adv-x="216" 
d="M169 -64l-118 -102v284h118v-182zM169 381h-118v119h118v-119z" />
    <glyph glyph-name="less" unicode="&#x3c;" 
d="M198 348l148 -107v-124l-266 183v97l266 183v-124z" />
    <glyph glyph-name="equal" unicode="=" 
d="M69 476h319v-99h-319v99zM69 304h319v-98h-319v98z" />
    <glyph glyph-name="greater" unicode="&#x3e;" 
d="M110 456v124l266 -183v-97l-266 -183v124l148 107z" />
    <glyph glyph-name="question" unicode="?" horiz-adv-x="411" 
d="M151 189v72q0 28 6.5 47t24.5 40l37 42q26 31 38 57.5t12 63.5q0 43 -16.5 65.5t-44.5 22.5q-26 0 -43.5 -21.5t-17.5 -63.5h-110q0 45 13.5 79.5t37 58t54.5 35.5t66 12q36 0 68 -12.5t56.5 -36.5t38.5 -59.5t14 -82.5q0 -30 -7.5 -56.5t-18 -48.5t-22.5 -39t-22 -28
l-39 -45q-13 -14 -18.5 -28t-5.5 -40v-34h-101zM260 0h-119v118h119v-118z" />
    <glyph glyph-name="at" unicode="@" horiz-adv-x="749" 
d="M531 234q0 -50 7.5 -67t27.5 -17q25 0 36.5 34.5t11.5 100.5q0 85 -20 143.5t-53 95t-77 53t-92 16.5q-67 0 -112 -28.5t-72.5 -74t-39 -102t-11.5 -112.5q0 -80 19 -139.5t51 -98.5t75.5 -58.5t93.5 -19.5q56 0 96.5 12t84.5 39l38 -76q-14 -11 -35 -23t-49.5 -21.5
t-63 -16t-75.5 -6.5q-65 0 -126.5 26t-109.5 77t-77 127.5t-29 177.5q0 98 28.5 174t75.5 128.5t109 79.5t129 27q73 0 136.5 -26.5t110.5 -77.5t74.5 -125.5t27.5 -170.5q0 -51 -10.5 -93t-30 -71.5t-48 -46t-64.5 -16.5t-64 16t-45 51q-14 -34 -39 -50.5t-67 -16.5
q-66 0 -102.5 52.5t-36.5 137.5v52q0 94 39 141.5t100 47.5q23 0 40 -7t31 -21v23h107v-250zM370 150q32 0 43 26.5t11 75.5v54q0 48 -13.5 69.5t-40.5 21.5q-29 0 -39 -25.5t-10 -75.5v-41q0 -51 10 -78t39 -27z" />
    <glyph glyph-name="A" unicode="A" horiz-adv-x="504" 
d="M1 0l193 690h114l194 -690h-123l-36 143h-185l-35 -143h-122zM184 243h134l-66 272z" />
    <glyph glyph-name="B" unicode="B" horiz-adv-x="509" 
d="M253 690q100 0 153 -44.5t53 -134.5q0 -54 -20.5 -93.5t-54.5 -56.5q45 -17 69 -57t24 -106q0 -39 -11 -75t-36 -63t-64 -43.5t-95 -16.5h-206v690h188zM181 100h81q52 0 75.5 27t23.5 77q0 55 -26 79.5t-84 24.5h-70v-208zM181 408h74q48 0 68 26.5t20 69.5q0 20 -4 36
t-15 27t-30.5 17t-50.5 6h-62v-182z" />
    <glyph glyph-name="C" unicode="C" horiz-adv-x="489" 
d="M354 476q-8 63 -31 92.5t-65 29.5q-51 0 -76 -48.5t-25 -160.5v-88q0 -111 25 -160t76 -49q43 0 65 29.5t31 92.5h110q-15 -117 -67 -170t-139 -53q-48 0 -88 18t-68.5 55.5t-44.5 96.5t-16 140v88q0 81 16 140t44.5 96.5t68.5 55.5t88 18q84 0 138 -55t68 -168h-110z
" />
    <glyph glyph-name="D" unicode="D" horiz-adv-x="522" 
d="M65 0v690h199q48 0 87.5 -16.5t68.5 -52.5t45 -94t16 -141v-82q0 -83 -16 -141t-45 -94t-68.5 -52.5t-87.5 -16.5h-199zM264 100q57 0 79 48.5t22 155.5v82q0 107 -22 155.5t-79 48.5h-83v-490h83z" />
    <glyph glyph-name="E" unicode="E" horiz-adv-x="445" 
d="M416 690v-101h-235v-182h210v-100h-210v-207h235v-100h-351v690h351z" />
    <glyph glyph-name="F" unicode="F" horiz-adv-x="438" 
d="M416 690v-101h-235v-198h210v-100h-210v-291h-116v690h351z" />
    <glyph glyph-name="G" unicode="G" horiz-adv-x="504" 
d="M464 354v-53q0 -84 -14.5 -142.5t-41.5 -96t-65 -54.5t-86 -17t-88 18t-68.5 55.5t-44.5 96.5t-16 140v83q0 83 16 142.5t44.5 98t68.5 56.5t88 18q88 0 140.5 -57t65.5 -166h-110q-8 60 -30.5 91t-65.5 31q-51 0 -76 -48.5t-25 -160.5v-88q0 -112 25 -160.5t76 -48.5
q48 0 70.5 38.5t25.5 122.5h-94v101h205z" />
    <glyph glyph-name="H" unicode="H" horiz-adv-x="551" 
d="M180 407h191v283h116v-690h-116v307h-191v-307h-116v690h116v-283z" />
    <glyph glyph-name="I" unicode="I" horiz-adv-x="262" 
d="M189 0h-116v690h116v-690z" />
    <glyph glyph-name="J" unicode="J" horiz-adv-x="432" 
d="M92 141q14 -23 33 -36t43 -13q21 0 36.5 9t26 30t15.5 56t5 86v417h116v-417q0 -77 -13.5 -130.5t-38 -87t-60 -49t-80.5 -15.5q-122 0 -177 96z" />
    <glyph glyph-name="K" unicode="K" horiz-adv-x="535" 
d="M398 0l-143 307l-74 -130v-177h-116v690h116v-325l181 325h130l-159 -276l194 -414h-129z" />
    <glyph glyph-name="L" unicode="L" horiz-adv-x="420" 
d="M181 100h235v-100h-351v690h116v-590z" />
    <glyph glyph-name="M" unicode="M" horiz-adv-x="664" 
d="M332 300l154 390h114v-690h-116v405l-113 -272h-77l-114 269v-402h-116v690h113z" />
    <glyph glyph-name="N" unicode="N" horiz-adv-x="551" 
d="M487 690v-690h-105l-202 409v-409h-116v690h103l204 -415v415h116z" />
    <glyph glyph-name="O" unicode="O" horiz-adv-x="516" 
d="M258 -9q-48 0 -88 18t-68.5 55.5t-44.5 96.5t-16 140v88q0 81 16 140t44.5 96.5t68.5 55.5t88 18t88 -18t68.5 -55.5t44.5 -96.5t16 -140v-88q0 -81 -16 -140t-44.5 -96.5t-68.5 -55.5t-88 -18zM258 599q-51 0 -76 -49t-25 -161v-88q0 -112 25 -161t76 -49t76 49t25 161
v88q0 112 -25 161t-76 49z" />
    <glyph glyph-name="P" unicode="P" horiz-adv-x="498" 
d="M181 252v-252h-116v690h201q98 0 154.5 -55.5t56.5 -162.5t-56 -163.5t-155 -56.5h-85zM250 352q60 0 85.5 30t25.5 90q0 57 -25.5 87.5t-85.5 30.5h-69v-238h69z" />
    <glyph glyph-name="Q" unicode="Q" horiz-adv-x="522" 
d="M258 -9q-48 0 -88 18t-68.5 55.5t-44.5 96.5t-16 140v88q0 81 16 140t44.5 96.5t68.5 55.5t88 18t88 -18t68.5 -55.5t44.5 -96.5t16 -140v-88q0 -54 -7 -98t-21 -79l81 -83l-72 -70l-66 67q-26 -24 -60 -35.5t-72 -11.5zM311 265l43 -45q2 17 3.5 37.5t1.5 43.5v88
q0 112 -25 161t-76 49t-76 -49t-25 -161v-88q0 -112 25 -161t76 -49q36 0 58 23l-77 81z" />
    <glyph glyph-name="R" unicode="R" horiz-adv-x="515" 
d="M369 0l-102 280h-87v-280h-116v690h201q98 0 154.5 -51.5t56.5 -154.5q0 -72 -25.5 -117.5t-72.5 -66.5l117 -300h-126zM254 380q53 0 79.5 22.5t26.5 81.5t-26.5 82.5t-79.5 23.5h-74v-210h74z" />
    <glyph glyph-name="S" unicode="S" horiz-adv-x="481" 
d="M354 524q-19 35 -43 54.5t-66 19.5t-62 -23t-20 -67q0 -50 27 -73.5t84 -39.5q44 -12 76.5 -29t53.5 -41.5t31.5 -57.5t10.5 -78q0 -39 -12 -74.5t-36 -63t-61 -44t-87 -16.5q-74 0 -127 27.5t-90 85.5l89 62q25 -37 51 -55.5t70 -18.5q50 0 68.5 27t18.5 65
q0 21 -5 37.5t-17.5 30.5t-35 25.5t-56.5 21.5q-82 23 -125.5 72t-43.5 137q0 39 11.5 73.5t35.5 61t60.5 41.5t87.5 15q136 0 198 -113z" />
    <glyph glyph-name="T" unicode="T" horiz-adv-x="436" 
d="M431 690v-101h-155v-589h-116v589h-155v101h426z" />
    <glyph glyph-name="U" unicode="U" horiz-adv-x="562" 
d="M497 690v-410q0 -77 -16 -131.5t-45 -89.5t-68.5 -51.5t-86.5 -16.5t-87 16.5t-68.5 51.5t-44.5 89.5t-16 130.5v411h116v-411q0 -99 23.5 -143t76.5 -44t76.5 44t23.5 143v411h116z" />
    <glyph glyph-name="V" unicode="V" horiz-adv-x="507" 
d="M130 690l123 -497l123 497h126l-196 -690h-106l-195 690h125z" />
    <glyph glyph-name="W" unicode="W" horiz-adv-x="730" 
d="M365 500l-116 -500h-113l-129 690h122l77 -493l104 493h110l104 -493l77 493h122l-129 -690h-113z" />
    <glyph glyph-name="X" unicode="X" horiz-adv-x="496" 
d="M354 0l-106 247l-106 -247h-128l160 356l-142 334h128l88 -232l88 232h128l-142 -334l160 -356h-128z" />
    <glyph glyph-name="Y" unicode="Y" horiz-adv-x="485" 
d="M10 690h128l104 -272l104 272h128l-174 -402v-288h-116v288z" />
    <glyph glyph-name="Z" unicode="Z" horiz-adv-x="429" 
d="M398 690v-77l-235 -513h244v-100h-381v77l237 512h-237v101h372z" />
    <glyph glyph-name="bracketleft" unicode="[" horiz-adv-x="290" 
d="M60 792h195v-92h-89v-710h89v-92h-195v894z" />
    <glyph glyph-name="backslash" unicode="\" horiz-adv-x="413" 
d="M126 812l273 -928h-95l-274 928h96z" />
    <glyph glyph-name="bracketright" unicode="]" horiz-adv-x="290" 
d="M230 792v-894h-195v91h89v712h-89v91h195z" />
    <glyph glyph-name="asciicircum" unicode="^" horiz-adv-x="439" 
d="M269 690l141 -253h-123l-67 156l-67 -156h-123l141 253h98z" />
    <glyph glyph-name="underscore" unicode="_" horiz-adv-x="431" 
d="M431 -78v-85h-431v85h431z" />
    <glyph glyph-name="grave" unicode="`" horiz-adv-x="289" 
d="M231 567h-98l-75 158h116z" />
    <glyph glyph-name="a" unicode="a" horiz-adv-x="414" 
d="M27 147q0 40 12.5 68t33.5 46t49.5 26t61.5 8h76v42q0 47 -14 63.5t-58 16.5q-29 0 -46 -8.5t-31 -35.5l-75 53q23 45 60.5 64t100.5 19q39 0 70.5 -8.5t53 -28.5t33 -53t11.5 -83v-336h-105v46q-14 -29 -35 -42t-56 -13q-62 0 -102 40.5t-40 115.5zM260 213h-65
q-63 0 -63 -66q0 -35 15 -50t42 -15q18 0 31.5 4.5t22 16.5t13 32.5t4.5 53.5v24z" />
    <glyph glyph-name="b" unicode="b" horiz-adv-x="435" 
d="M156 463q16 22 38.5 34t51.5 12q70 0 114 -58t44 -169v-63q0 -50 -10.5 -92t-30.5 -72t-49.5 -47t-67.5 -17q-34 0 -55 11t-35 31v-33h-107v690h107v-227zM227 84q22 0 35.5 10.5t21 29t10.5 44t3 54.5v58q0 66 -15.5 101t-54.5 35q-38 0 -54.5 -33t-16.5 -95v-66
q0 -29 3 -54.5t11.5 -44t22 -29t34.5 -10.5z" />
    <glyph glyph-name="c" unicode="c" horiz-adv-x="371" 
d="M362 77q-41 -86 -149 -86q-44 0 -78 16t-57 46t-35 71.5t-12 92.5v68q0 109 48 166.5t139 57.5q48 0 85.5 -21t58.5 -61l-80 -55q-11 20 -26 32t-40 12q-45 0 -61.5 -35.5t-16.5 -100.5v-58q0 -29 3 -54.5t11 -44.5t23.5 -29.5t40.5 -10.5q24 0 40 11t28 36z" />
    <glyph glyph-name="d" unicode="d" horiz-adv-x="435" 
d="M279 690h107v-690h-107v33q-14 -20 -35 -31t-55 -11q-38 0 -67.5 17t-49.5 47t-30.5 72t-10.5 92v63q0 111 44 169t114 58q29 0 51.5 -12t38.5 -34v227zM208 84q21 0 34.5 10.5t22 29t11.5 44t3 54.5v66q0 62 -16.5 95t-54.5 33q-39 0 -54.5 -35t-15.5 -101v-58
q0 -29 3 -54.5t10.5 -44t21 -29t35.5 -10.5z" />
    <glyph glyph-name="e" unicode="e" horiz-adv-x="406" 
d="M361 77q-23 -46 -58.5 -66t-91.5 -20q-46 0 -80 16.5t-56.5 46.5t-33.5 71.5t-11 91.5v68q0 111 43.5 167.5t124.5 56.5q87 0 128 -59t41 -171v-55h-230q0 -29 3 -55t11 -45t22 -30t37 -11q33 0 47.5 12.5t25.5 34.5zM199 416q-32 0 -46 -29.5t-16 -80.5h124
q-1 110 -62 110z" />
    <glyph glyph-name="f" unicode="f" horiz-adv-x="256" 
d="M66 500v31q0 88 35 123.5t109 35.5h30v-96h-20q-29 0 -38 -19.5t-9 -63.5v-11h67v-92h-67v-408h-107v408h-52v92h52z" />
    <glyph glyph-name="g" unicode="g" horiz-adv-x="435" 
d="M279 37q-16 -22 -38.5 -34t-51.5 -12q-70 0 -114 58t-44 169v63q0 50 10.5 92t30.5 72t49.5 47t67.5 17q34 0 55 -11t35 -31v33h107v-490q0 -58 -14 -97.5t-38.5 -63.5t-57.5 -34.5t-72 -10.5q-58 0 -95 19.5t-66 67.5l73 53q12 -21 29.5 -35t49.5 -14q47 0 65.5 27
t18.5 88v27zM208 416q-22 0 -35.5 -10.5t-21 -29t-10.5 -44t-3 -54.5v-58q0 -66 15.5 -101t54.5 -35q38 0 54.5 33t16.5 95v66q0 29 -3 54.5t-11.5 44t-22 29t-34.5 10.5z" />
    <glyph glyph-name="h" unicode="h" horiz-adv-x="443" 
d="M49 690h107v-228q11 17 33.5 32t59.5 15q29 0 55.5 -10.5t46.5 -33.5t31.5 -60.5t11.5 -91.5v-313h-107v301q0 63 -15 88t-47 25q-38 0 -53.5 -30.5t-15.5 -81.5v-302h-107v690z" />
    <glyph glyph-name="i" unicode="i" horiz-adv-x="231" 
d="M62 500h107v-500h-107v500zM62 690h107v-109h-107v109z" />
    <glyph glyph-name="j" unicode="j" horiz-adv-x="216" 
d="M162 -31q0 -88 -40 -123.5t-122 -35.5v94q33 0 44 23t11 61v512h107v-531zM55 690h107v-109h-107v109z" />
    <glyph glyph-name="k" unicode="k" horiz-adv-x="418" 
d="M391 500l-131 -201l155 -299h-118l-102 200l-39 -58v-142h-107v690h107v-374l120 184h115z" />
    <glyph glyph-name="l" unicode="l" horiz-adv-x="246" 
d="M49 690h107v-508q0 -41 12 -64.5t46 -23.5v-94q-83 0 -124 35.5t-41 121.5v533z" />
    <glyph glyph-name="m" unicode="m" horiz-adv-x="663" 
d="M48 500h105v-41q12 20 34 35t56 15q74 0 111 -73q20 35 50 54t68 19q67 0 105 -49t38 -147v-313h-107v301q0 62 -14.5 87.5t-44.5 25.5q-29 0 -46.5 -28.5t-17.5 -79.5v-306h-107v301q0 64 -16.5 88.5t-43.5 24.5q-30 0 -46.5 -29.5t-16.5 -82.5v-302h-107v500z" />
    <glyph glyph-name="n" unicode="n" horiz-adv-x="443" 
d="M49 500h105v-40q13 20 35.5 34.5t59.5 14.5q29 0 55.5 -10.5t46.5 -33.5t31.5 -60.5t11.5 -91.5v-313h-107v301q0 63 -15 88t-47 25q-38 0 -53.5 -30.5t-15.5 -81.5v-302h-107v500z" />
    <glyph glyph-name="o" unicode="o" horiz-adv-x="414" 
d="M31 282q0 111 45.5 169t130.5 58t130.5 -58t45.5 -169v-64q0 -111 -45.5 -169t-130.5 -58t-130.5 58t-45.5 169v64zM276 280q0 65 -15 100.5t-54 35.5t-54 -35.5t-15 -100.5v-60q0 -65 15 -100.5t54 -35.5t54 35.5t15 100.5v60z" />
    <glyph glyph-name="p" unicode="p" horiz-adv-x="436" 
d="M156 -190h-107v690h107v-33q14 20 35 31t55 11q38 0 67.5 -17t49.5 -47t30.5 -72t10.5 -92v-63q0 -111 -44 -169t-114 -58q-29 0 -51.5 12t-38.5 34v-227zM227 416q-21 0 -34.5 -10.5t-22 -29t-11.5 -44t-3 -54.5v-66q0 -62 16.5 -95t54.5 -33q39 0 54.5 35t15.5 101v58
q0 29 -3 54.5t-10.5 44t-21 29t-35.5 10.5z" />
    <glyph glyph-name="q" unicode="q" horiz-adv-x="435" 
d="M279 37q-16 -22 -38.5 -34t-51.5 -12q-70 0 -114 58t-44 169v63q0 50 10.5 92t30.5 72t49.5 47t67.5 17q34 0 55 -11t35 -31v33h107v-690h-107v227zM208 416q-22 0 -35.5 -10.5t-21 -29t-10.5 -44t-3 -54.5v-58q0 -66 15.5 -101t54.5 -35q38 0 54.5 33t16.5 95v66
q0 29 -3 54.5t-11.5 44t-22 29t-34.5 10.5z" />
    <glyph glyph-name="r" unicode="r" horiz-adv-x="343" 
d="M272 377q-9 17 -21 27t-32 10q-31 0 -47 -27.5t-16 -75.5v-311h-107v500h105v-39q11 20 32 34t54 14q73 0 111 -74z" />
    <glyph glyph-name="s" unicode="s" horiz-adv-x="392" 
d="M273 370q-15 23 -31 33.5t-46 10.5q-25 0 -40 -12.5t-15 -38.5q0 -30 17 -43.5t61 -21.5q33 -6 58.5 -17.5t43.5 -29.5t27.5 -44.5t9.5 -63.5q0 -69 -41 -110.5t-121 -41.5q-63 0 -103 20.5t-66 62.5l77 56q15 -20 33 -32.5t55 -12.5q59 0 59 55q0 29 -15.5 42t-59.5 23
q-30 7 -56 17t-45 27.5t-30 44.5t-11 66q0 67 41 108t118 41q51 0 91.5 -18.5t64.5 -65.5z" />
    <glyph glyph-name="t" unicode="t" horiz-adv-x="282" 
d="M15 500h52v110h107v-110h81v-92h-81v-229q0 -44 9 -63.5t38 -19.5h34v-96h-44q-37 0 -64 8t-45 27t-26.5 49.5t-8.5 74.5v249h-52v92z" />
    <glyph glyph-name="u" unicode="u" horiz-adv-x="443" 
d="M394 0h-105v39q-11 -22 -31.5 -35t-58.5 -13q-31 0 -58.5 10.5t-47.5 34t-32 61t-12 91.5v312h107v-301q0 -33 4 -55t11.5 -35t19.5 -18.5t28 -5.5q37 0 52.5 28t15.5 85v302h107v-500z" />
    <glyph glyph-name="v" unicode="v" horiz-adv-x="420" 
d="M300 500h117l-156 -500h-102l-156 500h117l90 -348z" />
    <glyph glyph-name="w" unicode="w" horiz-adv-x="592" 
d="M205 0h-88l-112 500h110l57 -310l81 310h86l81 -310l57 310h110l-112 -500h-88l-91 333z" />
    <glyph glyph-name="x" unicode="x" horiz-adv-x="408" 
d="M204 342l68 158h117l-125 -244l137 -256h-118l-79 167l-79 -167h-118l137 256l-125 244h117z" />
    <glyph glyph-name="y" unicode="y" horiz-adv-x="400" 
d="M117 500l88 -348l81 348h110l-144 -520q-14 -48 -29 -80.5t-36.5 -52.5t-51.5 -28.5t-73 -8.5v98q42 0 64 22t23 59l-145 511h113z" />
    <glyph glyph-name="z" unicode="z" horiz-adv-x="378" 
d="M216 408h-184v92h312v-77l-184 -331h190v-92h-320v77z" />
    <glyph glyph-name="braceleft" unicode="{" horiz-adv-x="279" 
d="M44 393q21 0 31 11.5t10 40.5v187q0 49 10 79t28 47t43.5 23t56.5 6h34v-92h-13q-14 0 -24 -2.5t-16.5 -10.5t-9.5 -23.5t-3 -42.5v-200q0 -32 -8.5 -47t-28.5 -23q20 -8 28.5 -23t8.5 -47v-200q0 -27 3 -42.5t9.5 -23.5t16.5 -10.5t24 -2.5h13v-92h-34q-31 0 -56.5 6
t-43.5 23t-28 47t-10 79v187q0 29 -10 40.5t-31 11.5h-18v94h18v0z" />
    <glyph glyph-name="bar" unicode="|" horiz-adv-x="248" 
d="M172 -116h-100v928h100v-928z" />
    <glyph glyph-name="braceright" unicode="}" horiz-adv-x="274" 
d="M257 393v-94h-18q-21 0 -31 -11.5t-10 -40.5v-187q0 -49 -10 -79t-28 -47t-43.5 -23t-56.5 -6h-34v92h13q14 0 24 2.5t16.5 10.5t9.5 23.5t3 42.5v200q0 32 8.5 47t28.5 23q-20 8 -28.5 23t-8.5 47v200q0 27 -3 42.5t-9.5 23.5t-16.5 10.5t-24 2.5h-13v92h34
q31 0 56.5 -6t43.5 -23t28 -47t10 -79v-187q0 -29 10 -40.5t31 -11.5h18z" />
    <glyph glyph-name="asciitilde" unicode="~" 
d="M296 267q-26 0 -44 7t-33 15.5t-29.5 15.5t-32.5 7q-23 0 -40.5 -12t-31.5 -34l-69 59q25 36 60 58t81 22q27 0 45.5 -7t33.5 -15.5l28.5 -15.5t31.5 -7q23 0 41 12.5t32 34.5l70 -59q-26 -37 -61.5 -59t-81.5 -22z" />
    <glyph glyph-name="nonbreakingspace" unicode="&#xa0;" horiz-adv-x="213" 
 />
    <glyph glyph-name="exclamdown" unicode="&#xa1;" horiz-adv-x="217" 
d="M163 311.034h-109v-500.908h109v500.908zM168 500h-119v-117.979h119v117.979z" />
    <glyph glyph-name="cent" unicode="&#xa2;" 
d="M199 -3q-66 16 -100 74t-34 146v68q0 91 34 146.5t100 71.5v119h95v-118q33 -8 59 -27t43 -50l-80 -55q-11 20 -26 32t-40 12q-45 0 -61.5 -35.5t-16.5 -100.5v-58q0 -29 3 -54.5t11 -44.5t23.5 -29.5t40.5 -10.5q24 0 40 11t28 36l78 -53q-33 -68 -102 -81v-112h-95v113
z" />
    <glyph glyph-name="sterling" unicode="&#xa3;" 
d="M30 100h64v195h-64v101h64v22q0 76 13.5 129.5t37.5 87.5t58 49t75 15q52 0 91.5 -22.5t68.5 -73.5l-92 -55q-11 20 -27.5 35t-40.5 15q-16 0 -28.5 -9t-21.5 -30t-13.5 -55.5t-4.5 -85.5v-22h108v-101h-108v-195h210v-100h-390v100z" />
    <glyph glyph-name="currency" unicode="&#xa4;" 
d="M55 369q0 28 6.5 53t17.5 48l-63 77l77 63l53 -65q38 22 82 22q43 0 81 -22l54 65l77 -63l-63 -77q11 -22 17.5 -47.5t6.5 -53.5q0 -57 -25 -104l64 -77l-77 -63l-56 67q-35 -21 -79 -21t-80 21l-55 -67l-77 63l63 77q-11 23 -17.5 49t-6.5 55zM152 367q0 -45 18.5 -75.5
t57.5 -30.5t57.5 30.5t18.5 75.5t-18.5 75.5t-57.5 30.5t-57.5 -30.5t-18.5 -75.5z" />
    <glyph glyph-name="yen" unicode="&#xa5;" 
d="M57 228h113v56h-113v101h71l-106 305h129l77 -282l77 282h129l-106 -305h71v-101h-113v-56h113v-101h-113v-127h-116v127h-113v101z" />
    <glyph glyph-name="brokenbar" unicode="&#xa6;" horiz-adv-x="237" 
d="M179 0h-116v243h116v-243zM179 447h-116v243h116v-243z" />
    <glyph glyph-name="section" unicode="&#xa7;" horiz-adv-x="451" 
d="M174 -40q2 -23 9.5 -39t33.5 -16q19 0 30.5 10t11.5 33q0 32 -18 55.5t-61 40.5q-28 12 -53.5 25.5t-44.5 36t-30.5 56.5t-11.5 86q0 60 24 101t59 62q-23 20 -41 50t-18 77q0 34 11.5 62t32.5 48.5t49.5 31.5t63.5 11q72 0 109.5 -39.5t37.5 -111.5h-105q-2 23 -10 39
t-34 16q-23 0 -34 -15.5t-11 -38.5q0 -27 15 -46.5t58 -36.5q32 -12 59.5 -26.5t47 -36.5t30.5 -55.5t11 -84.5q0 -60 -23.5 -102t-59.5 -65q23 -20 40.5 -50.5t17.5 -81.5q0 -32 -11.5 -59t-31.5 -46.5t-48.5 -30.5t-62.5 -11q-73 0 -110.5 39.5t-38.5 111.5h107zM218 155
q32 0 49.5 25t17.5 70t-17.5 69.5t-49.5 24.5t-50 -24.5t-18 -69.5t17.5 -70t50.5 -25z" />
    <glyph glyph-name="dieresis" unicode="&#xa8;" horiz-adv-x="349" 
d="M31 690h109v-105h-109v105zM210 690h108v-105h-108v105z" />
    <glyph glyph-name="copyright" unicode="&#xa9;" horiz-adv-x="954" 
d="M35 250q0 92 34.5 172.5t94.5 140t140 93.5t171 34t171 -34t140 -93.5t94.5 -140t34.5 -172.5t-34.5 -172.5t-94.5 -140t-140 -93.5t-171 -34t-171 34t-140 93.5t-94.5 140t-34.5 172.5zM137 250q0 -72 26 -135t72 -110t107.5 -74t132.5 -27t132.5 27t107 74t71.5 110
t26 135t-26 135t-71.5 109.5t-107 73.5t-132.5 27t-132.5 -27t-107.5 -73.5t-72 -109.5t-26 -135zM659 76q-25 -45 -69 -65t-109 -20q-53 0 -93.5 16t-69 46t-43 71.5t-14.5 92.5v68q0 109 58 166.5t166 57.5q57 0 102.5 -20.5t71.5 -60.5l-82 -57q-14 20 -38 32.5t-56 12.5
q-59 0 -87.5 -35.5t-28.5 -100.5v-58q0 -29 5.5 -54.5t19 -44.5t36 -29.5t55.5 -10.5q32 0 56.5 11.5t38.5 37.5z" />
    <glyph glyph-name="ordfeminine" unicode="&#xaa;" horiz-adv-x="272" 
d="M17 466q0 51 26.5 73.5t74.5 22.5h49v21q0 28 -9 38.5t-34 10.5q-20 0 -31 -7t-19 -25l-52 34q27 58 109 58q52 0 80.5 -22t28.5 -79v-217h-73v24q-9 -17 -22.5 -22.5t-35.5 -5.5q-38 0 -65 24t-27 72zM167 505h-40q-20 0 -28.5 -9.5t-8.5 -29.5t9.5 -28.5t24.5 -8.5
q20 0 31.5 12t11.5 51v13z" />
    <glyph glyph-name="guillemotleft" unicode="&#xab;" horiz-adv-x="463" 
d="M25 283l207 231v-131l-90 -100l90 -100v-131zM215 283l207 231v-131l-90 -100l90 -100v-131z" />
    <glyph glyph-name="logicalnot" unicode="&#xac;" 
d="M303 176v130h-261v97h366v-227h-105z" />
    <glyph glyph-name="sfthyphen" unicode="&#xad;" horiz-adv-x="262" 
d="M25 336h212v-94h-212v94z" />
    <glyph glyph-name="registered" unicode="&#xae;" horiz-adv-x="552" 
d="M17 501q0 53 20.5 100t55.5 82t81.5 55.5t99.5 20.5t100 -20.5t82 -55.5t55.5 -82t20.5 -100t-20.5 -100t-55.5 -82t-82 -55.5t-100 -20.5t-99.5 20.5t-81.5 55.5t-55.5 82t-20.5 100zM83 501q0 -39 15 -74t41 -61t61 -41t74 -15q40 0 74.5 15t60.5 41t41 61t15 74
t-15 74t-41 61t-60.5 41t-74.5 15q-39 0 -74 -15t-61 -41t-41 -61t-15 -74zM170 374v261h109q27 0 46 -7t31 -18.5t17.5 -26t5.5 -29.5q0 -29 -14 -48t-38 -29l65 -103h-69l-56 93h-37v-93h-60zM267 518q26 0 38 7.5t12 27.5q0 31 -45 31h-42v-66h37z" />
    <glyph glyph-name="macron" unicode="&#xaf;" horiz-adv-x="331" 
d="M50 679h231v-94h-231v94z" />
    <glyph glyph-name="degree" unicode="&#xb0;" horiz-adv-x="304" 
d="M14 559q0 29 11 54.5t29.5 44t43.5 29t54 10.5q28 0 53.5 -10.5t44 -29t29.5 -44t11 -54.5t-11 -54.5t-29.5 -44t-44 -29t-53.5 -10.5q-29 0 -54 10.5t-43.5 29t-29.5 44t-11 54.5zM94 559q0 -26 16.5 -43t41.5 -17q24 0 40.5 17t16.5 43q0 25 -16.5 42t-40.5 17
q-25 0 -41.5 -17t-16.5 -42z" />
    <glyph glyph-name="plusminus" unicode="&#xb1;" 
d="M66 440h115v149h93v-149h115v-92h-113v-115h-93v115h-117v92zM389 207v-92h-323v92h323z" />
    <glyph glyph-name="twosuperior" unicode="&#xb2;" horiz-adv-x="242" 
d="M222 374h-189v57l83 95q15 17 23 31.5t8 31.5q0 38 -25 38q-11 0 -18 -10.5t-8 -28.5h-69q0 25 8 44.5t21.5 33t31.5 20.5t37 7q42 0 68.5 -25.5t26.5 -73.5q0 -16 -5.5 -31.5t-13.5 -29t-17 -25t-17 -20.5l-47 -54h102v-60z" />
    <glyph glyph-name="threesuperior" unicode="&#xb3;" horiz-adv-x="262" 
d="M103 564h11q33 0 33 36q0 15 -6.5 23t-17.5 8q-13 0 -19 -9t-8 -23h-69q0 42 28 68t70 26q41 0 66.5 -22.5t25.5 -64.5q0 -29 -12.5 -44.5t-26.5 -23.5q19 -8 31.5 -26t12.5 -48q0 -46 -28.5 -69.5t-68.5 -23.5q-48 0 -73.5 28t-27.5 68h70q2 -14 8.5 -23.5t20.5 -9.5
q11 0 19 8.5t8 28.5q0 17 -8 27.5t-28 10.5h-11v55z" />
    <glyph glyph-name="acute" unicode="&#xb4;" horiz-adv-x="325" 
d="M133 725h115l-74 -158h-98z" />
    <glyph glyph-name="mu" unicode="&#x3bc;" 
d="M55 500h102v-301q0 -33 4.5 -55t13.5 -35t21.5 -18.5t28.5 -5.5q37 0 54.5 30.5t17.5 82.5v302h103v-500h-101v45q-13 -25 -31.5 -39.5t-50.5 -14.5q-17 0 -32 4.5t-28 12.5v-145h-102v637z" />
    <glyph glyph-name="mu" unicode="&#xb5;" 
d="M55 500h102v-301q0 -33 4.5 -55t13.5 -35t21.5 -18.5t28.5 -5.5q37 0 54.5 30.5t17.5 82.5v302h103v-500h-101v45q-13 -25 -31.5 -39.5t-50.5 -14.5q-17 0 -32 4.5t-28 12.5v-145h-102v637z" />
    <glyph glyph-name="paragraph" unicode="&#xb6;" horiz-adv-x="594" 
d="M519 -190h-112v779h-67v-779h-112v500q-39 0 -74 15t-60.5 40.5t-40.5 60.5t-15 74t15 74t40.5 60.5t60.5 40.5t74 15h291v-880z" />
    <glyph glyph-name="middot" unicode="&#xb7;" horiz-adv-x="202" 
d="M164 285h-126v126h126v-126z" />
    <glyph glyph-name="cedilla" unicode="&#xb8;" horiz-adv-x="287" 
d="M109 25l67 -3l-10 -45q20 -8 34 -26t14 -47q0 -45 -30.5 -64t-72.5 -19q-28 0 -38 3l13 59q4 -1 15 -1q12 0 20 5t8 19t-10 18.5t-27 4.5z" />
    <glyph glyph-name="onesuperior" unicode="&#xb9;" horiz-adv-x="246" 
d="M180 374h-73v236l-47 -38v75l53 43h67v-316z" />
    <glyph glyph-name="ordmasculine" unicode="&#xba;" horiz-adv-x="290" 
d="M142 371q-50 0 -82.5 34.5t-32.5 103.5v46q0 69 32.5 103.5t82.5 34.5t82.5 -34.5t32.5 -103.5v-46q0 -69 -32.5 -103.5t-82.5 -34.5zM142 626q-20 0 -31 -17t-11 -55v-44q0 -38 11 -55t31 -17t31 17t11 55v44q0 38 -11 55t-31 17z" />
    <glyph glyph-name="guillemotright" unicode="&#xbb;" horiz-adv-x="462" 
d="M230 52v131l90 100l-90 100v131l207 -231zM40 52v131l90 100l-90 100v131l207 -231z" />
    <glyph glyph-name="onequarter" unicode="&#xbc;" horiz-adv-x="809" 
d="M432 374h-73v236l-47 -38v75l53 43h67v-316zM718 317l-102 -201h50v50h72v-50h33v-62h-33v-53h-72v53h-135v55l107 208h80zM761 690l-391 -690h-100l391 690h100z" />
    <glyph glyph-name="onehalf" unicode="&#xbd;" horiz-adv-x="536" 
d="M173 374h-73v236l-47 -38v75l53 43h67v-316zM504 1h-189v57l83 95q15 17 23 31.5t8 31.5q0 38 -25 38q-11 0 -18 -10.5t-8 -28.5h-69q0 25 8 44.5t21.5 33t31.5 20.5t37 7q42 0 68.5 -25.5t26.5 -73.5q0 -16 -5.5 -31.5t-13.5 -29t-17 -25t-17 -20.5l-47 -54h102v-60z
M501 690l-391 -690h-100l391 690h100z" />
    <glyph glyph-name="threequarters" unicode="&#xbe;" horiz-adv-x="796" 
d="M351 564h11q33 0 33 36q0 15 -6.5 23t-17.5 8q-13 0 -19 -9t-8 -23h-69q0 42 28 68t70 26q41 0 66.5 -22.5t25.5 -64.5q0 -29 -12.5 -44.5t-26.5 -23.5q19 -8 31.5 -26t12.5 -48q0 -46 -28.5 -69.5t-68.5 -23.5q-48 0 -73.5 28t-27.5 68h70q2 -14 8.5 -23.5t20.5 -9.5
q11 0 19 8.5t8 28.5q0 17 -8 27.5t-28 10.5h-11v55zM718 317l-102 -201h50v50h72v-50h33v-62h-33v-53h-72v53h-135v55l107 208h80zM761 690l-391 -690h-100l391 690h100z" />
    <glyph glyph-name="questiondown" unicode="&#xbf;" horiz-adv-x="411" 
d="M271.027 311.034v-71.9863q0 -27.9951 -6.49805 -46.9912q-6.49902 -18.9971 -24.4961 -39.9932l-36.9932 -41.9922q-25.9951 -30.9941 -37.9932 -57.4893t-11.998 -63.4883q0 -42.9922 16.4971 -65.4883t44.4922 -22.4961q25.9951 0 43.4922 21.4961t17.4971 63.4883
h109.979q0 -44.9912 -13.498 -79.4854q-13.4971 -34.4932 -36.9932 -57.9893q-23.4951 -23.4951 -54.4893 -35.4932q-30.9951 -11.998 -65.9883 -11.998q-35.9932 0 -67.9873 12.498q-31.9941 12.4971 -56.4902 36.4932q-24.4951 23.9951 -38.4922 59.4893
q-13.998 35.4932 -13.998 82.4844q0 29.9951 7.49902 56.4902q7.49805 26.4951 17.9961 48.4912q10.498 21.9951 22.4961 38.9922t21.9961 27.9951l38.9932 44.9922q12.9971 13.9971 18.4961 27.9941q5.49902 13.998 5.49902 39.9932v33.9932h100.981zM162.048 500h118.978
v-117.979h-118.978v117.979z" />
    <glyph glyph-name="Agrave" unicode="&#xc0;" horiz-adv-x="504" 
d="M1 0l193 690h114l194 -690h-123l-36 143h-185l-35 -143h-122zM184 243h134l-66 272zM294 744h-99l-85 129h119z" />
    <glyph glyph-name="Aacute" unicode="&#xc1;" horiz-adv-x="504" 
d="M1 0l193 690h114l194 -690h-123l-36 143h-185l-35 -143h-122zM184 243h134l-66 272zM265 873h119l-84 -129h-100z" />
    <glyph glyph-name="Acircumflex" unicode="&#xc2;" horiz-adv-x="504" 
d="M1 0l193 690h114l194 -690h-123l-36 143h-185l-35 -143h-122zM184 243h134l-66 272zM302 880l118 -142h-107l-61 80l-61 -80h-107l118 142h100z" />
    <glyph glyph-name="Atilde" unicode="&#xc3;" horiz-adv-x="504" 
d="M1 0l193 690h114l194 -690h-123l-36 143h-185l-35 -143h-122zM184 243h134l-66 272zM308 744q-17 0 -31 5t-27 10.5l-24.5 10.5t-23.5 5q-25 0 -48 -29l-59 50q20 29 47.5 45.5t56.5 16.5q16 0 30 -5t27 -10.5l25 -10.5t25 -5q25 0 45 29l59 -50q-19 -29 -46 -45.5
t-56 -16.5z" />
    <glyph glyph-name="Adieresis" unicode="&#xc4;" horiz-adv-x="504" 
d="M1 0l193 690h114l194 -690h-123l-36 143h-185l-35 -143h-122zM184 243h134l-66 272zM103 869h108v-105h-108v105zM293 869h109v-105h-109v105z" />
    <glyph glyph-name="Aring" unicode="&#xc5;" horiz-adv-x="504" 
d="M1 0l183 656q-21 12 -33 33t-12 48q0 46 32.5 72.5t80.5 26.5q49 0 81.5 -26.5t32.5 -72.5q0 -28 -13 -49t-35 -33l184 -655h-123l-36 143h-185l-35 -143h-122zM184 243h134l-66 272zM206 737q0 -19 13 -28.5t33 -9.5t33 9.5t13 28.5q0 20 -13 29t-33 9t-33 -9t-13 -29z
" />
    <glyph glyph-name="AE" unicode="&#xc6;" horiz-adv-x="740" 
d="M710 690v-101h-235v-182h210v-100h-210v-207h235v-100h-351v143h-169l-65 -143h-123l320 690h388zM359 243v267l-123 -267h123z" />
    <glyph glyph-name="Ccedilla" unicode="&#xc7;" horiz-adv-x="489" 
d="M226 -7q-83 10 -134 84.5t-51 223.5v88q0 81 16 140t44.5 96.5t68.5 55.5t88 18q84 0 138 -55t68 -168h-110q-8 63 -31 92.5t-65 29.5q-51 0 -76 -48.5t-25 -160.5v-88q0 -111 25 -160t76 -49q43 0 65 29.5t31 92.5h110q-14 -105 -57 -158t-115 -63l-3 -16q20 -9 34 -26
t14 -47q0 -42 -30.5 -62.5t-72.5 -20.5q-28 0 -38 3l13 59q5 -1 16 -1q12 0 19.5 5t7.5 19t-10 18.5t-27 4.5z" />
    <glyph glyph-name="Egrave" unicode="&#xc8;" horiz-adv-x="445" 
d="M416 690v-101h-235v-182h210v-100h-210v-207h235v-100h-351v690h351zM311 744h-99l-85 129h119z" />
    <glyph glyph-name="Eacute" unicode="&#xc9;" horiz-adv-x="445" 
d="M416 690v-101h-235v-182h210v-100h-210v-207h235v-100h-351v690h351zM241 873h119l-84 -129h-100z" />
    <glyph glyph-name="Ecircumflex" unicode="&#xca;" horiz-adv-x="445" 
d="M416 690v-101h-235v-182h210v-100h-210v-207h235v-100h-351v690h351zM290 880l118 -142h-107l-61 80l-61 -80h-107l118 142h100z" />
    <glyph glyph-name="Edieresis" unicode="&#xcb;" horiz-adv-x="445" 
d="M416 690v-101h-235v-182h210v-100h-210v-207h235v-100h-351v690h351zM91 869h108v-105h-108v105zM281 869h109v-105h-109v105z" />
    <glyph glyph-name="Igrave" unicode="&#xcc;" horiz-adv-x="262" 
d="M189 0h-116v690h116v-690zM178 744h-99l-85 129h119z" />
    <glyph glyph-name="Iacute" unicode="&#xcd;" horiz-adv-x="262" 
d="M189 0h-116v690h116v-690zM145 873h119l-84 -129h-100z" />
    <glyph glyph-name="Icircumflex" unicode="&#xce;" horiz-adv-x="262" 
d="M189 0h-116v690h116v-690zM182 880l118 -142h-107l-61 80l-61 -80h-107l118 142h100z" />
    <glyph glyph-name="Idieresis" unicode="&#xcf;" horiz-adv-x="262" 
d="M189 0h-116v690h116v-690zM-17 869h108v-105h-108v105zM173 869h109v-105h-109v105z" />
    <glyph glyph-name="Eth" unicode="&#xd0;" horiz-adv-x="526" 
d="M-8 407h77v283h199q48 0 87.5 -16.5t68.5 -52.5t45 -94t16 -141v-82q0 -83 -16 -141t-45 -94t-68.5 -52.5t-87.5 -16.5h-199v307h-77v100zM268 100q57 0 79 48.5t22 155.5v82q0 107 -22 155.5t-79 48.5h-83v-183h110v-100h-110v-207h83z" />
    <glyph glyph-name="Ntilde" unicode="&#xd1;" horiz-adv-x="551" 
d="M487 690v-690h-105l-202 409v-409h-116v690h103l204 -415v415h116zM331 744q-17 0 -31 5t-27 10.5l-24.5 10.5t-23.5 5q-25 0 -48 -29l-59 50q20 29 47.5 45.5t56.5 16.5q16 0 30 -5t27 -10.5l25 -10.5t25 -5q25 0 45 29l59 -50q-19 -29 -46 -45.5t-56 -16.5z" />
    <glyph glyph-name="Ograve" unicode="&#xd2;" horiz-adv-x="516" 
d="M258 -9q-48 0 -88 18t-68.5 55.5t-44.5 96.5t-16 140v88q0 81 16 140t44.5 96.5t68.5 55.5t88 18t88 -18t68.5 -55.5t44.5 -96.5t16 -140v-88q0 -81 -16 -140t-44.5 -96.5t-68.5 -55.5t-88 -18zM258 599q-51 0 -76 -49t-25 -161v-88q0 -112 25 -161t76 -49t76 49t25 161
v88q0 112 -25 161t-76 49zM312 744h-99l-85 129h119z" />
    <glyph glyph-name="Oacute" unicode="&#xd3;" horiz-adv-x="516" 
d="M258 -9q-48 0 -88 18t-68.5 55.5t-44.5 96.5t-16 140v88q0 81 16 140t44.5 96.5t68.5 55.5t88 18t88 -18t68.5 -55.5t44.5 -96.5t16 -140v-88q0 -81 -16 -140t-44.5 -96.5t-68.5 -55.5t-88 -18zM258 599q-51 0 -76 -49t-25 -161v-88q0 -112 25 -161t76 -49t76 49t25 161
v88q0 112 -25 161t-76 49zM263 873h119l-84 -129h-100z" />
    <glyph glyph-name="Ocircumflex" unicode="&#xd4;" horiz-adv-x="516" 
d="M258 -9q-48 0 -88 18t-68.5 55.5t-44.5 96.5t-16 140v88q0 81 16 140t44.5 96.5t68.5 55.5t88 18t88 -18t68.5 -55.5t44.5 -96.5t16 -140v-88q0 -81 -16 -140t-44.5 -96.5t-68.5 -55.5t-88 -18zM258 599q-51 0 -76 -49t-25 -161v-88q0 -112 25 -161t76 -49t76 49t25 161
v88q0 112 -25 161t-76 49zM308 880l118 -142h-107l-61 80l-61 -80h-107l118 142h100z" />
    <glyph glyph-name="Otilde" unicode="&#xd5;" horiz-adv-x="516" 
d="M258 -9q-48 0 -88 18t-68.5 55.5t-44.5 96.5t-16 140v88q0 81 16 140t44.5 96.5t68.5 55.5t88 18t88 -18t68.5 -55.5t44.5 -96.5t16 -140v-88q0 -81 -16 -140t-44.5 -96.5t-68.5 -55.5t-88 -18zM258 599q-51 0 -76 -49t-25 -161v-88q0 -112 25 -161t76 -49t76 49t25 161
v88q0 112 -25 161t-76 49zM314 744q-17 0 -31 5t-27 10.5l-24.5 10.5t-23.5 5q-25 0 -48 -29l-59 50q20 29 47.5 45.5t56.5 16.5q16 0 30 -5t27 -10.5l25 -10.5t25 -5q25 0 45 29l59 -50q-19 -29 -46 -45.5t-56 -16.5z" />
    <glyph glyph-name="Odieresis" unicode="&#xd6;" horiz-adv-x="516" 
d="M258 -9q-48 0 -88 18t-68.5 55.5t-44.5 96.5t-16 140v88q0 81 16 140t44.5 96.5t68.5 55.5t88 18t88 -18t68.5 -55.5t44.5 -96.5t16 -140v-88q0 -81 -16 -140t-44.5 -96.5t-68.5 -55.5t-88 -18zM258 599q-51 0 -76 -49t-25 -161v-88q0 -112 25 -161t76 -49t76 49t25 161
v88q0 112 -25 161t-76 49zM109 869h108v-105h-108v105zM299 869h109v-105h-109v105z" />
    <glyph glyph-name="multiply" unicode="&#xd7;" 
d="M394 482l-106 -126l105 -124l-70 -59l-95 112l-94 -112l-70 59l104 124l-106 126l70 59l96 -114l96 114z" />
    <glyph glyph-name="Oslash" unicode="&#xd8;" horiz-adv-x="516" 
d="M122 42q-38 36 -59.5 99.5t-21.5 159.5v88q0 81 16 140t44.5 96.5t68.5 55.5t88 18q28 0 52 -6l35 119h96l-48 -164q38 -36 60 -99.5t22 -159.5v-88q0 -81 -16 -140t-44.5 -96.5t-68.5 -55.5t-88 -18q-29 0 -53 6l-33 -113h-96zM359 389q0 65 -9 109l-117 -404
q10 -3 25 -3q51 0 76 49t25 161v88zM258 599q-51 0 -76 -49t-25 -161v-88q0 -33 2 -60t6 -49l117 404q-11 3 -24 3z" />
    <glyph glyph-name="Ugrave" unicode="&#xd9;" horiz-adv-x="562" 
d="M497 690v-410q0 -77 -16 -131.5t-45 -89.5t-68.5 -51.5t-86.5 -16.5t-87 16.5t-68.5 51.5t-44.5 89.5t-16 130.5v411h116v-411q0 -99 23.5 -143t76.5 -44t76.5 44t23.5 143v411h116zM340 744h-99l-85 129h119z" />
    <glyph glyph-name="Uacute" unicode="&#xda;" horiz-adv-x="562" 
d="M497 690v-410q0 -77 -16 -131.5t-45 -89.5t-68.5 -51.5t-86.5 -16.5t-87 16.5t-68.5 51.5t-44.5 89.5t-16 130.5v411h116v-411q0 -99 23.5 -143t76.5 -44t76.5 44t23.5 143v411h116zM294 873h119l-84 -129h-100z" />
    <glyph glyph-name="Ucircumflex" unicode="&#xdb;" horiz-adv-x="562" 
d="M497 690v-410q0 -77 -16 -131.5t-45 -89.5t-68.5 -51.5t-86.5 -16.5t-87 16.5t-68.5 51.5t-44.5 89.5t-16 130.5v411h116v-411q0 -99 23.5 -143t76.5 -44t76.5 44t23.5 143v411h116zM331 880l118 -142h-107l-61 80l-61 -80h-107l118 142h100z" />
    <glyph glyph-name="Udieresis" unicode="&#xdc;" horiz-adv-x="562" 
d="M497 690v-410q0 -77 -16 -131.5t-45 -89.5t-68.5 -51.5t-86.5 -16.5t-87 16.5t-68.5 51.5t-44.5 89.5t-16 130.5v411h116v-411q0 -99 23.5 -143t76.5 -44t76.5 44t23.5 143v411h116zM132 869h108v-105h-108v105zM322 869h109v-105h-109v105z" />
    <glyph glyph-name="Yacute" unicode="&#xdd;" horiz-adv-x="485" 
d="M10 690h128l104 -272l104 272h128l-174 -402v-288h-116v288zM258 873h119l-84 -129h-100z" />
    <glyph glyph-name="Thorn" unicode="&#xde;" horiz-adv-x="498" 
d="M181 139v-139h-116v690h112v-113h89q98 0 154.5 -55.5t56.5 -162.5t-56 -163.5t-155 -56.5h-85zM250 239q60 0 85.5 30t25.5 90q0 57 -25.5 87.5t-85.5 30.5h-69v-238h69z" />
    <glyph glyph-name="germandbls" unicode="&#xdf;" horiz-adv-x="437" 
d="M389 564q0 -32 -11.5 -56.5t-38.5 -40.5q31 -14 40.5 -42t9.5 -73v-212q0 -45 -7.5 -72.5t-22.5 -42.5t-38 -20t-54 -5h-52v91h26q23 0 32 14t9 47v198q0 35 -8 51t-33 16h-26v87h26q41 0 41 52q0 23 -12.5 39.5t-43.5 16.5q-40 0 -55.5 -29t-15.5 -92v-491h-107v499
q0 97 43.5 148.5t134.5 51.5q44 0 75 -11.5t50.5 -30.5t28.5 -43.5t9 -49.5z" />
    <glyph glyph-name="agrave" unicode="&#xe0;" horiz-adv-x="414" 
d="M27 147q0 40 12.5 68t33.5 46t49.5 26t61.5 8h76v42q0 47 -14 63.5t-58 16.5q-29 0 -46 -8.5t-31 -35.5l-75 53q23 45 60.5 64t100.5 19q39 0 70.5 -8.5t53 -28.5t33 -53t11.5 -83v-336h-105v46q-14 -29 -35 -42t-56 -13q-62 0 -102 40.5t-40 115.5zM260 213h-65
q-63 0 -63 -66q0 -35 15 -50t42 -15q18 0 31.5 4.5t22 16.5t13 32.5t4.5 53.5v24zM275 567h-98l-75 158h116z" />
    <glyph glyph-name="aacute" unicode="&#xe1;" horiz-adv-x="414" 
d="M27 147q0 40 12.5 68t33.5 46t49.5 26t61.5 8h76v42q0 47 -14 63.5t-58 16.5q-29 0 -46 -8.5t-31 -35.5l-75 53q23 45 60.5 64t100.5 19q39 0 70.5 -8.5t53 -28.5t33 -53t11.5 -83v-336h-105v46q-14 -29 -35 -42t-56 -13q-62 0 -102 40.5t-40 115.5zM260 213h-65
q-63 0 -63 -66q0 -35 15 -50t42 -15q18 0 31.5 4.5t22 16.5t13 32.5t4.5 53.5v24zM208 725h115l-74 -158h-98z" />
    <glyph glyph-name="acircumflex" unicode="&#xe2;" horiz-adv-x="414" 
d="M27 147q0 40 12.5 68t33.5 46t49.5 26t61.5 8h76v42q0 47 -14 63.5t-58 16.5q-29 0 -46 -8.5t-31 -35.5l-75 53q23 45 60.5 64t100.5 19q39 0 70.5 -8.5t53 -28.5t33 -53t11.5 -83v-336h-105v46q-14 -29 -35 -42t-56 -13q-62 0 -102 40.5t-40 115.5zM260 213h-65
q-63 0 -63 -66q0 -35 15 -50t42 -15q18 0 31.5 4.5t22 16.5t13 32.5t4.5 53.5v24zM256 700l97 -142h-96l-45 81l-45 -81h-96l97 142h88z" />
    <glyph glyph-name="atilde" unicode="&#xe3;" horiz-adv-x="414" 
d="M27 147q0 40 12.5 68t33.5 46t49.5 26t61.5 8h76v42q0 47 -14 63.5t-58 16.5q-29 0 -46 -8.5t-31 -35.5l-75 53q23 45 60.5 64t100.5 19q39 0 70.5 -8.5t53 -28.5t33 -53t11.5 -83v-336h-105v46q-14 -29 -35 -42t-56 -13q-62 0 -102 40.5t-40 115.5zM260 213h-65
q-63 0 -63 -66q0 -35 15 -50t42 -15q18 0 31.5 4.5t22 16.5t13 32.5t4.5 53.5v24zM263 572q-17 0 -31 5t-27 10.5l-24.5 10.5t-23.5 5q-27 0 -47 -29l-60 51q20 29 48 45.5t57 16.5q16 0 29.5 -5t26.5 -10.5l25 -10.5t25 -5q25 0 46 29l59 -51q-19 -29 -46 -45.5t-57 -16.5z
" />
    <glyph glyph-name="adieresis" unicode="&#xe4;" horiz-adv-x="414" 
d="M27 147q0 40 12.5 68t33.5 46t49.5 26t61.5 8h76v42q0 47 -14 63.5t-58 16.5q-29 0 -46 -8.5t-31 -35.5l-75 53q23 45 60.5 64t100.5 19q39 0 70.5 -8.5t53 -28.5t33 -53t11.5 -83v-336h-105v46q-14 -29 -35 -42t-56 -13q-62 0 -102 40.5t-40 115.5zM260 213h-65
q-63 0 -63 -66q0 -35 15 -50t42 -15q18 0 31.5 4.5t22 16.5t13 32.5t4.5 53.5v24zM55 690h109v-105h-109v105zM234 690h108v-105h-108v105z" />
    <glyph glyph-name="aring" unicode="&#xe5;" horiz-adv-x="414" 
d="M27 147q0 40 12.5 68t33.5 46t49.5 26t61.5 8h76v42q0 47 -14 63.5t-58 16.5q-29 0 -46 -8.5t-31 -35.5l-75 53q23 45 60.5 64t100.5 19q39 0 70.5 -8.5t53 -28.5t33 -53t11.5 -83v-336h-105v46q-14 -29 -35 -42t-56 -13q-62 0 -102 40.5t-40 115.5zM260 213h-65
q-63 0 -63 -66q0 -35 15 -50t42 -15q18 0 31.5 4.5t22 16.5t13 32.5t4.5 53.5v24zM91 646q0 23 8.5 43t24.5 35t37 23.5t47 8.5q25 0 46.5 -8.5t37.5 -23.5t24.5 -35t8.5 -43t-8.5 -43t-24.5 -34.5t-37.5 -23t-46.5 -8.5q-26 0 -47 8.5t-37 23t-24.5 34.5t-8.5 43zM162 646
q0 -22 13 -36t33 -14t33 14t13 36q0 23 -13 36t-33 13t-33 -13t-13 -36z" />
    <glyph glyph-name="ae" unicode="&#xe6;" horiz-adv-x="635" 
d="M27 147q0 40 12.5 68t33.5 46t49.5 26t61.5 8h76v42q0 47 -14 63.5t-58 16.5q-29 0 -46 -8.5t-31 -35.5l-75 53q23 45 60.5 64t100.5 19q37 0 67.5 -11.5t50.5 -40.5q33 52 113 52q87 0 128 -59t41 -171v-55h-230q0 -29 3 -55t11 -45t22 -30t37 -11q33 0 47.5 12.5
t25.5 34.5l78 -53q-23 -46 -58.5 -66t-91.5 -20q-47 0 -78.5 18.5t-51.5 53.5q-26 -43 -63 -57.5t-79 -14.5q-62 0 -102 40.5t-40 115.5zM260 213h-65q-63 0 -63 -66q0 -35 15 -50t42 -15q18 0 31.5 4.5t22 16.5t13 32.5t4.5 53.5v24zM429 416q-32 0 -46 -29.5t-16 -80.5
h124q-1 110 -62 110z" />
    <glyph glyph-name="ccedilla" unicode="&#xe7;" horiz-adv-x="371" 
d="M178 -6q-36 6 -63 24t-46 47t-28.5 67.5t-9.5 84.5v68q0 109 48 166.5t139 57.5q48 0 85.5 -21t58.5 -61l-80 -55q-11 20 -26 32t-40 12q-45 0 -61.5 -35.5t-16.5 -100.5v-58q0 -29 3 -54.5t11 -44.5t23.5 -29.5t40.5 -10.5q24 0 40 11t28 36l78 -53q-35 -74 -118 -84
l-3 -16q20 -8 34 -26t14 -47q0 -45 -30.5 -64t-72.5 -19q-28 0 -38 3l13 59q4 -1 15 -1q12 0 20 5t8 19t-10 18.5t-27 4.5z" />
    <glyph glyph-name="egrave" unicode="&#xe8;" horiz-adv-x="406" 
d="M361 77q-23 -46 -58.5 -66t-91.5 -20q-46 0 -80 16.5t-56.5 46.5t-33.5 71.5t-11 91.5v68q0 111 43.5 167.5t124.5 56.5q87 0 128 -59t41 -171v-55h-230q0 -29 3 -55t11 -45t22 -30t37 -11q33 0 47.5 12.5t25.5 34.5zM199 416q-32 0 -46 -29.5t-16 -80.5h124
q-1 110 -62 110zM263 567h-98l-75 158h116z" />
    <glyph glyph-name="eacute" unicode="&#xe9;" horiz-adv-x="406" 
d="M361 77q-23 -46 -58.5 -66t-91.5 -20q-46 0 -80 16.5t-56.5 46.5t-33.5 71.5t-11 91.5v68q0 111 43.5 167.5t124.5 56.5q87 0 128 -59t41 -171v-55h-230q0 -29 3 -55t11 -45t22 -30t37 -11q33 0 47.5 12.5t25.5 34.5zM199 416q-32 0 -46 -29.5t-16 -80.5h124
q-1 110 -62 110zM203 725h115l-74 -158h-98z" />
    <glyph glyph-name="ecircumflex" unicode="&#xea;" horiz-adv-x="406" 
d="M361 77q-23 -46 -58.5 -66t-91.5 -20q-46 0 -80 16.5t-56.5 46.5t-33.5 71.5t-11 91.5v68q0 111 43.5 167.5t124.5 56.5q87 0 128 -59t41 -171v-55h-230q0 -29 3 -55t11 -45t22 -30t37 -11q33 0 47.5 12.5t25.5 34.5zM199 416q-32 0 -46 -29.5t-16 -80.5h124
q-1 110 -62 110zM246 700l97 -142h-96l-45 81l-45 -81h-96l97 142h88z" />
    <glyph glyph-name="edieresis" unicode="&#xeb;" horiz-adv-x="406" 
d="M361 77q-23 -46 -58.5 -66t-91.5 -20q-46 0 -80 16.5t-56.5 46.5t-33.5 71.5t-11 91.5v68q0 111 43.5 167.5t124.5 56.5q87 0 128 -59t41 -171v-55h-230q0 -29 3 -55t11 -45t22 -30t37 -11q33 0 47.5 12.5t25.5 34.5zM199 416q-32 0 -46 -29.5t-16 -80.5h124
q-1 110 -62 110zM56 690h109v-105h-109v105zM235 690h108v-105h-108v105z" />
    <glyph glyph-name="igrave" unicode="&#xec;" horiz-adv-x="231" 
d="M62 500h107v-500h-107v500zM164 567h-98l-75 158h116z" />
    <glyph glyph-name="iacute" unicode="&#xed;" horiz-adv-x="231" 
d="M62 500h107v-500h-107v500zM122 725h115l-74 -158h-98z" />
    <glyph glyph-name="icircumflex" unicode="&#xee;" horiz-adv-x="231" 
d="M62 500h107v-500h-107v500zM159 700l97 -142h-96l-45 81l-45 -81h-96l97 142h88z" />
    <glyph glyph-name="idieresis" unicode="&#xef;" horiz-adv-x="231" 
d="M62 500h107v-500h-107v500zM-27 690h109v-105h-109v105zM152 690h108v-105h-108v105z" />
    <glyph glyph-name="eth" unicode="&#xf0;" horiz-adv-x="417" 
d="M155 607l-25.5 10.5t-20.5 9.5l39 81q11 -6 22 -11l22 -10l21 45l64 -30l-22 -47q29 -17 53 -38t40.5 -52t25.5 -74.5t9 -105.5v-167q0 -111 -45.5 -169t-130.5 -58t-130.5 58t-45.5 169v64q0 111 44 169t116 58q28 0 49.5 -9t38.5 -24q0 31 -18.5 55t-44.5 42l-22 -48
l-63 30zM276 280q0 65 -15 100.5t-54 35.5t-54 -35.5t-15 -100.5v-60q0 -65 15 -100.5t54 -35.5t54 35.5t15 100.5v60z" />
    <glyph glyph-name="ntilde" unicode="&#xf1;" horiz-adv-x="443" 
d="M49 500h105v-40q13 20 35.5 34.5t59.5 14.5q29 0 55.5 -10.5t46.5 -33.5t31.5 -60.5t11.5 -91.5v-313h-107v301q0 63 -15 88t-47 25q-38 0 -53.5 -30.5t-15.5 -81.5v-302h-107v500zM273 572q-17 0 -31 5t-27 10.5l-24.5 10.5t-23.5 5q-27 0 -47 -29l-60 51q20 29 48 45.5
t57 16.5q16 0 29.5 -5t26.5 -10.5l25 -10.5t25 -5q25 0 46 29l59 -51q-19 -29 -46 -45.5t-57 -16.5z" />
    <glyph glyph-name="ograve" unicode="&#xf2;" horiz-adv-x="414" 
d="M31 282q0 111 45.5 169t130.5 58t130.5 -58t45.5 -169v-64q0 -111 -45.5 -169t-130.5 -58t-130.5 58t-45.5 169v64zM276 280q0 65 -15 100.5t-54 35.5t-54 -35.5t-15 -100.5v-60q0 -65 15 -100.5t54 -35.5t54 35.5t15 100.5v60zM270 567h-98l-75 158h116z" />
    <glyph glyph-name="oacute" unicode="&#xf3;" horiz-adv-x="414" 
d="M31 282q0 111 45.5 169t130.5 58t130.5 -58t45.5 -169v-64q0 -111 -45.5 -169t-130.5 -58t-130.5 58t-45.5 169v64zM276 280q0 65 -15 100.5t-54 35.5t-54 -35.5t-15 -100.5v-60q0 -65 15 -100.5t54 -35.5t54 35.5t15 100.5v60zM214 725h115l-74 -158h-98z" />
    <glyph glyph-name="ocircumflex" unicode="&#xf4;" horiz-adv-x="414" 
d="M31 282q0 111 45.5 169t130.5 58t130.5 -58t45.5 -169v-64q0 -111 -45.5 -169t-130.5 -58t-130.5 58t-45.5 169v64zM276 280q0 65 -15 100.5t-54 35.5t-54 -35.5t-15 -100.5v-60q0 -65 15 -100.5t54 -35.5t54 35.5t15 100.5v60zM251 700l97 -142h-96l-45 81l-45 -81h-96
l97 142h88z" />
    <glyph glyph-name="otilde" unicode="&#xf5;" horiz-adv-x="414" 
d="M31 282q0 111 45.5 169t130.5 58t130.5 -58t45.5 -169v-64q0 -111 -45.5 -169t-130.5 -58t-130.5 58t-45.5 169v64zM276 280q0 65 -15 100.5t-54 35.5t-54 -35.5t-15 -100.5v-60q0 -65 15 -100.5t54 -35.5t54 35.5t15 100.5v60zM262 572q-17 0 -31 5t-27 10.5l-24.5 10.5
t-23.5 5q-27 0 -47 -29l-60 51q20 29 48 45.5t57 16.5q16 0 29.5 -5t26.5 -10.5l25 -10.5t25 -5q25 0 46 29l59 -51q-19 -29 -46 -45.5t-57 -16.5z" />
    <glyph glyph-name="odieresis" unicode="&#xf6;" horiz-adv-x="414" 
d="M31 282q0 111 45.5 169t130.5 58t130.5 -58t45.5 -169v-64q0 -111 -45.5 -169t-130.5 -58t-130.5 58t-45.5 169v64zM276 280q0 65 -15 100.5t-54 35.5t-54 -35.5t-15 -100.5v-60q0 -65 15 -100.5t54 -35.5t54 35.5t15 100.5v60zM64 690h109v-105h-109v105zM243 690h108
v-105h-108v105z" />
    <glyph glyph-name="divide" unicode="&#xf7;" 
d="M66 401h323v-94h-323v94zM173 571h107v-107h-107v107zM173 244h107v-106h-107v106z" />
    <glyph glyph-name="oslash" unicode="&#xf8;" horiz-adv-x="414" 
d="M373 582l-44 -122q54 -59 54 -178v-64q0 -111 -45.5 -169t-130.5 -58q-23 0 -46 5l-27 -75h-93l43 119q-53 59 -53 178v64q0 111 45.5 169t130.5 58q22 0 45 -5l29 78h92zM276 280v15.5t-1 15.5l-82 -226q4 -1 14 -1q39 0 54 35.5t15 100.5v60zM138 190l82 224
q-8 2 -13 2q-39 0 -54 -35.5t-15 -100.5v-60v-30z" />
    <glyph glyph-name="ugrave" unicode="&#xf9;" horiz-adv-x="443" 
d="M394 0h-105v39q-11 -22 -31.5 -35t-58.5 -13q-31 0 -58.5 10.5t-47.5 34t-32 61t-12 91.5v312h107v-301q0 -33 4 -55t11.5 -35t19.5 -18.5t28 -5.5q37 0 52.5 28t15.5 85v302h107v-500zM290 567h-98l-75 158h116z" />
    <glyph glyph-name="uacute" unicode="&#xfa;" horiz-adv-x="443" 
d="M394 0h-105v39q-11 -22 -31.5 -35t-58.5 -13q-31 0 -58.5 10.5t-47.5 34t-32 61t-12 91.5v312h107v-301q0 -33 4 -55t11.5 -35t19.5 -18.5t28 -5.5q37 0 52.5 28t15.5 85v302h107v-500zM232 725h115l-74 -158h-98z" />
    <glyph glyph-name="ucircumflex" unicode="&#xfb;" horiz-adv-x="443" 
d="M394 0h-105v39q-11 -22 -31.5 -35t-58.5 -13q-31 0 -58.5 10.5t-47.5 34t-32 61t-12 91.5v312h107v-301q0 -33 4 -55t11.5 -35t19.5 -18.5t28 -5.5q37 0 52.5 28t15.5 85v302h107v-500zM265 700l97 -142h-96l-45 81l-45 -81h-96l97 142h88z" />
    <glyph glyph-name="udieresis" unicode="&#xfc;" horiz-adv-x="443" 
d="M394 0h-105v39q-11 -22 -31.5 -35t-58.5 -13q-31 0 -58.5 10.5t-47.5 34t-32 61t-12 91.5v312h107v-301q0 -33 4 -55t11.5 -35t19.5 -18.5t28 -5.5q37 0 52.5 28t15.5 85v302h107v-500zM78 690h109v-105h-109v105zM257 690h108v-105h-108v105z" />
    <glyph glyph-name="yacute" unicode="&#xfd;" horiz-adv-x="400" 
d="M117 500l88 -348l81 348h110l-144 -520q-14 -48 -29 -80.5t-36.5 -52.5t-51.5 -28.5t-73 -8.5v98q42 0 64 22t23 59l-145 511h113zM210 725h115l-74 -158h-98z" />
    <glyph glyph-name="thorn" unicode="&#xfe;" horiz-adv-x="436" 
d="M156 -190h-107v880h107v-223q14 20 35 31t55 11q38 0 67.5 -17t49.5 -47t30.5 -72t10.5 -92v-63q0 -111 -44 -169t-114 -58q-29 0 -51.5 12t-38.5 34v-227zM227 416q-21 0 -34.5 -10.5t-22 -29t-11.5 -44t-3 -54.5v-66q0 -62 16.5 -95t54.5 -33q39 0 54.5 35t15.5 101v58
q0 29 -3 54.5t-10.5 44t-21 29t-35.5 10.5z" />
    <glyph glyph-name="ydieresis" unicode="&#xff;" horiz-adv-x="400" 
d="M117 500l88 -348l81 348h110l-144 -520q-14 -48 -29 -80.5t-36.5 -52.5t-51.5 -28.5t-73 -8.5v98q42 0 64 22t23 59l-145 511h113zM63 690h109v-105h-109v105zM242 690h108v-105h-108v105z" />
    <glyph glyph-name="Amacron" unicode="&#x100;" horiz-adv-x="504" 
d="M1 0l193 690h114l194 -690h-123l-36 143h-185l-35 -143h-122zM184 243h134l-66 272zM120 849h264v-94h-264v94z" />
    <glyph glyph-name="amacron" unicode="&#x101;" horiz-adv-x="414" 
d="M27 147q0 40 12.5 68t33.5 46t49.5 26t61.5 8h76v42q0 47 -14 63.5t-58 16.5q-29 0 -46 -8.5t-31 -35.5l-75 53q23 45 60.5 64t100.5 19q39 0 70.5 -8.5t53 -28.5t33 -53t11.5 -83v-336h-105v46q-14 -29 -35 -42t-56 -13q-62 0 -102 40.5t-40 115.5zM260 213h-65
q-63 0 -63 -66q0 -35 15 -50t42 -15q18 0 31.5 4.5t22 16.5t13 32.5t4.5 53.5v24zM94 679h231v-94h-231v94z" />
    <glyph glyph-name="Abreve" unicode="&#x102;" horiz-adv-x="504" 
d="M1 0l193 690h114l194 -690h-123l-36 143h-185l-35 -143h-122zM184 243h134l-66 272zM252 727q-34 0 -63.5 9.5t-51 29t-34 47.5t-12.5 66h97q4 -27 18 -45t46 -18t46 18t18 45h97q0 -38 -12.5 -66t-34.5 -47.5t-51 -29t-63 -9.5z" />
    <glyph glyph-name="abreve" unicode="&#x103;" horiz-adv-x="414" 
d="M27 147q0 40 12.5 68t33.5 46t49.5 26t61.5 8h76v42q0 47 -14 63.5t-58 16.5q-29 0 -46 -8.5t-31 -35.5l-75 53q23 45 60.5 64t100.5 19q39 0 70.5 -8.5t53 -28.5t33 -53t11.5 -83v-336h-105v46q-14 -29 -35 -42t-56 -13q-62 0 -102 40.5t-40 115.5zM260 213h-65
q-63 0 -63 -66q0 -35 15 -50t42 -15q18 0 31.5 4.5t22 16.5t13 32.5t4.5 53.5v24zM207 634q24 0 35.5 15t13.5 41h84q-1 -31 -11.5 -54.5t-28.5 -39.5t-41.5 -24t-51.5 -8t-51.5 8t-41.5 24t-28.5 39.5t-11.5 54.5h84q2 -26 13.5 -41t35.5 -15z" />
    <glyph glyph-name="Aogonek" unicode="&#x104;" horiz-adv-x="504" 
d="M502 0q-17 -19 -27 -33t-10 -31q0 -15 6 -20t17 -5q7 0 15 2l12 -59q-5 -2 -15 -3t-24 -1q-15 0 -31 4t-29 13t-21.5 23.5t-8.5 35.5q0 42 29 74h-36l-36 143h-185l-35 -143h-122l193 690h114zM184 243h134l-66 272z" />
    <glyph glyph-name="aogonek" unicode="&#x105;" horiz-adv-x="414" 
d="M27 147q0 40 12.5 68t33.5 46t49.5 26t61.5 8h76v42q0 47 -14 63.5t-58 16.5q-29 0 -46 -8.5t-31 -35.5l-75 53q23 45 60.5 64t100.5 19q39 0 70.5 -8.5t53 -28.5t33 -53t11.5 -83v-336q-17 -19 -26.5 -33.5t-9.5 -30.5q0 -14 5.5 -19.5t16.5 -5.5q7 0 15 2l12 -58
q-10 -5 -43 -5q-15 0 -31 4t-29 13t-21.5 23.5t-8.5 35.5t8.5 39t23.5 35h-17v46q-14 -29 -35 -42t-56 -13q-62 0 -102 40.5t-40 115.5zM260 213h-65q-63 0 -63 -66q0 -35 15 -50t42 -15q18 0 31.5 4.5t22 16.5t13 32.5t4.5 53.5v24z" />
    <glyph glyph-name="Cacute" unicode="&#x106;" horiz-adv-x="489" 
d="M354 476q-8 63 -31 92.5t-65 29.5q-51 0 -76 -48.5t-25 -160.5v-88q0 -111 25 -160t76 -49q43 0 65 29.5t31 92.5h110q-15 -117 -67 -170t-139 -53q-48 0 -88 18t-68.5 55.5t-44.5 96.5t-16 140v88q0 81 16 140t44.5 96.5t68.5 55.5t88 18q84 0 138 -55t68 -168h-110z
M265 873h119l-84 -129h-100z" />
    <glyph glyph-name="cacute" unicode="&#x107;" horiz-adv-x="371" 
d="M362 77q-41 -86 -149 -86q-44 0 -78 16t-57 46t-35 71.5t-12 92.5v68q0 109 48 166.5t139 57.5q48 0 85.5 -21t58.5 -61l-80 -55q-11 20 -26 32t-40 12q-45 0 -61.5 -35.5t-16.5 -100.5v-58q0 -29 3 -54.5t11 -44.5t23.5 -29.5t40.5 -10.5q24 0 40 11t28 36zM210 725h115
l-74 -158h-98z" />
    <glyph glyph-name="Ccircumflex" unicode="&#x108;" horiz-adv-x="489" 
d="M354 476q-8 63 -31 92.5t-65 29.5q-51 0 -76 -48.5t-25 -160.5v-88q0 -111 25 -160t76 -49q43 0 65 29.5t31 92.5h110q-15 -117 -67 -170t-139 -53q-48 0 -88 18t-68.5 55.5t-44.5 96.5t-16 140v88q0 81 16 140t44.5 96.5t68.5 55.5t88 18q84 0 138 -55t68 -168h-110z
M307 880l118 -142h-107l-61 80l-61 -80h-107l118 142h100z" />
    <glyph glyph-name="ccircumflex" unicode="&#x109;" horiz-adv-x="371" 
d="M362 77q-41 -86 -149 -86q-44 0 -78 16t-57 46t-35 71.5t-12 92.5v68q0 109 48 166.5t139 57.5q48 0 85.5 -21t58.5 -61l-80 -55q-11 20 -26 32t-40 12q-45 0 -61.5 -35.5t-16.5 -100.5v-58q0 -29 3 -54.5t11 -44.5t23.5 -29.5t40.5 -10.5q24 0 40 11t28 36zM253 700
l97 -142h-96l-45 81l-45 -81h-96l97 142h88z" />
    <glyph glyph-name="Cdot" unicode="&#x10a;" horiz-adv-x="489" 
d="M354 476q-8 63 -31 92.5t-65 29.5q-51 0 -76 -48.5t-25 -160.5v-88q0 -111 25 -160t76 -49q43 0 65 29.5t31 92.5h110q-15 -117 -67 -170t-139 -53q-48 0 -88 18t-68.5 55.5t-44.5 96.5t-16 140v88q0 81 16 140t44.5 96.5t68.5 55.5t88 18q84 0 138 -55t68 -168h-110z
M198 869h118v-101h-118v101z" />
    <glyph glyph-name="cdot" unicode="&#x10b;" horiz-adv-x="371" 
d="M362 77q-41 -86 -149 -86q-44 0 -78 16t-57 46t-35 71.5t-12 92.5v68q0 109 48 166.5t139 57.5q48 0 85.5 -21t58.5 -61l-80 -55q-11 20 -26 32t-40 12q-45 0 -61.5 -35.5t-16.5 -100.5v-58q0 -29 3 -54.5t11 -44.5t23.5 -29.5t40.5 -10.5q24 0 40 11t28 36zM161 690h107
v-109h-107v109z" />
    <glyph glyph-name="Ccaron" unicode="&#x10c;" horiz-adv-x="489" 
d="M354 476q-8 63 -31 92.5t-65 29.5q-51 0 -76 -48.5t-25 -160.5v-88q0 -111 25 -160t76 -49q43 0 65 29.5t31 92.5h110q-15 -117 -67 -170t-139 -53q-48 0 -88 18t-68.5 55.5t-44.5 96.5t-16 140v88q0 81 16 140t44.5 96.5t68.5 55.5t88 18q84 0 138 -55t68 -168h-110z
M212 738l-118 142h107l61 -80l61 80h107l-118 -142h-100z" />
    <glyph glyph-name="ccaron" unicode="&#x10d;" horiz-adv-x="371" 
d="M362 77q-41 -86 -149 -86q-44 0 -78 16t-57 46t-35 71.5t-12 92.5v68q0 109 48 166.5t139 57.5q48 0 85.5 -21t58.5 -61l-80 -55q-11 20 -26 32t-40 12q-45 0 -61.5 -35.5t-16.5 -100.5v-58q0 -29 3 -54.5t11 -44.5t23.5 -29.5t40.5 -10.5q24 0 40 11t28 36zM164 558
l-97 142h96l45 -81l45 81h96l-97 -142h-88z" />
    <glyph glyph-name="Dcaron" unicode="&#x10e;" horiz-adv-x="522" 
d="M65 0v690h199q48 0 87.5 -16.5t68.5 -52.5t45 -94t16 -141v-82q0 -83 -16 -141t-45 -94t-68.5 -52.5t-87.5 -16.5h-199zM264 100q57 0 79 48.5t22 155.5v82q0 107 -22 155.5t-79 48.5h-83v-490h83zM185 738l-118 142h107l61 -80l61 80h107l-118 -142h-100z" />
    <glyph glyph-name="dcaron" unicode="&#x10f;" horiz-adv-x="488" 
d="M279 690h107v-690h-107v33q-14 -20 -35 -31t-55 -11q-38 0 -67.5 17t-49.5 47t-30.5 72t-10.5 92v63q0 111 44 169t114 58q29 0 51.5 -12t38.5 -34v227zM208 84q21 0 34.5 10.5t22 29t11.5 44t3 54.5v66q0 62 -16.5 95t-54.5 33q-39 0 -54.5 -35t-15.5 -101v-58
q0 -29 3 -54.5t10.5 -44t21 -29t35.5 -10.5zM564 575l-119 -102v216h119v-114z" />
    <glyph glyph-name="Dcroat" unicode="&#x110;" horiz-adv-x="526" 
d="M-8 407h77v283h199q48 0 87.5 -16.5t68.5 -52.5t45 -94t16 -141v-82q0 -83 -16 -141t-45 -94t-68.5 -52.5t-87.5 -16.5h-199v307h-77v100zM268 100q57 0 79 48.5t22 155.5v82q0 107 -22 155.5t-79 48.5h-83v-183h110v-100h-110v-207h83z" />
    <glyph glyph-name="dcroat" unicode="&#x111;" horiz-adv-x="457" 
d="M188 509q29 0 51.5 -12t38.5 -34v82h-114v92h114v53h107v-53h76v-92h-76v-545h-107v33q-14 -20 -35 -31t-55 -11q-38 0 -67.5 17t-49.5 47t-30.5 72t-10.5 92v63q0 111 44 169t114 58zM207 84q21 0 34.5 10.5t22 29t11.5 44t3 54.5v66q0 62 -16.5 95t-54.5 33
q-39 0 -54.5 -35t-15.5 -101v-58q0 -29 3 -54.5t10.5 -44t21 -29t35.5 -10.5z" />
    <glyph glyph-name="Emacron" unicode="&#x112;" horiz-adv-x="445" 
d="M416 690v-101h-235v-182h210v-100h-210v-207h235v-100h-351v690h351zM108 849h264v-94h-264v94z" />
    <glyph glyph-name="emacron" unicode="&#x113;" horiz-adv-x="406" 
d="M361 77q-23 -46 -58.5 -66t-91.5 -20q-46 0 -80 16.5t-56.5 46.5t-33.5 71.5t-11 91.5v68q0 111 43.5 167.5t124.5 56.5q87 0 128 -59t41 -171v-55h-230q0 -29 3 -55t11 -45t22 -30t37 -11q33 0 47.5 12.5t25.5 34.5zM199 416q-32 0 -46 -29.5t-16 -80.5h124
q-1 110 -62 110zM86 679h231v-94h-231v94z" />
    <glyph glyph-name="Edot" unicode="&#x116;" horiz-adv-x="445" 
d="M416 690v-101h-235v-182h210v-100h-210v-207h235v-100h-351v690h351zM182 869h118v-101h-118v101z" />
    <glyph glyph-name="edot" unicode="&#x117;" horiz-adv-x="406" 
d="M361 77q-23 -46 -58.5 -66t-91.5 -20q-46 0 -80 16.5t-56.5 46.5t-33.5 71.5t-11 91.5v68q0 111 43.5 167.5t124.5 56.5q87 0 128 -59t41 -171v-55h-230q0 -29 3 -55t11 -45t22 -30t37 -11q33 0 47.5 12.5t25.5 34.5zM199 416q-32 0 -46 -29.5t-16 -80.5h124
q-1 110 -62 110zM150 690h107v-109h-107v109z" />
    <glyph glyph-name="Eogonek" unicode="&#x118;" horiz-adv-x="445" 
d="M416 690v-101h-235v-182h210v-100h-210v-207h235v-100h-89q-17 -19 -27 -33t-10 -31q0 -15 6.5 -20t16.5 -5q8 0 16 2l12 -58q-12 -5 -39 -5q-18 0 -35.5 4t-31 13t-21.5 23.5t-8 35.5q0 41 33 74h-174v690h351z" />
    <glyph glyph-name="eogonek" unicode="&#x119;" horiz-adv-x="406" 
d="M361 77q-33 -66 -95 -80q-16 -17 -24.5 -31.5t-8.5 -29.5q0 -14 5.5 -19.5t16.5 -5.5q7 0 15 2l12 -58q-10 -5 -43 -5q-15 0 -31 4t-29 13t-21.5 23.5t-8.5 35.5q0 20 7 36.5t20 31.5q-74 12 -110 72.5t-36 150.5v68q0 111 43.5 167.5t124.5 56.5q87 0 128 -59t41 -171
v-55h-230q0 -29 3 -55t11 -45t22 -30t37 -11q33 0 47.5 12.5t25.5 34.5zM199 416q-32 0 -46 -29.5t-16 -80.5h124q-1 110 -62 110z" />
    <glyph glyph-name="Ecaron" unicode="&#x11a;" horiz-adv-x="445" 
d="M416 690v-101h-235v-182h210v-100h-210v-207h235v-100h-351v690h351zM191 738l-118 142h107l61 -80l61 80h107l-118 -142h-100z" />
    <glyph glyph-name="ecaron" unicode="&#x11b;" horiz-adv-x="406" 
d="M361 77q-23 -46 -58.5 -66t-91.5 -20q-46 0 -80 16.5t-56.5 46.5t-33.5 71.5t-11 91.5v68q0 111 43.5 167.5t124.5 56.5q87 0 128 -59t41 -171v-55h-230q0 -29 3 -55t11 -45t22 -30t37 -11q33 0 47.5 12.5t25.5 34.5zM199 416q-32 0 -46 -29.5t-16 -80.5h124
q-1 110 -62 110zM155 558l-97 142h96l45 -81l45 81h96l-97 -142h-88z" />
    <glyph glyph-name="Gcircumflex" unicode="&#x11c;" horiz-adv-x="504" 
d="M464 354v-53q0 -84 -14.5 -142.5t-41.5 -96t-65 -54.5t-86 -17t-88 18t-68.5 55.5t-44.5 96.5t-16 140v83q0 83 16 142.5t44.5 98t68.5 56.5t88 18q88 0 140.5 -57t65.5 -166h-110q-8 60 -30.5 91t-65.5 31q-51 0 -76 -48.5t-25 -160.5v-88q0 -112 25 -160.5t76 -48.5
q48 0 70.5 38.5t25.5 122.5h-94v101h205zM307 880l118 -142h-107l-61 80l-61 -80h-107l118 142h100z" />
    <glyph glyph-name="gcircumflex" unicode="&#x11d;" horiz-adv-x="435" 
d="M279 37q-16 -22 -38.5 -34t-51.5 -12q-70 0 -114 58t-44 169v63q0 50 10.5 92t30.5 72t49.5 47t67.5 17q34 0 55 -11t35 -31v33h107v-490q0 -58 -14 -97.5t-38.5 -63.5t-57.5 -34.5t-72 -10.5q-58 0 -95 19.5t-66 67.5l73 53q12 -21 29.5 -35t49.5 -14q47 0 65.5 27
t18.5 88v27zM208 416q-22 0 -35.5 -10.5t-21 -29t-10.5 -44t-3 -54.5v-58q0 -66 15.5 -101t54.5 -35q38 0 54.5 33t16.5 95v66q0 29 -3 54.5t-11.5 44t-22 29t-34.5 10.5zM275 700l97 -142h-96l-45 81l-45 -81h-96l97 142h88z" />
    <glyph glyph-name="Gbreve" unicode="&#x11e;" horiz-adv-x="504" 
d="M464 354v-53q0 -84 -14.5 -142.5t-41.5 -96t-65 -54.5t-86 -17t-88 18t-68.5 55.5t-44.5 96.5t-16 140v83q0 83 16 142.5t44.5 98t68.5 56.5t88 18q88 0 140.5 -57t65.5 -166h-110q-8 60 -30.5 91t-65.5 31q-51 0 -76 -48.5t-25 -160.5v-88q0 -112 25 -160.5t76 -48.5
q48 0 70.5 38.5t25.5 122.5h-94v101h205zM262 727q-34 0 -63.5 9.5t-51 29t-34 47.5t-12.5 66h97q4 -27 18 -45t46 -18t46 18t18 45h97q0 -38 -12.5 -66t-34.5 -47.5t-51 -29t-63 -9.5z" />
    <glyph glyph-name="gbreve" unicode="&#x11f;" horiz-adv-x="435" 
d="M279 37q-16 -22 -38.5 -34t-51.5 -12q-70 0 -114 58t-44 169v63q0 50 10.5 92t30.5 72t49.5 47t67.5 17q34 0 55 -11t35 -31v33h107v-490q0 -58 -14 -97.5t-38.5 -63.5t-57.5 -34.5t-72 -10.5q-58 0 -95 19.5t-66 67.5l73 53q12 -21 29.5 -35t49.5 -14q47 0 65.5 27
t18.5 88v27zM208 416q-22 0 -35.5 -10.5t-21 -29t-10.5 -44t-3 -54.5v-58q0 -66 15.5 -101t54.5 -35q38 0 54.5 33t16.5 95v66q0 29 -3 54.5t-11.5 44t-22 29t-34.5 10.5zM222 634q24 0 35.5 15t13.5 41h84q-1 -31 -11.5 -54.5t-28.5 -39.5t-41.5 -24t-51.5 -8t-51.5 8
t-41.5 24t-28.5 39.5t-11.5 54.5h84q2 -26 13.5 -41t35.5 -15z" />
    <glyph glyph-name="Gdot" unicode="&#x120;" horiz-adv-x="504" 
d="M464 354v-53q0 -84 -14.5 -142.5t-41.5 -96t-65 -54.5t-86 -17t-88 18t-68.5 55.5t-44.5 96.5t-16 140v83q0 83 16 142.5t44.5 98t68.5 56.5t88 18q88 0 140.5 -57t65.5 -166h-110q-8 60 -30.5 91t-65.5 31q-51 0 -76 -48.5t-25 -160.5v-88q0 -112 25 -160.5t76 -48.5
q48 0 70.5 38.5t25.5 122.5h-94v101h205zM197 869h118v-101h-118v101z" />
    <glyph glyph-name="gdot" unicode="&#x121;" horiz-adv-x="435" 
d="M279 37q-16 -22 -38.5 -34t-51.5 -12q-70 0 -114 58t-44 169v63q0 50 10.5 92t30.5 72t49.5 47t67.5 17q34 0 55 -11t35 -31v33h107v-490q0 -58 -14 -97.5t-38.5 -63.5t-57.5 -34.5t-72 -10.5q-58 0 -95 19.5t-66 67.5l73 53q12 -21 29.5 -35t49.5 -14q47 0 65.5 27
t18.5 88v27zM208 416q-22 0 -35.5 -10.5t-21 -29t-10.5 -44t-3 -54.5v-58q0 -66 15.5 -101t54.5 -35q38 0 54.5 33t16.5 95v66q0 29 -3 54.5t-11.5 44t-22 29t-34.5 10.5zM175 690h107v-109h-107v109z" />
    <glyph glyph-name="Gcedilla" unicode="&#x122;" horiz-adv-x="504" 
d="M464 354v-53q0 -84 -14.5 -142.5t-41.5 -96t-65 -54.5t-86 -17t-88 18t-68.5 55.5t-44.5 96.5t-16 140v83q0 83 16 142.5t44.5 98t68.5 56.5t88 18q88 0 140.5 -57t65.5 -166h-110q-8 60 -30.5 91t-65.5 31q-51 0 -76 -48.5t-25 -160.5v-88q0 -112 25 -160.5t76 -48.5
q48 0 70.5 38.5t25.5 122.5h-94v101h205zM323 -171l-119 -102v216h119v-114z" />
    <glyph glyph-name="gcedilla" unicode="&#x123;" horiz-adv-x="435" 
d="M279 37q-16 -22 -38.5 -34t-51.5 -12q-70 0 -114 58t-44 169v63q0 50 10.5 92t30.5 72t49.5 47t67.5 17q34 0 55 -11t35 -31v33h107v-490q0 -58 -14 -97.5t-38.5 -63.5t-57.5 -34.5t-72 -10.5q-58 0 -95 19.5t-66 67.5l73 53q12 -21 29.5 -35t49.5 -14q47 0 65.5 27
t18.5 88v27zM208 416q-22 0 -35.5 -10.5t-21 -29t-10.5 -44t-3 -54.5v-58q0 -66 15.5 -101t54.5 -35q38 0 54.5 33t16.5 95v66q0 29 -3 54.5t-11.5 44t-22 29t-34.5 10.5zM160.036 678.969l118.978 101.981v-215.961h-118.978v113.979z" />
    <glyph glyph-name="Hcircumflex" unicode="&#x124;" horiz-adv-x="551" 
d="M180 407h191v283h116v-690h-116v307h-191v-307h-116v690h116v-283zM325 880l118 -142h-107l-61 80l-61 -80h-107l118 142h100z" />
    <glyph glyph-name="hcircumflex" unicode="&#x125;" horiz-adv-x="443" 
d="M49 690h107v-228q11 17 33.5 32t59.5 15q29 0 55.5 -10.5t46.5 -33.5t31.5 -60.5t11.5 -91.5v-313h-107v301q0 63 -15 88t-47 25q-38 0 -53.5 -30.5t-15.5 -81.5v-302h-107v690zM149 866l97 -142h-96l-45 81l-45 -81h-96l97 142h88z" />
    <glyph glyph-name="Hbar" unicode="&#x126;" horiz-adv-x="575" 
d="M-9 572h85v118h116v-118h191v118h116v-118h85v-104h-85v-468h-116v307h-191v-307h-116v468h-85v104zM383 407v61h-191v-61h191z" />
    <glyph glyph-name="hbar" unicode="&#x127;" horiz-adv-x="450" 
d="M-20 637h76v53h107v-53h114v-92h-114v-83q11 17 33.5 32t59.5 15q29 0 55.5 -10.5t46.5 -33.5t31.5 -60.5t11.5 -91.5v-313h-107v301q0 63 -15 88t-47 25q-38 0 -53.5 -30.5t-15.5 -81.5v-302h-107v545h-76v92z" />
    <glyph glyph-name="Imacron" unicode="&#x12a;" horiz-adv-x="262" 
d="M189 0h-116v690h116v-690zM0 849h264v-94h-264v94z" />
    <glyph glyph-name="imacron" unicode="&#x12b;" horiz-adv-x="231" 
d="M62 500h107v-500h-107v500zM1 679h231v-94h-231v94z" />
    <glyph glyph-name="Iogonek" unicode="&#x12e;" horiz-adv-x="262" 
d="M189 0q-17 -19 -27 -33t-10 -31q0 -15 6.5 -20t16.5 -5q8 0 16 2l12 -58q-12 -5 -39 -5q-18 0 -35.5 4t-31 13t-21.5 23.5t-8 35.5q0 41 33 74h-28v690h116v-690z" />
    <glyph glyph-name="iogonek" unicode="&#x12f;" horiz-adv-x="231" 
d="M62 500h107v-500q-17 -19 -26.5 -33.5t-9.5 -30.5q0 -14 5.5 -19.5t16.5 -5.5q7 0 15 2l12 -58q-10 -5 -43 -5q-15 0 -31 4t-29 13t-21.5 23.5t-8.5 35.5t8.5 39t23.5 35h-19v500zM57 690h117v-109h-117v109z" />
    <glyph glyph-name="Idot" unicode="&#x130;" horiz-adv-x="262" 
d="M189 0h-116v690h116v-690zM73 869h118v-101h-118v101z" />
    <glyph glyph-name="dotlessi" unicode="&#x131;" horiz-adv-x="231" 
d="M62 500h107v-500h-107v500z" />
    <glyph glyph-name="Jcircumflex" unicode="&#x134;" horiz-adv-x="432" 
d="M92 141q14 -23 33 -36t43 -13q21 0 36.5 9t26 30t15.5 56t5 86v417h116v-417q0 -77 -13.5 -130.5t-38 -87t-60 -49t-80.5 -15.5q-122 0 -177 96zM359 880l118 -142h-107l-61 80l-61 -80h-107l118 142h100z" />
    <glyph glyph-name="jcircumflex" unicode="&#x135;" horiz-adv-x="216" 
d="M162 -31q0 -88 -40 -123.5t-122 -35.5v94q33 0 44 23t11 61v512h107v-531zM154 700l97 -142h-96l-45 81l-45 -81h-96l97 142h88z" />
    <glyph glyph-name="Kcedilla" unicode="&#x136;" horiz-adv-x="535" 
d="M398 0l-143 307l-74 -130v-177h-116v690h116v-325l181 325h130l-159 -276l194 -414h-129zM334 -171l-119 -102v216h119v-114z" />
    <glyph glyph-name="kcedilla" unicode="&#x137;" horiz-adv-x="418" 
d="M391 500l-131 -201l155 -299h-118l-102 200l-39 -58v-142h-107v690h107v-374l120 184h115zM278 -171l-119 -102v216h119v-114z" />
    <glyph glyph-name="Lacute" unicode="&#x139;" horiz-adv-x="420" 
d="M181 100h235v-100h-351v690h116v-590zM134 873h119l-84 -129h-100z" />
    <glyph glyph-name="lacute" unicode="&#x13a;" horiz-adv-x="246" 
d="M49 690h107v-508q0 -41 12 -64.5t46 -23.5v-94q-83 0 -124 35.5t-41 121.5v533zM107 879h115l-74 -158h-98z" />
    <glyph glyph-name="Lcedilla" unicode="&#x13b;" horiz-adv-x="420" 
d="M181 100h235v-100h-351v690h116v-590zM299 -171l-119 -102v216h119v-114z" />
    <glyph glyph-name="lcedilla" unicode="&#x13c;" horiz-adv-x="246" 
d="M49 690h107v-508q0 -41 12 -64.5t46 -23.5v-94q-83 0 -124 35.5t-41 121.5v533zM186 -171l-119 -102v216h119v-114z" />
    <glyph glyph-name="Lcaron" unicode="&#x13d;" horiz-adv-x="420" 
d="M181 100h235v-100h-351v690h116v-590zM370 547l-113 -96v270h113v-174z" />
    <glyph glyph-name="lcaron" unicode="&#x13e;" horiz-adv-x="249" 
d="M49 690h107v-508q0 -41 12 -64.5t46 -23.5v-94q-83 0 -124 35.5t-41 121.5v533zM297 575l-119 -102v216h119v-114z" />
    <glyph glyph-name="Ldot" unicode="&#x13f;" horiz-adv-x="441" 
d="M181 100h235v-100h-351v690h116v-590zM295 445h107v-109h-107v109z" />
    <glyph glyph-name="ldot" unicode="&#x140;" horiz-adv-x="311" 
d="M49 690h107v-508q0 -41 12 -64.5t46 -23.5v-94q-83 0 -124 35.5t-41 121.5v533zM199 446h118v-101h-118v101z" />
    <glyph glyph-name="Lslash" unicode="&#x141;" horiz-adv-x="453" 
d="M-16 275l114 108v307h116v-197l75 71l65 -68l-140 -133v-263h235v-100h-351v253l-49 -46z" />
    <glyph glyph-name="lslash" unicode="&#x142;" horiz-adv-x="270" 
d="M-9 302l96 80v308h107v-218l29 24l59 -70l-88 -74v-170q0 -41 12 -64.5t46 -23.5v-94q-83 0 -124 35.5t-41 121.5v106l-37 -31z" />
    <glyph glyph-name="Nacute" unicode="&#x143;" horiz-adv-x="551" 
d="M487 690v-690h-105l-202 409v-409h-116v690h103l204 -415v415h116zM285 873h119l-84 -129h-100z" />
    <glyph glyph-name="nacute" unicode="&#x144;" horiz-adv-x="443" 
d="M49 500h105v-40q13 20 35.5 34.5t59.5 14.5q29 0 55.5 -10.5t46.5 -33.5t31.5 -60.5t11.5 -91.5v-313h-107v301q0 63 -15 88t-47 25q-38 0 -53.5 -30.5t-15.5 -81.5v-302h-107v500zM214 725h115l-74 -158h-98z" />
    <glyph glyph-name="Ncedilla" unicode="&#x145;" horiz-adv-x="551" 
d="M487 690v-690h-105l-202 409v-409h-116v690h103l204 -415v415h116zM335 -171l-119 -102v216h119v-114z" />
    <glyph glyph-name="ncedilla" unicode="&#x146;" horiz-adv-x="443" 
d="M49 500h105v-40q13 20 35.5 34.5t59.5 14.5q29 0 55.5 -10.5t46.5 -33.5t31.5 -60.5t11.5 -91.5v-313h-107v301q0 63 -15 88t-47 25q-38 0 -53.5 -30.5t-15.5 -81.5v-302h-107v500zM281 -171l-119 -102v216h119v-114z" />
    <glyph glyph-name="Ncaron" unicode="&#x147;" horiz-adv-x="551" 
d="M487 690v-690h-105l-202 409v-409h-116v690h103l204 -415v415h116zM225 738l-118 142h107l61 -80l61 80h107l-118 -142h-100z" />
    <glyph glyph-name="ncaron" unicode="&#x148;" horiz-adv-x="443" 
d="M49 500h105v-40q13 20 35.5 34.5t59.5 14.5q29 0 55.5 -10.5t46.5 -33.5t31.5 -60.5t11.5 -91.5v-313h-107v301q0 63 -15 88t-47 25q-38 0 -53.5 -30.5t-15.5 -81.5v-302h-107v500zM175 558l-97 142h96l45 -81l45 81h96l-97 -142h-88z" />
    <glyph glyph-name="Omacron" unicode="&#x14c;" horiz-adv-x="516" 
d="M258 -9q-48 0 -88 18t-68.5 55.5t-44.5 96.5t-16 140v88q0 81 16 140t44.5 96.5t68.5 55.5t88 18t88 -18t68.5 -55.5t44.5 -96.5t16 -140v-88q0 -81 -16 -140t-44.5 -96.5t-68.5 -55.5t-88 -18zM258 599q-51 0 -76 -49t-25 -161v-88q0 -112 25 -161t76 -49t76 49t25 161
v88q0 112 -25 161t-76 49zM126 849h264v-94h-264v94z" />
    <glyph glyph-name="omacron" unicode="&#x14d;" horiz-adv-x="414" 
d="M31 282q0 111 45.5 169t130.5 58t130.5 -58t45.5 -169v-64q0 -111 -45.5 -169t-130.5 -58t-130.5 58t-45.5 169v64zM276 280q0 65 -15 100.5t-54 35.5t-54 -35.5t-15 -100.5v-60q0 -65 15 -100.5t54 -35.5t54 35.5t15 100.5v60zM92 679h231v-94h-231v94z" />
    <glyph glyph-name="Odblacute" unicode="&#x150;" horiz-adv-x="516" 
d="M258 -9q-48 0 -88 18t-68.5 55.5t-44.5 96.5t-16 140v88q0 81 16 140t44.5 96.5t68.5 55.5t88 18t88 -18t68.5 -55.5t44.5 -96.5t16 -140v-88q0 -81 -16 -140t-44.5 -96.5t-68.5 -55.5t-88 -18zM258 599q-51 0 -76 -49t-25 -161v-88q0 -112 25 -161t76 -49t76 49t25 161
v88q0 112 -25 161t-76 49zM172 873h119l-84 -129h-100zM362 873h119l-93 -129h-99z" />
    <glyph glyph-name="odblacute" unicode="&#x151;" horiz-adv-x="414" 
d="M31 282q0 111 45.5 169t130.5 58t130.5 -58t45.5 -169v-64q0 -111 -45.5 -169t-130.5 -58t-130.5 58t-45.5 169v64zM276 280q0 65 -15 100.5t-54 35.5t-54 -35.5t-15 -100.5v-60q0 -65 15 -100.5t54 -35.5t54 35.5t15 100.5v60zM125 725h115l-75 -158h-98zM299 725h116
l-92 -158h-98z" />
    <glyph glyph-name="OE" unicode="&#x152;" horiz-adv-x="739" 
d="M258 -9q-48 0 -88 18t-68.5 55.5t-44.5 96.5t-16 140v88q0 81 16 140t44.5 96.5t68.5 55.5t88 18q58 0 101 -34v25h351v-101h-235v-182h210v-100h-210v-207h235v-100h-351v23q-43 -32 -101 -32zM258 599q-51 0 -76 -49t-25 -161v-88q0 -112 25 -161t76 -49t76 49t25 161
v88q0 112 -25 161t-76 49z" />
    <glyph glyph-name="oe" unicode="&#x153;" horiz-adv-x="651" 
d="M606 77q-23 -46 -58.5 -66t-91.5 -20q-47 0 -78 18t-50 50q-20 -32 -50.5 -50t-71.5 -18q-85 0 -130.5 58t-45.5 169v64q0 111 45.5 169t130.5 58q81 0 123 -62q36 62 114 62q87 0 128 -59t41 -171v-55h-230q0 -29 3 -55t11 -45t22 -30t37 -11q33 0 47.5 12.5t25.5 34.5z
M275 280q0 65 -15 100.5t-54 35.5t-54 -35.5t-15 -100.5v-60q0 -65 15 -100.5t54 -35.5t54 35.5t15 100.5v60zM444 416q-32 0 -46 -29.5t-16 -80.5h124q-1 110 -62 110z" />
    <glyph glyph-name="Racute" unicode="&#x154;" horiz-adv-x="515" 
d="M369 0l-102 280h-87v-280h-116v690h201q98 0 154.5 -51.5t56.5 -154.5q0 -72 -25.5 -117.5t-72.5 -66.5l117 -300h-126zM254 380q53 0 79.5 22.5t26.5 81.5t-26.5 82.5t-79.5 23.5h-74v-210h74zM244 873h119l-84 -129h-100z" />
    <glyph glyph-name="racute" unicode="&#x155;" horiz-adv-x="343" 
d="M272 377q-9 17 -21 27t-32 10q-31 0 -47 -27.5t-16 -75.5v-311h-107v500h105v-39q11 20 32 34t54 14q73 0 111 -74zM170 725h115l-74 -158h-98z" />
    <glyph glyph-name="Rcedilla" unicode="&#x156;" horiz-adv-x="515" 
d="M369 0l-102 280h-87v-280h-116v690h201q98 0 154.5 -51.5t56.5 -154.5q0 -72 -25.5 -117.5t-72.5 -66.5l117 -300h-126zM254 380q53 0 79.5 22.5t26.5 81.5t-26.5 82.5t-79.5 23.5h-74v-210h74zM322 -171l-119 -102v216h119v-114z" />
    <glyph glyph-name="rcedilla" unicode="&#x157;" horiz-adv-x="343" 
d="M272 377q-9 17 -21 27t-32 10q-31 0 -47 -27.5t-16 -75.5v-311h-107v500h105v-39q11 20 32 34t54 14q73 0 111 -74zM163 -171l-119 -102v216h119v-114z" />
    <glyph glyph-name="Rcaron" unicode="&#x158;" horiz-adv-x="515" 
d="M369 0l-102 280h-87v-280h-116v690h201q98 0 154.5 -51.5t56.5 -154.5q0 -72 -25.5 -117.5t-72.5 -66.5l117 -300h-126zM254 380q53 0 79.5 22.5t26.5 81.5t-26.5 82.5t-79.5 23.5h-74v-210h74zM197 738l-118 142h107l61 -80l61 80h107l-118 -142h-100z" />
    <glyph glyph-name="rcaron" unicode="&#x159;" horiz-adv-x="343" 
d="M272 377q-9 17 -21 27t-32 10q-31 0 -47 -27.5t-16 -75.5v-311h-107v500h105v-39q11 20 32 34t54 14q73 0 111 -74zM146 558l-97 142h96l45 -81l45 81h96l-97 -142h-88z" />
    <glyph glyph-name="Sacute" unicode="&#x15a;" horiz-adv-x="481" 
d="M354 524q-19 35 -43 54.5t-66 19.5t-62 -23t-20 -67q0 -50 27 -73.5t84 -39.5q44 -12 76.5 -29t53.5 -41.5t31.5 -57.5t10.5 -78q0 -39 -12 -74.5t-36 -63t-61 -44t-87 -16.5q-74 0 -127 27.5t-90 85.5l89 62q25 -37 51 -55.5t70 -18.5q50 0 68.5 27t18.5 65
q0 21 -5 37.5t-17.5 30.5t-35 25.5t-56.5 21.5q-82 23 -125.5 72t-43.5 137q0 39 11.5 73.5t35.5 61t60.5 41.5t87.5 15q136 0 198 -113zM244 873h119l-84 -129h-100z" />
    <glyph glyph-name="sacute" unicode="&#x15b;" horiz-adv-x="392" 
d="M273 370q-15 23 -31 33.5t-46 10.5q-25 0 -40 -12.5t-15 -38.5q0 -30 17 -43.5t61 -21.5q33 -6 58.5 -17.5t43.5 -29.5t27.5 -44.5t9.5 -63.5q0 -69 -41 -110.5t-121 -41.5q-63 0 -103 20.5t-66 62.5l77 56q15 -20 33 -32.5t55 -12.5q59 0 59 55q0 29 -15.5 42t-59.5 23
q-30 7 -56 17t-45 27.5t-30 44.5t-11 66q0 67 41 108t118 41q51 0 91.5 -18.5t64.5 -65.5zM184 725h115l-74 -158h-98z" />
    <glyph glyph-name="Scircumflex" unicode="&#x15c;" horiz-adv-x="481" 
d="M354 524q-19 35 -43 54.5t-66 19.5t-62 -23t-20 -67q0 -50 27 -73.5t84 -39.5q44 -12 76.5 -29t53.5 -41.5t31.5 -57.5t10.5 -78q0 -39 -12 -74.5t-36 -63t-61 -44t-87 -16.5q-74 0 -127 27.5t-90 85.5l89 62q25 -37 51 -55.5t70 -18.5q50 0 68.5 27t18.5 65
q0 21 -5 37.5t-17.5 30.5t-35 25.5t-56.5 21.5q-82 23 -125.5 72t-43.5 137q0 39 11.5 73.5t35.5 61t60.5 41.5t87.5 15q136 0 198 -113zM292 880l118 -142h-107l-61 80l-61 -80h-107l118 142h100z" />
    <glyph glyph-name="scircumflex" unicode="&#x15d;" horiz-adv-x="392" 
d="M273 370q-15 23 -31 33.5t-46 10.5q-25 0 -40 -12.5t-15 -38.5q0 -30 17 -43.5t61 -21.5q33 -6 58.5 -17.5t43.5 -29.5t27.5 -44.5t9.5 -63.5q0 -69 -41 -110.5t-121 -41.5q-63 0 -103 20.5t-66 62.5l77 56q15 -20 33 -32.5t55 -12.5q59 0 59 55q0 29 -15.5 42t-59.5 23
q-30 7 -56 17t-45 27.5t-30 44.5t-11 66q0 67 41 108t118 41q51 0 91.5 -18.5t64.5 -65.5zM234 700l97 -142h-96l-45 81l-45 -81h-96l97 142h88z" />
    <glyph glyph-name="Scedilla" unicode="&#x15e;" horiz-adv-x="480" 
d="M210 -7q-114 12 -177 111l86 63q24 -37 51.5 -56t72.5 -19q50 0 70 27t20 65q0 41 -24 69t-93 46q-84 23 -126 72t-42 137q0 39 11.5 73.5t35 61t60 41.5t87.5 15q68 0 117.5 -28t79.5 -85l-84 -63q-19 35 -44 55t-69 20q-40 0 -60.5 -23t-20.5 -67q0 -50 28 -74.5
t85 -38.5q44 -12 76.5 -28.5t53.5 -40.5t31 -57.5t10 -79.5q0 -36 -10 -69.5t-31 -60.5t-53 -45t-75 -22l-3 -15q20 -9 34 -26t14 -47q0 -42 -30.5 -62.5t-72.5 -20.5q-28 0 -38 3l13 59q5 -1 16 -1q12 0 19.5 5t7.5 19t-10 18.5t-27 4.5z" />
    <glyph glyph-name="scedilla" unicode="&#x15f;" horiz-adv-x="392" 
d="M162 -7q-48 5 -80 25.5t-55 55.5l77 56q15 -20 33 -32.5t55 -12.5q59 0 59 55q0 29 -15.5 42t-59.5 23q-30 7 -56 17t-45 27.5t-30 44.5t-11 66q0 67 41 108t118 41q51 0 91.5 -18.5t64.5 -65.5l-76 -55q-15 23 -31 33.5t-46 10.5q-25 0 -40 -12.5t-15 -38.5
q0 -30 17 -43.5t61 -21.5q33 -6 58.5 -17.5t43.5 -29.5t27.5 -44.5t9.5 -63.5q0 -62 -33 -101.5t-97 -47.5l-3 -17q20 -8 34 -26t14 -47q0 -45 -30.5 -64t-72.5 -19q-28 0 -38 3l13 59q4 -1 15 -1q12 0 20 5t8 19t-10 18.5t-27 4.5z" />
    <glyph glyph-name="Scaron" unicode="&#x160;" horiz-adv-x="481" 
d="M354 524q-19 35 -43 54.5t-66 19.5t-62 -23t-20 -67q0 -50 27 -73.5t84 -39.5q44 -12 76.5 -29t53.5 -41.5t31.5 -57.5t10.5 -78q0 -39 -12 -74.5t-36 -63t-61 -44t-87 -16.5q-74 0 -127 27.5t-90 85.5l89 62q25 -37 51 -55.5t70 -18.5q50 0 68.5 27t18.5 65
q0 21 -5 37.5t-17.5 30.5t-35 25.5t-56.5 21.5q-82 23 -125.5 72t-43.5 137q0 39 11.5 73.5t35.5 61t60.5 41.5t87.5 15q136 0 198 -113zM189 738l-118 142h107l61 -80l61 80h107l-118 -142h-100z" />
    <glyph glyph-name="scaron" unicode="&#x161;" horiz-adv-x="392" 
d="M273 370q-15 23 -31 33.5t-46 10.5q-25 0 -40 -12.5t-15 -38.5q0 -30 17 -43.5t61 -21.5q33 -6 58.5 -17.5t43.5 -29.5t27.5 -44.5t9.5 -63.5q0 -69 -41 -110.5t-121 -41.5q-63 0 -103 20.5t-66 62.5l77 56q15 -20 33 -32.5t55 -12.5q59 0 59 55q0 29 -15.5 42t-59.5 23
q-30 7 -56 17t-45 27.5t-30 44.5t-11 66q0 67 41 108t118 41q51 0 91.5 -18.5t64.5 -65.5zM149 558l-97 142h96l45 -81l45 81h96l-97 -142h-88z" />
    <glyph glyph-name="Tcedilla" unicode="&#x162;" horiz-adv-x="436" 
d="M182 0h-22v589h-155v101h426v-101h-155v-589h-27l-5 -23q20 -9 34 -26t14 -47q0 -42 -30.5 -62.5t-72.5 -20.5q-28 0 -38 3l13 59q5 -1 16 -1q12 0 19.5 5t7.5 19t-10 18.5t-27 4.5z" />
    <glyph glyph-name="tcedilla" unicode="&#x163;" horiz-adv-x="282" 
d="M146 8q-41 14 -60 49.5t-19 101.5v249h-52v92h52v110h107v-110h81v-92h-81v-229q0 -44 9 -63.5t38 -19.5h34v-96h-44l-5 -23q20 -8 34 -26t14 -47q0 -45 -30.5 -64t-72.5 -19q-28 0 -38 3l13 59q4 -1 15 -1q12 0 20 5t8 19t-10 18.5t-27 4.5z" />
    <glyph glyph-name="Tcaron" unicode="&#x164;" horiz-adv-x="436" 
d="M431 690v-101h-155v-589h-116v589h-155v101h426zM168 738l-118 142h107l61 -80l61 80h107l-118 -142h-100z" />
    <glyph glyph-name="tcaron" unicode="&#x165;" horiz-adv-x="345" 
d="M15 500h52v110h107v-110h81v-92h-81v-229q0 -44 9 -63.5t38 -19.5h34v-96h-44q-37 0 -64 8t-45 27t-26.5 49.5t-8.5 74.5v249h-52v92zM408 575l-119 -102v216h119v-114z" />
    <glyph glyph-name="Umacron" unicode="&#x16a;" horiz-adv-x="562" 
d="M497 690v-410q0 -77 -16 -131.5t-45 -89.5t-68.5 -51.5t-86.5 -16.5t-87 16.5t-68.5 51.5t-44.5 89.5t-16 130.5v411h116v-411q0 -99 23.5 -143t76.5 -44t76.5 44t23.5 143v411h116zM149 849h264v-94h-264v94z" />
    <glyph glyph-name="umacron" unicode="&#x16b;" horiz-adv-x="443" 
d="M394 0h-105v39q-11 -22 -31.5 -35t-58.5 -13q-31 0 -58.5 10.5t-47.5 34t-32 61t-12 91.5v312h107v-301q0 -33 4 -55t11.5 -35t19.5 -18.5t28 -5.5q37 0 52.5 28t15.5 85v302h107v-500zM106 679h231v-94h-231v94z" />
    <glyph glyph-name="Ubreve" unicode="&#x16c;" horiz-adv-x="562" 
d="M497 690v-410q0 -77 -16 -131.5t-45 -89.5t-68.5 -51.5t-86.5 -16.5t-87 16.5t-68.5 51.5t-44.5 89.5t-16 130.5v411h116v-411q0 -99 23.5 -143t76.5 -44t76.5 44t23.5 143v411h116zM281 727q-34 0 -63.5 9.5t-51 29t-34 47.5t-12.5 66h97q4 -27 18 -45t46 -18t46 18
t18 45h97q0 -38 -12.5 -66t-34.5 -47.5t-51 -29t-63 -9.5z" />
    <glyph glyph-name="ubreve" unicode="&#x16d;" horiz-adv-x="443" 
d="M394 0h-105v39q-11 -22 -31.5 -35t-58.5 -13q-31 0 -58.5 10.5t-47.5 34t-32 61t-12 91.5v312h107v-301q0 -33 4 -55t11.5 -35t19.5 -18.5t28 -5.5q37 0 52.5 28t15.5 85v302h107v-500zM221 634q24 0 35.5 15t13.5 41h84q-1 -31 -11.5 -54.5t-28.5 -39.5t-41.5 -24
t-51.5 -8t-51.5 8t-41.5 24t-28.5 39.5t-11.5 54.5h84q2 -26 13.5 -41t35.5 -15z" />
    <glyph glyph-name="Uring" unicode="&#x16e;" horiz-adv-x="562" 
d="M497 690v-410q0 -77 -16 -131.5t-45 -89.5t-68.5 -51.5t-86.5 -16.5t-87 16.5t-68.5 51.5t-44.5 89.5t-16 130.5v411h116v-411q0 -99 23.5 -143t76.5 -44t76.5 44t23.5 143v411h116zM168 800q0 46 32.5 72.5t80.5 26.5q49 0 81.5 -26.5t32.5 -72.5q0 -45 -32.5 -71.5
t-81.5 -26.5q-48 0 -80.5 26.5t-32.5 71.5zM235 800q0 -19 13 -28.5t33 -9.5t33 9.5t13 28.5q0 20 -13 29t-33 9t-33 -9t-13 -29z" />
    <glyph glyph-name="uring" unicode="&#x16f;" horiz-adv-x="443" 
d="M394 0h-105v39q-11 -22 -31.5 -35t-58.5 -13q-31 0 -58.5 10.5t-47.5 34t-32 61t-12 91.5v312h107v-301q0 -33 4 -55t11.5 -35t19.5 -18.5t28 -5.5q37 0 52.5 28t15.5 85v302h107v-500zM104 646q0 23 8.5 43t24.5 35t37 23.5t47 8.5q25 0 46.5 -8.5t37.5 -23.5t24.5 -35
t8.5 -43t-8.5 -43t-24.5 -34.5t-37.5 -23t-46.5 -8.5q-26 0 -47 8.5t-37 23t-24.5 34.5t-8.5 43zM175 646q0 -22 13 -36t33 -14t33 14t13 36q0 23 -13 36t-33 13t-33 -13t-13 -36z" />
    <glyph glyph-name="Udblacute" unicode="&#x170;" horiz-adv-x="562" 
d="M497 690v-410q0 -77 -16 -131.5t-45 -89.5t-68.5 -51.5t-86.5 -16.5t-87 16.5t-68.5 51.5t-44.5 89.5t-16 130.5v411h116v-411q0 -99 23.5 -143t76.5 -44t76.5 44t23.5 143v411h116zM192 873h119l-84 -129h-100zM382 873h119l-93 -129h-99z" />
    <glyph glyph-name="udblacute" unicode="&#x171;" horiz-adv-x="443" 
d="M394 0h-105v39q-11 -22 -31.5 -35t-58.5 -13q-31 0 -58.5 10.5t-47.5 34t-32 61t-12 91.5v312h107v-301q0 -33 4 -55t11.5 -35t19.5 -18.5t28 -5.5q37 0 52.5 28t15.5 85v302h107v-500zM151 725h115l-75 -158h-98zM325 725h116l-92 -158h-98z" />
    <glyph glyph-name="Uogonek" unicode="&#x172;" horiz-adv-x="562" 
d="M497 690v-410q0 -131 -45.5 -199t-118.5 -84q-16 -17 -25 -31t-9 -30q0 -15 6.5 -20t16.5 -5q8 0 16 2l12 -58q-12 -5 -39 -5q-18 0 -35.5 4t-31 13t-21.5 23.5t-8 35.5q0 38 27 68q-39 6 -72 25.5t-56 54.5t-36 86t-13 119v411h116v-411q0 -99 23.5 -143t76.5 -44
t76.5 44t23.5 143v411h116z" />
    <glyph glyph-name="uogonek" unicode="&#x173;" horiz-adv-x="443" 
d="M394 0q-17 -19 -26.5 -33.5t-9.5 -30.5q0 -14 5.5 -19.5t16.5 -5.5q7 0 15 2l12 -58q-10 -5 -43 -5q-15 0 -31 4t-29 13t-21.5 23.5t-8.5 35.5t8.5 39t23.5 35h-17v39q-11 -22 -31.5 -35t-58.5 -13q-31 0 -58.5 10.5t-47.5 34t-32 61t-12 91.5v312h107v-301q0 -33 4 -55
t11.5 -35t19.5 -18.5t28 -5.5q37 0 52.5 28t15.5 85v302h107v-500z" />
    <glyph glyph-name="Ydieresis" unicode="&#x178;" horiz-adv-x="485" 
d="M10 690h128l104 -272l104 272h128l-174 -402v-288h-116v288zM93 869h108v-105h-108v105zM283 869h109v-105h-109v105z" />
    <glyph glyph-name="Zacute" unicode="&#x179;" horiz-adv-x="429" 
d="M398 690v-77l-235 -513h244v-100h-381v77l237 512h-237v101h372zM227 873h119l-84 -129h-100z" />
    <glyph glyph-name="zacute" unicode="&#x17a;" horiz-adv-x="378" 
d="M216 408h-184v92h312v-77l-184 -331h190v-92h-320v77zM197 725h115l-74 -158h-98z" />
    <glyph glyph-name="Zdot" unicode="&#x17b;" horiz-adv-x="429" 
d="M398 690v-77l-235 -513h244v-100h-381v77l237 512h-237v101h372zM166 869h118v-101h-118v101z" />
    <glyph glyph-name="zdot" unicode="&#x17c;" horiz-adv-x="378" 
d="M216 408h-184v92h312v-77l-184 -331h190v-92h-320v77zM145 690h107v-109h-107v109z" />
    <glyph glyph-name="Zcaron" unicode="&#x17d;" horiz-adv-x="429" 
d="M398 690v-77l-235 -513h244v-100h-381v77l237 512h-237v101h372zM174 738l-118 142h107l61 -80l61 80h107l-118 -142h-100z" />
    <glyph glyph-name="zcaron" unicode="&#x17e;" horiz-adv-x="378" 
d="M216 408h-184v92h312v-77l-184 -331h190v-92h-320v77zM147 558l-97 142h96l45 -81l45 81h96l-97 -142h-88z" />
    <glyph glyph-name="Schwa" unicode="&#x18f;" horiz-adv-x="500" 
d="M348 354v35q0 112 -25 160.5t-76 48.5q-43 0 -65.5 -31t-30.5 -91h-110q13 109 65.5 166t140.5 57q48 0 88 -18t68.5 -56.5t44.5 -98t16 -142.5v-83q0 -81 -16 -140t-44.5 -96.5t-68.5 -55.5t-88 -18t-86 17t-65 54.5t-41.5 96t-14.5 142.5v53h308zM247 92
q45 0 69.5 37.5t29.5 123.5h-195q3 -84 25.5 -122.5t70.5 -38.5z" />
    <glyph glyph-name="florin" unicode="&#x192;" 
d="M158 500v31q0 88 39 123.5t113 35.5h33v-101h-21q-30 0 -39 -20.5t-9 -68.5h69v-101h-69v-404q0 -50 -10 -85.5t-31 -57.5t-54 -32t-79 -10v101q35 0 46.5 20.5t11.5 60.5v407h-55v101h55z" />
    <glyph glyph-name="eturned" unicode="&#x1dd;" horiz-adv-x="406" 
d="M45.0664 423.014q22.9951 45.9922 58.4893 65.9883q35.4932 19.9961 91.4834 19.9961q45.9912 0 79.9854 -16.4971q33.9932 -16.4971 56.4893 -46.4912t33.4941 -71.4863q10.998 -41.4932 10.998 -91.4834v-67.9883q0 -110.979 -43.4922 -167.469
q-43.4922 -56.4902 -124.478 -56.4902q-86.9844 0 -127.977 58.9893t-40.9922 170.969v54.9902h229.958q0 28.9951 -3 54.9902q-2.99902 25.9951 -10.998 44.9912q-7.99805 18.9971 -21.9961 29.9951q-13.9971 10.998 -36.9932 10.998q-32.9932 0 -47.4912 -12.498
q-14.4971 -12.498 -25.4951 -34.4941zM207.036 84.0762q31.9941 0 45.9922 29.4941q13.9971 29.4951 15.9971 80.4854h-123.978q1 -109.979 61.9883 -109.979z" />
    <glyph glyph-name="Scommaaccent" unicode="&#x218;" horiz-adv-x="481" 
d="M354 524q-19 35 -43 54.5t-66 19.5t-62 -23t-20 -67q0 -50 27 -73.5t84 -39.5q44 -12 76.5 -29t53.5 -41.5t31.5 -57.5t10.5 -78q0 -39 -12 -74.5t-36 -63t-61 -44t-87 -16.5q-74 0 -127 27.5t-90 85.5l89 62q25 -37 51 -55.5t70 -18.5q50 0 68.5 27t18.5 65
q0 21 -5 37.5t-17.5 30.5t-35 25.5t-56.5 21.5q-82 23 -125.5 72t-43.5 137q0 39 11.5 73.5t35.5 61t60.5 41.5t87.5 15q136 0 198 -113zM305 -171l-118 -102v216h118v-114z" />
    <glyph glyph-name="scommaaccent" unicode="&#x219;" horiz-adv-x="392" 
d="M273 370q-15 23 -31 33.5t-46 10.5q-25 0 -40 -12.5t-15 -38.5q0 -30 17 -43.5t61 -21.5q33 -6 58.5 -17.5t43.5 -29.5t27.5 -44.5t9.5 -63.5q0 -69 -41 -110.5t-121 -41.5q-63 0 -103 20.5t-66 62.5l77 56q15 -20 33 -32.5t55 -12.5q59 0 59 55q0 29 -15.5 42t-59.5 23
q-30 7 -56 17t-45 27.5t-30 44.5t-11 66q0 67 41 108t118 41q51 0 91.5 -18.5t64.5 -65.5zM254 -171l-119 -102v216h119v-114z" />
    <glyph glyph-name="Tcommabelow" unicode="&#x21a;" horiz-adv-x="436" 
d="M431 690v-101h-155v-589h-116v589h-155v101h426zM278 -171l-119 -102v216h119v-114z" />
    <glyph glyph-name="tcommabelow" unicode="&#x21b;" horiz-adv-x="282" 
d="M15 500h52v110h107v-110h81v-92h-81v-229q0 -44 9 -63.5t38 -19.5h34v-96h-44q-37 0 -64 8t-45 27t-26.5 49.5t-8.5 74.5v249h-52v92zM219 -171l-119 -102v216h119v-114z" />
    <glyph glyph-name="dotlessj" unicode="&#x237;" horiz-adv-x="216" 
d="M162 -31q0 -88 -40 -123.5t-122 -35.5v94q33 0 44 23t11 61v512h107v-531z" />
    <glyph glyph-name="schwa" unicode="&#x259;" horiz-adv-x="406" 
d="M45.0664 423.014q22.9951 45.9922 58.4893 65.9883q35.4932 19.9961 91.4834 19.9961q45.9912 0 79.9854 -16.4971q33.9932 -16.4971 56.4893 -46.4912t33.4941 -71.4863q10.998 -41.4932 10.998 -91.4834v-67.9883q0 -110.979 -43.4922 -167.469
q-43.4922 -56.4902 -124.478 -56.4902q-86.9844 0 -127.977 58.9893t-40.9922 170.969v54.9902h229.958q0 28.9951 -3 54.9902q-2.99902 25.9951 -10.998 44.9912q-7.99805 18.9971 -21.9961 29.9951q-13.9971 10.998 -36.9932 10.998q-32.9932 0 -47.4912 -12.498
q-14.4971 -12.498 -25.4951 -34.4941zM207.036 84.0762q31.9941 0 45.9922 29.4941q13.9971 29.4951 15.9971 80.4854h-123.978q1 -109.979 61.9883 -109.979z" />
    <glyph glyph-name="afii57929" unicode="&#x2bc;" horiz-adv-x="150" 
d="M143 354l-118 -102v248h118v-146z" />
    <glyph glyph-name="circumflex" unicode="&#x2c6;" horiz-adv-x="339" 
d="M213 700l97 -142h-96l-45 81l-45 -81h-96l97 142h88z" />
    <glyph glyph-name="caron" unicode="&#x2c7;" horiz-adv-x="339" 
d="M125 558l-97 142h96l45 -81l45 81h96l-97 -142h-88z" />
    <glyph glyph-name="breve" unicode="&#x2d8;" horiz-adv-x="337" 
d="M168 634q24 0 35.5 15t13.5 41h84q-1 -31 -11.5 -54.5t-28.5 -39.5t-41.5 -24t-51.5 -8t-51.5 8t-41.5 24t-28.5 39.5t-11.5 54.5h84q2 -26 13.5 -41t35.5 -15z" />
    <glyph glyph-name="dotaccent" unicode="&#x2d9;" horiz-adv-x="268" 
d="M80 690h107v-109h-107v109z" />
    <glyph glyph-name="ring" unicode="&#x2da;" horiz-adv-x="316" 
d="M41 646q0 23 8.5 43t24.5 35t37 23.5t47 8.5q25 0 46.5 -8.5t37.5 -23.5t24.5 -35t8.5 -43t-8.5 -43t-24.5 -34.5t-37.5 -23t-46.5 -8.5q-26 0 -47 8.5t-37 23t-24.5 34.5t-8.5 43zM112 646q0 -22 13 -36t33 -14t33 14t13 36q0 23 -13 36t-33 13t-33 -13t-13 -36z" />
    <glyph glyph-name="ogonek" unicode="&#x2db;" horiz-adv-x="280" 
d="M193 0q-17 -19 -26.5 -33.5t-9.5 -30.5q0 -14 5.5 -19.5t16.5 -5.5q7 0 15 2l12 -58q-10 -5 -43 -5q-15 0 -31 4t-29 13t-21.5 23.5t-8.5 35.5q0 40 29 70.5t76 57.5z" />
    <glyph glyph-name="tilde" unicode="&#x2dc;" horiz-adv-x="357" 
d="M233 572q-17 0 -31 5t-27 10.5l-24.5 10.5t-23.5 5q-27 0 -47 -29l-60 51q20 29 48 45.5t57 16.5q16 0 29.5 -5t26.5 -10.5l25 -10.5t25 -5q25 0 46 29l59 -51q-19 -29 -46 -45.5t-57 -16.5z" />
    <glyph glyph-name="hungarumlaut" unicode="&#x2dd;" horiz-adv-x="412" 
d="M90 725h115l-75 -158h-98zM264 725h116l-92 -158h-98z" />
    <glyph glyph-name="acutecmb" unicode="&#x301;" horiz-adv-x="0" 
d="M-199 725h115l-74 -158h-98z" />
    <glyph glyph-name="Deltagreek" unicode="&#x2206;" horiz-adv-x="482" 
d="M179 690h124l162 -690h-448zM155 100h172l-86 436z" />
    <glyph glyph-name="Deltagreek" unicode="&#x394;" horiz-adv-x="482" 
d="M179 690h124l162 -690h-448zM155 100h172l-86 436z" />
    <glyph glyph-name="Omega" unicode="&#x2126;" horiz-adv-x="526" 
d="M263 699q48 0 88 -18t68.5 -55.5t44.5 -96.5t16 -140v-85q0 -77 -13.5 -123t-39.5 -81h53v-100h-173v100q14 10 25 24t18 37.5t10.5 57.5t3.5 85v85q0 112 -25 160.5t-76 48.5t-76 -48.5t-25 -160.5v-85q0 -51 3.5 -85t10.5 -57.5t18 -37.5t25 -24v-100h-173v100h53
q-26 35 -39.5 81t-13.5 123v85q0 81 16 140t44.5 96.5t68.5 55.5t88 18z" />
    <glyph glyph-name="Omega" unicode="&#x3a9;" horiz-adv-x="526" 
d="M263 699q48 0 88 -18t68.5 -55.5t44.5 -96.5t16 -140v-85q0 -77 -13.5 -123t-39.5 -81h53v-100h-173v100q14 10 25 24t18 37.5t10.5 57.5t3.5 85v85q0 112 -25 160.5t-76 48.5t-76 -48.5t-25 -160.5v-85q0 -51 3.5 -85t10.5 -57.5t18 -37.5t25 -24v-100h-173v100h53
q-26 35 -39.5 81t-13.5 123v85q0 81 16 140t44.5 96.5t68.5 55.5t88 18z" />
    <glyph glyph-name="pi" unicode="&#x3c0;" horiz-adv-x="464" 
d="M279 408h-122v-408h-105v408h-62v92h451v-92h-57v-226q0 -41 11.5 -64.5t45.5 -23.5v-94q-83 0 -122.5 35.5t-39.5 121.5v251z" />
    <glyph glyph-name="afii10023" unicode="&#x401;" horiz-adv-x="445" 
d="M416 690v-101h-235v-182h210v-100h-210v-207h235v-100h-351v690h351zM91 869h108v-105h-108v105zM281 869h109v-105h-109v105z" />
    <glyph glyph-name="afii10051" unicode="&#x402;" horiz-adv-x="600" 
d="M450 202q0 74 -21 101.5t-66 27.5q-32 0 -55.5 -15.5t-36.5 -38.5v-277h-116v589h-155v101h426v-101h-155v-202q14 14 46.5 29.5t72.5 15.5q94 0 135 -55t41 -170v-46q0 -58 -15 -90.5t-38 -48t-52 -19t-56 -3.5h-19v97h19q27 0 36 19.5t9 57.5v28z" />
    <glyph glyph-name="afii10052" unicode="&#x403;" horiz-adv-x="409" 
d="M409 589h-228v-589h-116v690h344v-101zM242 873h119l-84 -129h-100z" />
    <glyph glyph-name="afii10053" unicode="&#x404;" horiz-adv-x="485" 
d="M352 476q-8 63 -31 92.5t-65 29.5q-51 0 -75.5 -46.5t-25.5 -154.5h166v-100h-166q0 -108 25 -156.5t76 -48.5q43 0 65 29.5t31 92.5h110q-15 -117 -67 -170t-139 -53q-48 0 -88 18t-68.5 55.5t-44.5 96.5t-16 140v88q0 81 16 140t44.5 96.5t68.5 55.5t88 18
q84 0 138 -55t68 -168h-110z" />
    <glyph glyph-name="afii10054" unicode="&#x405;" horiz-adv-x="481" 
d="M354 524q-19 35 -43 54.5t-66 19.5t-62 -23t-20 -67q0 -50 27 -73.5t84 -39.5q44 -12 76.5 -29t53.5 -41.5t31.5 -57.5t10.5 -78q0 -39 -12 -74.5t-36 -63t-61 -44t-87 -16.5q-74 0 -127 27.5t-90 85.5l89 62q25 -37 51 -55.5t70 -18.5q50 0 68.5 27t18.5 65
q0 21 -5 37.5t-17.5 30.5t-35 25.5t-56.5 21.5q-82 23 -125.5 72t-43.5 137q0 39 11.5 73.5t35.5 61t60.5 41.5t87.5 15q136 0 198 -113z" />
    <glyph glyph-name="afii10055" unicode="&#x406;" horiz-adv-x="262" 
d="M189 0h-116v690h116v-690zM73 869h118v-101h-118v101z" />
    <glyph glyph-name="afii10056" unicode="&#x407;" horiz-adv-x="262" 
d="M189 0h-116v690h116v-690zM-17 869h108v-105h-108v105zM173 869h109v-105h-109v105z" />
    <glyph glyph-name="afii10057" unicode="&#x408;" horiz-adv-x="432" 
d="M92 141q14 -23 33 -36t43 -13q21 0 36.5 9t26 30t15.5 56t5 86v417h116v-417q0 -77 -13.5 -130.5t-38 -87t-60 -49t-80.5 -15.5q-122 0 -177 96z" />
    <glyph glyph-name="afii10058" unicode="&#x409;" horiz-adv-x="806" 
d="M482 690v-262h85q56 0 96 -18t65.5 -47.5t37.5 -68t12 -80.5t-12 -80.5t-37.5 -68t-65.5 -47.5t-96 -18h-201v589h-146v-79q0 -84 -1.5 -145.5t-5.5 -105.5t-9.5 -75.5t-13.5 -55.5q-20 -63 -64.5 -94t-111.5 -43v125q26 6 44.5 22t28.5 50q6 19 9 45.5t5 65t2.5 90.5
t0.5 121v180h378zM482 328v-228h79q56 0 78.5 31.5t22.5 82.5q0 50 -22.5 82t-78.5 32h-79z" />
    <glyph glyph-name="afii10059" unicode="&#x40a;" horiz-adv-x="810" 
d="M180 407h191v283h116v-262h85q56 0 96 -18t65.5 -47.5t37.5 -68t12 -80.5t-12 -80.5t-37.5 -68t-65.5 -47.5t-96 -18h-201v307h-191v-307h-116v690h116v-283zM487 328v-228h79q56 0 78.5 31.5t22.5 82.5q0 50 -22.5 82t-78.5 32h-79z" />
    <glyph glyph-name="afii10060" unicode="&#x40b;" horiz-adv-x="606" 
d="M432 690v-101h-155v-202q13 14 45.5 29.5t73.5 15.5q94 0 135 -55t41 -170v-207h-116v202q0 74 -20.5 101.5t-66.5 27.5q-34 0 -56 -15t-36 -39v-277h-116v589h-155v101h426z" />
    <glyph glyph-name="afii10061" unicode="&#x40c;" horiz-adv-x="516" 
d="M375 0l-138 297h-57v-297h-116v690h116v-293h55l118 293h125l-143 -337l171 -353h-131zM266 873h119l-84 -129h-100z" />
    <glyph glyph-name="afii10062" unicode="&#x40e;" horiz-adv-x="488" 
d="M483 690l-160 -510q-18 -55 -36.5 -91.5t-43 -58t-57.5 -30.5t-79 -9v103q21 0 36.5 2.5t26.5 9.5t19.5 20.5t15.5 35.5l-191 528h130l120 -372l101 372h118zM258 732q-79 0 -123 36t-44 111h108q0 -29 14 -49.5t45 -20.5t45 20.5t14 49.5h108q0 -75 -44 -111t-123 -36z
" />
    <glyph glyph-name="afii10145" unicode="&#x40f;" horiz-adv-x="548" 
d="M227 -130v130h-162v690h116v-590h200v590h116v-690h-162v-130h-108z" />
    <glyph glyph-name="Acyrillic" unicode="&#x410;" horiz-adv-x="504" 
d="M1 0l193 690h114l194 -690h-123l-36 143h-185l-35 -143h-122zM184 243h134l-66 272z" />
    <glyph glyph-name="afii10018" unicode="&#x411;" horiz-adv-x="504" 
d="M435 589h-254v-161h85q56 0 96 -18t65.5 -47.5t37.5 -68t12 -80.5t-12 -80.5t-37.5 -68t-65.5 -47.5t-96 -18h-201v690h370v-101zM181 328v-228h79q56 0 78.5 31.5t22.5 82.5q0 50 -22.5 82t-78.5 32h-79z" />
    <glyph glyph-name="afii10019" unicode="&#x412;" horiz-adv-x="509" 
d="M253 690q100 0 153 -44.5t53 -134.5q0 -54 -20.5 -93.5t-54.5 -56.5q45 -17 69 -57t24 -106q0 -39 -11 -75t-36 -63t-64 -43.5t-95 -16.5h-206v690h188zM181 100h81q52 0 75.5 27t23.5 77q0 55 -26 79.5t-84 24.5h-70v-208zM181 408h74q48 0 68 26.5t20 69.5q0 20 -4 36
t-15 27t-30.5 17t-50.5 6h-62v-182z" />
    <glyph glyph-name="afii10020" unicode="&#x413;" horiz-adv-x="409" 
d="M409 589h-228v-589h-116v690h344v-101z" />
    <glyph glyph-name="afii10021" unicode="&#x414;" horiz-adv-x="581" 
d="M9 -130v230h34q12 14 22 41.5t18 58.5q6 24 10.5 54t7 68t4 86t1.5 109v173h378v-590h80v-230h-108v130h-339v-130h-108zM188 156q-5 -17 -8.5 -30t-8.5 -26h197v489h-146v-72q0 -70 -2.5 -124.5t-7 -97.5t-10.5 -76.5t-14 -62.5z" />
    <glyph glyph-name="afii10022" unicode="&#x415;" horiz-adv-x="445" 
d="M416 690v-101h-235v-182h210v-100h-210v-207h235v-100h-351v690h351z" />
    <glyph glyph-name="afii10024" unicode="&#x416;" horiz-adv-x="750" 
d="M317 297h-52l-129 -297h-131l159 351l-130 339h119l110 -293h54v293h116v-293h54l110 293h119l-130 -339l159 -351h-131l-129 297h-52v-297h-116v297z" />
    <glyph glyph-name="afii10025" unicode="&#x417;" horiz-adv-x="493" 
d="M179 408h62q49 0 69 27.5t20 71.5q0 41 -18.5 66.5t-65.5 25.5q-46 0 -67.5 -24.5t-31.5 -69.5h-101q3 45 20.5 81t45 61t63 38.5t75.5 13.5q39 0 74.5 -12t62.5 -35.5t43 -58t16 -79.5q0 -54 -21 -91t-56 -60q42 -18 68 -61t26 -104q0 -43 -14.5 -81t-41.5 -66
t-66.5 -44t-90.5 -16q-91 0 -148 49t-74 155h111q14 -53 37.5 -78t68.5 -25q53 0 77.5 28.5t24.5 80.5t-26 79.5t-82 27.5h-60v100z" />
    <glyph glyph-name="afii10026" unicode="&#x418;" horiz-adv-x="573" 
d="M181 690v-442l233 442h95v-690h-116v437l-232 -437h-96v690h116z" />
    <glyph glyph-name="afii10027" unicode="&#x419;" horiz-adv-x="573" 
d="M181 690v-442l233 442h95v-690h-116v437l-232 -437h-96v690h116zM296 732q-79 0 -123 36t-44 111h108q0 -29 14 -49.5t45 -20.5t45 20.5t14 49.5h108q0 -75 -44 -111t-123 -36z" />
    <glyph glyph-name="afii10028" unicode="&#x41a;" horiz-adv-x="516" 
d="M375 0l-138 297h-57v-297h-116v690h116v-293h55l118 293h125l-143 -337l171 -353h-131z" />
    <glyph glyph-name="afii10029" unicode="&#x41b;" horiz-adv-x="547" 
d="M482 690v-690h-116v589h-146v-79q0 -84 -1.5 -145.5t-5.5 -105.5t-9.5 -75.5t-13.5 -55.5q-20 -63 -64.5 -94t-111.5 -43v125q26 6 44.5 22t28.5 50q6 19 9 45.5t5 65t2.5 90.5t0.5 121v180h378z" />
    <glyph glyph-name="afii10030" unicode="&#x41c;" horiz-adv-x="664" 
d="M332 300l154 390h114v-690h-116v405l-113 -272h-77l-114 269v-402h-116v690h113z" />
    <glyph glyph-name="afii10031" unicode="&#x41d;" horiz-adv-x="551" 
d="M180 407h191v283h116v-690h-116v307h-191v-307h-116v690h116v-283z" />
    <glyph glyph-name="afii10032" unicode="&#x41e;" horiz-adv-x="516" 
d="M258 -9q-48 0 -88 18t-68.5 55.5t-44.5 96.5t-16 140v88q0 81 16 140t44.5 96.5t68.5 55.5t88 18t88 -18t68.5 -55.5t44.5 -96.5t16 -140v-88q0 -81 -16 -140t-44.5 -96.5t-68.5 -55.5t-88 -18zM258 599q-51 0 -76 -49t-25 -161v-88q0 -112 25 -161t76 -49t76 49t25 161
v88q0 112 -25 161t-76 49z" />
    <glyph glyph-name="afii10033" unicode="&#x41f;" horiz-adv-x="561" 
d="M496 690v-690h-116v589h-199v-589h-116v690h431z" />
    <glyph glyph-name="afii10034" unicode="&#x420;" horiz-adv-x="498" 
d="M181 252v-252h-116v690h201q98 0 154.5 -55.5t56.5 -162.5t-56 -163.5t-155 -56.5h-85zM250 352q60 0 85.5 30t25.5 90q0 57 -25.5 87.5t-85.5 30.5h-69v-238h69z" />
    <glyph glyph-name="afii10035" unicode="&#x421;" horiz-adv-x="489" 
d="M354 476q-8 63 -31 92.5t-65 29.5q-51 0 -76 -48.5t-25 -160.5v-88q0 -111 25 -160t76 -49q43 0 65 29.5t31 92.5h110q-15 -117 -67 -170t-139 -53q-48 0 -88 18t-68.5 55.5t-44.5 96.5t-16 140v88q0 81 16 140t44.5 96.5t68.5 55.5t88 18q84 0 138 -55t68 -168h-110z
" />
    <glyph glyph-name="afii10036" unicode="&#x422;" horiz-adv-x="436" 
d="M431 690v-101h-155v-589h-116v589h-155v101h426z" />
    <glyph glyph-name="afii10037" unicode="&#x423;" horiz-adv-x="488" 
d="M483 690l-160 -510q-18 -55 -36.5 -91.5t-43 -58t-57.5 -30.5t-79 -9v103q21 0 36.5 2.5t26.5 9.5t19.5 20.5t15.5 35.5l-191 528h130l120 -372l101 372h118z" />
    <glyph glyph-name="afii10038" unicode="&#x424;" horiz-adv-x="652" 
d="M268 52q-49 0 -91 13.5t-72.5 45.5t-48 85t-17.5 133v32q0 80 17.5 133t48 85t72.5 45.5t91 13.5v66h116v-66q49 0 91 -13.5t72.5 -45.5t48 -85t17.5 -133v-32q0 -80 -17.5 -133t-48 -85t-72.5 -45.5t-91 -13.5v-64h-116v64zM155 329q0 -53 7 -87.5t21 -54.5t35 -27.5
t50 -7.5v386q-29 0 -50 -7.5t-35 -27.5t-21 -54.5t-7 -87.5v-32zM497 361q0 53 -7 87.5t-21 54.5t-35.5 27.5t-49.5 7.5v-386q28 0 49.5 7.5t35.5 27.5t21 54.5t7 87.5v32z" />
    <glyph glyph-name="afii10039" unicode="&#x425;" horiz-adv-x="496" 
d="M354 0l-106 247l-106 -247h-128l160 356l-142 334h128l88 -232l88 232h128l-142 -334l160 -356h-128z" />
    <glyph glyph-name="afii10040" unicode="&#x426;" horiz-adv-x="587" 
d="M181 100h199v590h116v-590h80v-230h-108v130h-403v690h116v-590z" />
    <glyph glyph-name="afii10041" unicode="&#x427;" horiz-adv-x="503" 
d="M139 491q0 -40 5 -67.5t16.5 -44.5t30 -24.5t44.5 -7.5q38 0 58 13.5t29 32.5v297h116v-690h-116v281q-13 -12 -38 -23t-71 -11q-103 0 -146.5 58.5t-43.5 185.5v199h116v-199z" />
    <glyph glyph-name="afii10042" unicode="&#x428;" horiz-adv-x="782" 
d="M180 100h153v590h116v-590h153v590h116v-690h-654v690h116v-590z" />
    <glyph glyph-name="afii10043" unicode="&#x429;" horiz-adv-x="811" 
d="M180 100h153v590h116v-590h153v590h116v-590h80v-230h-108v130h-626v690h116v-590z" />
    <glyph glyph-name="afii10044" unicode="&#x42a;" horiz-adv-x="543" 
d="M220 690v-262h85q56 0 96 -18t65.5 -47.5t37.5 -68t12 -80.5t-12 -80.5t-37.5 -68t-65.5 -47.5t-96 -18h-201v589h-125v101h241zM220 328v-228h80q56 0 78 31.5t22 82.5q0 50 -22 82t-78 32h-80z" />
    <glyph glyph-name="afii10045" unicode="&#x42b;" horiz-adv-x="690" 
d="M181 690v-262h76q56 0 96 -18t65.5 -47.5t37.5 -68t12 -80.5t-12 -80.5t-38.5 -68t-68.5 -47.5t-102 -18h-182v690h116zM626 0h-116v690h116v-690zM181 328v-228h70q57 0 79 31.5t22 82.5t-22 82.5t-79 31.5h-70z" />
    <glyph glyph-name="afii10046" unicode="&#x42c;" horiz-adv-x="505" 
d="M181 690v-262h85q56 0 96 -18t65.5 -47.5t37.5 -68t12 -80.5t-12 -80.5t-37.5 -68t-65.5 -47.5t-96 -18h-201v690h116zM181 328v-228h79q56 0 78.5 31.5t22.5 82.5q0 50 -22.5 82t-78.5 32h-79z" />
    <glyph glyph-name="afii10047" unicode="&#x42d;" horiz-adv-x="490" 
d="M164 397h168q-1 108 -26 154.5t-75 46.5q-42 0 -65 -29.5t-31 -92.5h-110q14 113 68 168t138 55q48 0 88 -18t68.5 -55.5t44.5 -96.5t16 -140v-88q0 -81 -16 -140t-44.5 -96.5t-68.5 -55.5t-88 -18q-87 0 -139 53t-67 170h110q9 -63 31 -92.5t65 -29.5q50 0 75 48.5
t26 156.5h-168v100z" />
    <glyph glyph-name="afii10048" unicode="&#x42e;" horiz-adv-x="700" 
d="M659 306q0 -84 -14 -143.5t-40 -97.5t-64 -56t-86 -18t-85.5 17.5t-64 55.5t-40.5 98t-14 145h-70v-307h-116v690h116v-283h70q2 78 17.5 133.5t41.5 90.5t63 51.5t82 16.5q48 0 86 -18t64 -56t40 -97.5t14 -143.5v-78zM367 310q0 -115 18.5 -166.5t69.5 -51.5t69.5 51.5
t18.5 166.5v70q0 114 -18.5 166t-69.5 52t-69.5 -52t-18.5 -166v-70z" />
    <glyph glyph-name="afii10049" unicode="&#x42f;" horiz-adv-x="514" 
d="M14 0l127 297q-104 42 -104 187q0 103 56.5 154.5t154.5 51.5h201v-690h-116v280h-81l-112 -280h-126zM333 380v210h-74q-53 0 -79.5 -23.5t-26.5 -82.5t26.5 -81.5t79.5 -22.5h74z" />
    <glyph glyph-name="acyrillic" unicode="&#x430;" horiz-adv-x="414" 
d="M27 147q0 40 12.5 68t33.5 46t49.5 26t61.5 8h76v42q0 47 -14 63.5t-58 16.5q-29 0 -46 -8.5t-31 -35.5l-75 53q23 45 60.5 64t100.5 19q39 0 70.5 -8.5t53 -28.5t33 -53t11.5 -83v-336h-105v46q-14 -29 -35 -42t-56 -13q-62 0 -102 40.5t-40 115.5zM260 213h-65
q-63 0 -63 -66q0 -35 15 -50t42 -15q18 0 31.5 4.5t22 16.5t13 32.5t4.5 53.5v24z" />
    <glyph glyph-name="afii10066" unicode="&#x431;" horiz-adv-x="420" 
d="M357 616q-19 -13 -51 -15l-76 -6q-32 -2 -49 -14t-26 -40q-5 -16 -7.5 -31.5t-4.5 -33.5q16 14 35.5 23.5t48.5 9.5q70 0 113.5 -58t43.5 -169v-64q0 -111 -45.5 -169t-130.5 -58t-130.5 58t-45.5 169v52q0 69 3 121.5t8.5 90.5t12 64.5t12.5 43.5q14 40 49 68t90 32
l82 7q18 2 27 5t16 8zM277 280q0 65 -15 100.5t-54 35.5t-54 -35.5t-15 -100.5v-60q0 -65 15 -100.5t54 -35.5t54 35.5t15 100.5v60z" />
    <glyph glyph-name="afii10067" unicode="&#x432;" horiz-adv-x="418" 
d="M211 500q75 0 115.5 -32.5t40.5 -96.5q0 -37 -19.5 -62.5t-40.5 -36.5q35 -13 59 -46t24 -82q0 -27 -8.5 -53t-27.5 -46.5t-49.5 -32.5t-75.5 -12h-181v500h163zM155 87h56q29 0 45.5 15t16.5 51q0 35 -15.5 50t-52.5 15h-50v-131zM155 302h41q29 0 41 15t12 41t-12 40.5
t-46 14.5h-36v-111z" />
    <glyph glyph-name="afii10068" unicode="&#x433;" horiz-adv-x="309" 
d="M318 408h-163v-408h-107v500h270v-92z" />
    <glyph glyph-name="afii10069" unicode="&#x434;" horiz-adv-x="471" 
d="M356 0h-244v-117h-100v209h30q16 15 31 62q6 19 10 44.5t6 54.5t2.5 61t0.5 64v122h307v-408h57v-209h-100v117zM178 138q-6 -21 -10 -29.5l-8 -16.5h132v316h-97v-47q0 -38 -1.5 -72.5t-3.5 -63.5t-5 -51.5t-7 -35.5z" />
    <glyph glyph-name="afii10070" unicode="&#x435;" horiz-adv-x="406" 
d="M361 77q-23 -46 -58.5 -66t-91.5 -20q-46 0 -80 16.5t-56.5 46.5t-33.5 71.5t-11 91.5v68q0 111 43.5 167.5t124.5 56.5q87 0 128 -59t41 -171v-55h-230q0 -29 3 -55t11 -45t22 -30t37 -11q33 0 47.5 12.5t25.5 34.5zM199 416q-32 0 -46 -29.5t-16 -80.5h124
q-1 110 -62 110z" />
    <glyph glyph-name="afii10072" unicode="&#x436;" horiz-adv-x="572" 
d="M337 297h45l61 203h109l-81 -243l98 -257h-118l-67 207h-47v-207h-102v207h-47l-67 -207h-118l98 257l-81 243h109l61 -203h45v203h102v-203z" />
    <glyph glyph-name="afii10073" unicode="&#x437;" horiz-adv-x="377" 
d="M113 302h42q33 0 49.5 17t16.5 46q0 24 -14 40t-43 16q-24 0 -41 -11t-34 -34l-70 54q9 13 23 27.5t33 25.5t44.5 18.5t58.5 7.5q75 0 113 -37t38 -91q0 -42 -17.5 -69t-41.5 -43q29 -15 51 -46t22 -82q0 -31 -10 -58t-30.5 -47.5t-51.5 -32.5t-74 -12q-62 0 -101 22
t-61 64l66 55q14 -21 33 -37t56 -16q33 0 49.5 19.5t16.5 52.5q0 31 -18 49t-66 18h-39v84z" />
    <glyph glyph-name="afii10074" unicode="&#x438;" horiz-adv-x="447" 
d="M155 210l150 290h93v-500h-107v299l-150 -299h-93v500h107v-290z" />
    <glyph glyph-name="afii10075" unicode="&#x439;" horiz-adv-x="447" 
d="M155 210l150 290h93v-500h-107v299l-150 -299h-93v500h107v-290zM230 632q24 0 33.5 16t9.5 42h98q0 -33 -12 -56.5t-31.5 -38.5t-45 -22t-52.5 -7t-52.5 7t-45 22t-31.5 38.5t-12 56.5h98q0 -26 9.5 -42t33.5 -16z" />
    <glyph glyph-name="afii10076" unicode="&#x43a;" horiz-adv-x="411" 
d="M394 500l-101 -242l113 -258h-118l-86 207h-47v-207h-107v500h107v-203h44l82 203h113z" />
    <glyph glyph-name="afii10077" unicode="&#x43b;" horiz-adv-x="434" 
d="M386 500v-500h-107v408h-100v-134q0 -68 -5.5 -110.5t-20.5 -77.5q-40 -90 -142 -98v98q22 8 35.5 22t20.5 42q8 30 8.5 71t0.5 98v181h310z" />
    <glyph glyph-name="afii10078" unicode="&#x43c;" horiz-adv-x="541" 
d="M270 214l125 286h97v-500h-107v278l-76 -194h-78l-76 194v-278h-107v500h97z" />
    <glyph glyph-name="afii10079" unicode="&#x43d;" horiz-adv-x="434" 
d="M155 301h123v199h107v-500h-107v209h-123v-209h-107v500h107v-199z" />
    <glyph glyph-name="afii10080" unicode="&#x43e;" horiz-adv-x="414" 
d="M31 282q0 111 45.5 169t130.5 58t130.5 -58t45.5 -169v-64q0 -111 -45.5 -169t-130.5 -58t-130.5 58t-45.5 169v64zM276 280q0 65 -15 100.5t-54 35.5t-54 -35.5t-15 -100.5v-60q0 -65 15 -100.5t54 -35.5t54 35.5t15 100.5v60z" />
    <glyph glyph-name="afii10081" unicode="&#x43f;" horiz-adv-x="434" 
d="M385 500v-500h-107v408h-123v-408h-107v500h337z" />
    <glyph glyph-name="afii10082" unicode="&#x440;" horiz-adv-x="436" 
d="M156 -190h-107v690h107v-33q14 20 35 31t55 11q38 0 67.5 -17t49.5 -47t30.5 -72t10.5 -92v-63q0 -111 -44 -169t-114 -58q-29 0 -51.5 12t-38.5 34v-227zM227 416q-21 0 -34.5 -10.5t-22 -29t-11.5 -44t-3 -54.5v-66q0 -62 16.5 -95t54.5 -33q39 0 54.5 35t15.5 101v58
q0 29 -3 54.5t-10.5 44t-21 29t-35.5 10.5z" />
    <glyph glyph-name="afii10083" unicode="&#x441;" horiz-adv-x="371" 
d="M362 77q-41 -86 -149 -86q-44 0 -78 16t-57 46t-35 71.5t-12 92.5v68q0 109 48 166.5t139 57.5q48 0 85.5 -21t58.5 -61l-80 -55q-11 20 -26 32t-40 12q-45 0 -61.5 -35.5t-16.5 -100.5v-58q0 -29 3 -54.5t11 -44.5t23.5 -29.5t40.5 -10.5q24 0 40 11t28 36z" />
    <glyph glyph-name="afii10084" unicode="&#x442;" horiz-adv-x="345" 
d="M345 500v-92h-119v-408h-107v408h-119v92h345z" />
    <glyph glyph-name="afii10085" unicode="&#x443;" horiz-adv-x="400" 
d="M117 500l88 -348l81 348h110l-144 -520q-14 -48 -29 -80.5t-36.5 -52.5t-51.5 -28.5t-73 -8.5v98q42 0 64 22t23 59l-145 511h113z" />
    <glyph glyph-name="afii10086" unicode="&#x444;" horiz-adv-x="576" 
d="M341 -190h-107v181q-105 0 -154.5 57t-49.5 167v70q0 110 49.5 167t154.5 57v181h107v-181q105 0 154.5 -57t49.5 -167v-70q0 -110 -49.5 -167t-154.5 -57v-181zM234 416q-51 0 -74 -31.5t-23 -103.5v-62q0 -72 23 -103.5t74 -31.5v332zM341 84q51 0 74 31.5t23 103.5v62
q0 72 -23 103.5t-74 31.5v-332z" />
    <glyph glyph-name="afii10087" unicode="&#x445;" horiz-adv-x="408" 
d="M204 342l68 158h117l-125 -244l137 -256h-118l-79 167l-79 -167h-118l137 256l-125 244h117z" />
    <glyph glyph-name="afii10088" unicode="&#x446;" horiz-adv-x="457" 
d="M342 -117v117h-294v500h107v-408h123v408h107v-408h57v-209h-100z" />
    <glyph glyph-name="afii10089" unicode="&#x447;" horiz-adv-x="400" 
d="M136 366q0 -31 4.5 -50t12 -29.5t17.5 -14.5t22 -4q21 0 33.5 10t18.5 24v198h107v-500h-107v198q-11 -11 -31 -18t-46 -7t-49.5 6.5t-42.5 23t-31 44t-13 68.5q-1 14 -1.5 30.5t-0.5 33.5v121h107v-134z" />
    <glyph glyph-name="afii10090" unicode="&#x448;" horiz-adv-x="629" 
d="M581 0h-533v500h107v-408h106v408h107v-408h106v408h107v-500z" />
    <glyph glyph-name="afii10091" unicode="&#x449;" horiz-adv-x="654" 
d="M538 -117v117h-490v500h107v-408h106v408h107v-408h106v408h107v-408h57v-209h-100z" />
    <glyph glyph-name="afii10092" unicode="&#x44a;" horiz-adv-x="449" 
d="M-14 500h211v-181h59q86 0 129.5 -38.5t43.5 -119.5q0 -72 -40.5 -116.5t-124.5 -44.5h-174v408h-104v92zM197 92h61q64 0 64 70q0 32 -16 48.5t-57 16.5h-52v-135z" />
    <glyph glyph-name="afii10093" unicode="&#x44b;" horiz-adv-x="566" 
d="M517 500v-500h-107v500h107zM155 500v-181h39q86 0 129.5 -38.5t43.5 -119.5q0 -72 -40.5 -116.5t-124.5 -44.5h-154v500h107zM155 92h41q64 0 64 70q0 32 -16 48.5t-57 16.5h-32v-135z" />
    <glyph glyph-name="afii10094" unicode="&#x44c;" horiz-adv-x="406" 
d="M155 500v-181h59q86 0 129.5 -38.5t43.5 -119.5q0 -72 -40.5 -116.5t-124.5 -44.5h-174v500h107zM155 92h61q64 0 64 70q0 32 -16 48.5t-57 16.5h-52v-135z" />
    <glyph glyph-name="afii10095" unicode="&#x44d;" horiz-adv-x="380" 
d="M113 297h129q-2 57 -19 88t-59 31q-25 0 -40 -12t-26 -32l-80 55q21 40 58.5 61t85.5 21q91 0 139 -57.5t48 -166.5v-68q0 -51 -12 -92.5t-35 -71.5t-57 -46t-78 -16q-108 0 -149 86l78 53q12 -25 28 -36t40 -11t39 9.5t23.5 27t12 40.5t3.5 50h-129v87z" />
    <glyph glyph-name="afii10096" unicode="&#x44e;" horiz-adv-x="587" 
d="M386 -9q-81 0 -125 55.5t-45 162.5h-60v-209h-107v500h107v-199h60q3 103 47.5 155.5t122.5 52.5q81 0 125.5 -57t44.5 -167v-70q0 -110 -44.5 -167t-125.5 -57zM323 219q0 -71 15 -103t48 -32t48 32t15 103v62q0 71 -15 103t-48 32t-48 -32t-15 -103v-62z" />
    <glyph glyph-name="afii10097" unicode="&#x44f;" horiz-adv-x="422" 
d="M266 0v184h-49l-84 -184h-111l101 201q-36 17 -56.5 52.5t-20.5 89.5q0 32 9 60.5t28.5 50t51.5 34t77 12.5h161v-500h-107zM266 408h-50q-63 0 -63 -64q0 -36 16.5 -52.5t51.5 -16.5h45v133z" />
    <glyph glyph-name="afii10071" unicode="&#x451;" horiz-adv-x="406" 
d="M361 77q-23 -46 -58.5 -66t-91.5 -20q-46 0 -80 16.5t-56.5 46.5t-33.5 71.5t-11 91.5v68q0 111 43.5 167.5t124.5 56.5q87 0 128 -59t41 -171v-55h-230q0 -29 3 -55t11 -45t22 -30t37 -11q33 0 47.5 12.5t25.5 34.5zM199 416q-32 0 -46 -29.5t-16 -80.5h124
q-1 110 -62 110zM55 690h109v-105h-109v105zM234 690h108v-105h-108v105z" />
    <glyph glyph-name="afii10099" unicode="&#x452;" horiz-adv-x="439" 
d="M-25 637h76v53h107v-53h114v-92h-114v-83q11 17 33.5 32t59.5 15q29 0 55.5 -10.5t46.5 -33.5t31.5 -60.5t11.5 -91.5v-344q0 -88 -40 -123.5t-122 -35.5v94q33 0 44 23t11 61v313q0 63 -15 88t-47 25q-38 0 -53.5 -30.5t-15.5 -81.5v-302h-107v545h-76v92z" />
    <glyph glyph-name="afii10100" unicode="&#x453;" horiz-adv-x="309" 
d="M318 408h-163v-408h-107v500h270v-92zM188 725h115l-74 -158h-98z" />
    <glyph glyph-name="afii10101" unicode="&#x454;" horiz-adv-x="383" 
d="M357 77q-41 -86 -149 -86q-44 0 -78 16t-57 46t-35 71.5t-12 92.5v68q0 109 48 166.5t139 57.5q48 0 85.5 -21t58.5 -61l-80 -55q-11 20 -26 32t-40 12q-42 0 -59 -31t-19 -88h122v-87h-122q0 -27 3.5 -50t12 -40.5t23.5 -27t39 -9.5t40 11t28 36z" />
    <glyph glyph-name="afii10102" unicode="&#x455;" horiz-adv-x="392" 
d="M273 370q-15 23 -31 33.5t-46 10.5q-25 0 -40 -12.5t-15 -38.5q0 -30 17 -43.5t61 -21.5q33 -6 58.5 -17.5t43.5 -29.5t27.5 -44.5t9.5 -63.5q0 -69 -41 -110.5t-121 -41.5q-63 0 -103 20.5t-66 62.5l77 56q15 -20 33 -32.5t55 -12.5q59 0 59 55q0 29 -15.5 42t-59.5 23
q-30 7 -56 17t-45 27.5t-30 44.5t-11 66q0 67 41 108t118 41q51 0 91.5 -18.5t64.5 -65.5z" />
    <glyph glyph-name="afii10103" unicode="&#x456;" horiz-adv-x="231" 
d="M62 500h107v-500h-107v500zM62 690h107v-109h-107v109z" />
    <glyph glyph-name="afii10104" unicode="&#x457;" horiz-adv-x="231" 
d="M62 500h107v-500h-107v500zM-27 690h109v-105h-109v105zM152 690h108v-105h-108v105z" />
    <glyph glyph-name="afii10105" unicode="&#x458;" horiz-adv-x="216" 
d="M162 -31q0 -88 -40 -123.5t-122 -35.5v94q33 0 44 23t11 61v512h107v-531zM55 690h107v-109h-107v109z" />
    <glyph glyph-name="afii10106" unicode="&#x459;" horiz-adv-x="638" 
d="M386 500v-181h59q86 0 129.5 -38.5t43.5 -119.5q0 -72 -40.5 -116.5t-124.5 -44.5h-174v408h-100v-134q0 -68 -5.5 -110.5t-20.5 -77.5q-40 -90 -142 -98v98q22 8 35.5 22t20.5 42q8 30 8.5 71t0.5 98v181h310zM386 92h61q64 0 64 70q0 32 -16 48.5t-57 16.5h-52v-135z
" />
    <glyph glyph-name="afii10107" unicode="&#x45a;" horiz-adv-x="638" 
d="M156 301h123v199h107v-181h59q86 0 129.5 -38.5t43.5 -119.5q0 -72 -40.5 -116.5t-124.5 -44.5h-174v209h-123v-209h-107v500h107v-199zM386 92h61q64 0 64 70q0 32 -16 48.5t-57 16.5h-52v-135z" />
    <glyph glyph-name="afii10108" unicode="&#x45b;" horiz-adv-x="439" 
d="M-25 637h76v53h107v-53h114v-92h-114v-83q11 17 33.5 32t59.5 15q29 0 55.5 -10.5t46.5 -33.5t31.5 -60.5t11.5 -91.5v-313h-107v301q0 63 -15 88t-47 25q-38 0 -53.5 -30.5t-15.5 -81.5v-302h-107v545h-76v92z" />
    <glyph glyph-name="afii10109" unicode="&#x45c;" horiz-adv-x="411" 
d="M394 500l-101 -242l113 -258h-118l-86 207h-47v-207h-107v500h107v-203h44l82 203h113zM210 725h115l-74 -158h-98z" />
    <glyph glyph-name="afii10110" unicode="&#x45e;" horiz-adv-x="400" 
d="M117 500l88 -348l81 348h110l-144 -520q-14 -48 -29 -80.5t-36.5 -52.5t-51.5 -28.5t-73 -8.5v98q42 0 64 22t23 59l-145 511h113zM205 632q24 0 33.5 16t9.5 42h98q0 -33 -12 -56.5t-31.5 -38.5t-45 -22t-52.5 -7t-52.5 7t-45 22t-31.5 38.5t-12 56.5h98q0 -26 9.5 -42
t33.5 -16z" />
    <glyph glyph-name="afii10193" unicode="&#x45f;" horiz-adv-x="439" 
d="M172 -117v117h-124v500h107v-408h123v408h107v-500h-124v-117h-89z" />
    <glyph glyph-name="afii10146" unicode="&#x462;" horiz-adv-x="504" 
d="M-9 613h73v77h116v-77h131v-101h-131v-84h85q56 0 96 -18t65.5 -47.5t37.5 -68t12 -80.5t-12 -80.5t-37.5 -68t-65.5 -47.5t-96 -18h-201v512h-73v101zM180 328v-228h79q56 0 78.5 31.5t22.5 82.5q0 50 -22.5 82t-78.5 32h-79z" />
    <glyph glyph-name="afii10194" unicode="&#x463;" horiz-adv-x="411" 
d="M159 690v-190h114v-92h-114v-89h59q86 0 129.5 -38.5t43.5 -119.5q0 -72 -40.5 -116.5t-124.5 -44.5h-174v408h-76v92h76v190h107zM159 92h61q64 0 64 70q0 32 -16 48.5t-57 16.5h-52v-135z" />
    <glyph glyph-name="afii10147" unicode="&#x472;" horiz-adv-x="516" 
d="M258 -9q-48 0 -88 18t-68.5 55.5t-44.5 96.5t-16 140v88q0 81 16 140t44.5 96.5t68.5 55.5t88 18t88 -18t68.5 -55.5t44.5 -96.5t16 -140v-88q0 -81 -16 -140t-44.5 -96.5t-68.5 -55.5t-88 -18zM258 91q51 0 76 49t25 161v6h-202v-6q0 -112 25 -161t76 -49zM258 599
q-49 0 -74 -45t-27 -147h202q-2 102 -27 147t-74 45z" />
    <glyph glyph-name="afii10195" unicode="&#x473;" horiz-adv-x="414" 
d="M31 282q0 111 45.5 169t130.5 58t130.5 -58t45.5 -169v-64q0 -111 -45.5 -169t-130.5 -58t-130.5 58t-45.5 169v64zM207 84q37 0 52 32.5t17 92.5h-138q1 -60 16 -92.5t53 -32.5zM207 416q-36 0 -51.5 -30t-17.5 -85h137q-2 55 -17.5 85t-50.5 30z" />
    <glyph glyph-name="afii10148" unicode="&#x474;" horiz-adv-x="501" 
d="M130 690l123 -499l92 372q8 34 20.5 60t33 42.5t49.5 25t71 8.5v-99q-26 0 -39 -17t-24 -56l-150 -527h-106l-195 690h125z" />
    <glyph glyph-name="afii10196" unicode="&#x475;" horiz-adv-x="414" 
d="M423 417q-24 0 -33 -15t-19 -47l-110 -355h-102l-156 500h117l90 -348l66 254q8 31 20 51t29.5 31.5t41.5 16t56 4.5v-92z" />
    <glyph glyph-name="afii10050" unicode="&#x490;" horiz-adv-x="409" 
d="M409 589h-228v-589h-116v690h236v108h108v-209z" />
    <glyph glyph-name="afii10098" unicode="&#x491;" horiz-adv-x="309" 
d="M222 593h96v-185h-163v-408h-107v500h174v93z" />
    <glyph glyph-name="Ghestrokecyrillic" unicode="&#x492;" horiz-adv-x="413" 
d="M413 589h-228v-182h110v-100h-110v-307h-116v307h-77v100h77v283h344v-101z" />
    <glyph glyph-name="ghestrokecyrillic" unicode="&#x493;" horiz-adv-x="324" 
d="M-10 301h72v199h270v-92h-163v-107h83v-92h-83v-209h-107v209h-72v92z" />
    <glyph glyph-name="Zhedescendercyrillic" unicode="&#x496;" horiz-adv-x="795" 
d="M615 0l-129 297h-52v-297h-116v297h-52l-129 -297h-131l159 351l-130 339h119l110 -293h54v293h116v-293h54l110 293h119l-130 -339l113 -251h84v-230h-108v130h-61z" />
    <glyph glyph-name="zhedescendercyrillic" unicode="&#x497;" horiz-adv-x="599" 
d="M337 297h45l61 203h109l-81 -243l63 -165h57v-209h-100v117h-40l-67 207h-47v-207h-102v207h-47l-67 -207h-118l98 257l-81 243h109l61 -203h45v203h102v-203z" />
    <glyph glyph-name="Zedescendercyrillic" unicode="&#x498;" horiz-adv-x="493" 
d="M199 -4q-69 12 -113 60.5t-58 138.5h111q14 -53 37.5 -78t68.5 -25q53 0 77.5 28.5t24.5 80.5t-26 79.5t-82 27.5h-60v100h62q49 0 69 27.5t20 71.5q0 41 -18.5 66.5t-65.5 25.5q-46 0 -67.5 -24.5t-31.5 -69.5h-101q3 45 20.5 81t45 61t63 38.5t75.5 13.5q39 0 74.5 -12
t62.5 -35.5t43 -58t16 -79.5q0 -54 -21 -91t-56 -60q42 -18 68 -61t26 -104q0 -38 -11 -71.5t-31.5 -60t-50.5 -45t-69 -25.5v-126h-102v126z" />
    <glyph glyph-name="zedescendercyrillic" unicode="&#x499;" horiz-adv-x="377" 
d="M133 -5q-83 13 -118 82l66 55q14 -21 33 -37t56 -16q33 0 49.5 19.5t16.5 52.5q0 31 -18 49t-66 18h-39v84h42q33 0 49.5 17t16.5 46q0 24 -14 40t-43 16q-24 0 -41 -11t-34 -34l-70 54q9 13 23 27.5t33 25.5t44.5 18.5t58.5 7.5q75 0 113 -37t38 -91q0 -42 -17.5 -69
t-41.5 -43q29 -15 51 -46t22 -82t-26.5 -90t-83.5 -53v-115h-100v112z" />
    <glyph glyph-name="Kadescendercyrillic" unicode="&#x49a;" horiz-adv-x="556" 
d="M376 0l-138 297h-57v-297h-116v690h116v-293h55l118 293h125l-143 -337l122 -253h86v-230h-108v130h-60z" />
    <glyph glyph-name="kadescendercyrillic" unicode="&#x49b;" horiz-adv-x="435" 
d="M395 500l-101 -242l72 -166h59v-209h-100v117h-37l-85 207h-47v-207h-107v500h107v-203h44l82 203h113z" />
    <glyph glyph-name="Kaverticalstrokecyrillic" unicode="&#x49c;" horiz-adv-x="589" 
d="M448 0l-117 297h-25v-111h-93v111h-32v-297h-116v690h116v-293h32v119h93v-119h23l97 293h125l-120 -337l148 -353h-131z" />
    <glyph glyph-name="kaverticalstrokecyrillic" unicode="&#x49d;" horiz-adv-x="470" 
d="M179 105v102h-24v-207h-107v500h107v-203h24v103h84v-103h16l62 203h113l-81 -242l93 -258h-119l-65 207h-19v-102h-84z" />
    <glyph glyph-name="Kabashkircyrillic" unicode="&#x4a0;" horiz-adv-x="557" 
d="M416 0l-138 297h-57v-297h-116v589h-125v101h241v-293h55l118 293h125l-143 -337l171 -353h-131z" />
    <glyph glyph-name="kabashkircyrillic" unicode="&#x4a1;" horiz-adv-x="452" 
d="M436 500l-101 -242l113 -258h-119l-85 207h-47v-207h-107v408h-104v92h211v-203h44l82 203h113z" />
    <glyph glyph-name="Endescendercyrillic" unicode="&#x4a2;" horiz-adv-x="578" 
d="M180 407h191v283h116v-590h80v-230h-108v130h-88v307h-191v-307h-116v690h116v-283z" />
    <glyph glyph-name="endescendercyrillic" unicode="&#x4a3;" horiz-adv-x="457" 
d="M342 0h-64v209h-123v-209h-107v500h107v-199h123v199h107v-408h57v-209h-100v117z" />
    <glyph glyph-name="Esdescendercyrillic" unicode="&#x4aa;" horiz-adv-x="489" 
d="M207 -3q-75 16 -120.5 90t-45.5 214v88q0 81 16 140t44.5 96.5t68.5 55.5t88 18q84 0 138 -55t68 -168h-110q-8 63 -31 92.5t-65 29.5q-51 0 -76 -48.5t-25 -160.5v-88q0 -111 25 -160t76 -49q43 0 65 29.5t31 92.5h110q-13 -99 -52 -151.5t-103 -66.5v-126h-102v127z
" />
    <glyph glyph-name="esdescendercyrillic" unicode="&#x4ab;" horiz-adv-x="371" 
d="M166 -3q-66 16 -100.5 74t-34.5 146v68q0 109 48 166.5t139 57.5q48 0 85.5 -21t58.5 -61l-80 -55q-11 20 -26 32t-40 12q-45 0 -61.5 -35.5t-16.5 -100.5v-58q0 -29 3 -54.5t11 -44.5t23.5 -29.5t40.5 -10.5q24 0 40 11t28 36l78 -53q-32 -65 -96 -80v-114h-100v114z
" />
    <glyph glyph-name="Ustraightcyrillic" unicode="&#x4ae;" horiz-adv-x="485" 
d="M10 690h128l104 -272l104 272h128l-174 -402v-288h-116v288z" />
    <glyph glyph-name="ustraightcyrillic" unicode="&#x4af;" horiz-adv-x="420" 
d="M157 0l-154 500h117l90 -354l90 354h117l-154 -500v-190h-106v190z" />
    <glyph glyph-name="Ustraightstrokecyrillic" unicode="&#x4b0;" horiz-adv-x="485" 
d="M140 690l102 -276l102 276h130l-169 -387h101v-100h-107v-203h-113v203h-108v100h101l-169 387h130z" />
    <glyph glyph-name="ustraightstrokecyrillic" unicode="&#x4b1;" horiz-adv-x="420" 
d="M74 0h83l-154 500h117l90 -354l90 354h117l-154 -500h83v-92h-83v-98h-106v98h-83v92z" />
    <glyph glyph-name="Hadescendercyrillic" unicode="&#x4b2;" horiz-adv-x="530" 
d="M14 0l159 356l-141 334h122l91 -236l91 236h122l-142 -334l115 -256h87v-230h-108v130h-56l-109 251l-109 -251h-122z" />
    <glyph glyph-name="hadescendercyrillic" unicode="&#x4b3;" horiz-adv-x="427" 
d="M204 342l68 158h117l-125 -244l88 -164h66v-209h-100v117h-35l-79 167l-79 -167h-118l137 256l-125 244h117z" />
    <glyph glyph-name="Chedescendercyrillic" unicode="&#x4b6;" horiz-adv-x="530" 
d="M139 491q0 -40 5 -67.5t16.5 -44.5t30 -24.5t44.5 -7.5q38 0 58 13.5t29 32.5v297h116v-590h80v-230h-108v130h-88v281q-13 -12 -38 -23t-71 -11q-103 0 -146.5 58.5t-43.5 185.5v199h116v-199z" />
    <glyph glyph-name="chedescendercyrillic" unicode="&#x4b7;" horiz-adv-x="426" 
d="M139 366q0 -31 4.5 -50t12 -29.5t17.5 -14.5t22 -4q21 0 33.5 10t18.5 24v198h107v-408h57v-209h-100v117h-64v198q-11 -11 -31 -18t-46 -7t-49.5 6.5t-42.5 23t-31 44t-13 68.5q-1 14 -1.5 30.5t-0.5 33.5v121h107v-134z" />
    <glyph glyph-name="Cheverticalstrokecyrillic" unicode="&#x4b8;" horiz-adv-x="523" 
d="M190 248q-91 8 -129 66.5t-38 176.5v199h116v-199q0 -63 9.5 -94.5t41.5 -42.5v114h100v-114q15 6 28 15.5t24 23.5v297h116v-690h-116v281q-8 -6 -21 -12.5t-31 -11.5v-120h-100v111z" />
    <glyph glyph-name="cheverticalstrokecyrillic" unicode="&#x4b9;" horiz-adv-x="444" 
d="M173 84v89q-29 1 -54 8t-43.5 23.5t-30 43.5t-12.5 67q-1 14 -1.5 30.5t-0.5 33.5v121h107v-134q0 -47 8 -68t27 -27v107h84v-98q17 7 31 21v199h107v-500h-107v200q-7 -5 -15 -9t-16 -7v-100h-84z" />
    <glyph glyph-name="Shhacyrillic" unicode="&#x4ba;" horiz-adv-x="503" 
d="M363 264q0 80 -20 112t-75 32q-35 0 -57 -12.5t-30 -34.5v-361h-116v690h116v-215q14 11 40 22.5t69 11.5q105 0 147 -59t42 -185v-265h-116v264z" />
    <glyph glyph-name="shhacyrillic" unicode="&#x4bb;" horiz-adv-x="443" 
d="M49 690h107v-228q11 17 33.5 32t59.5 15q29 0 55.5 -10.5t46.5 -33.5t31.5 -60.5t11.5 -91.5v-313h-107v301q0 63 -15 88t-47 25q-38 0 -53.5 -30.5t-15.5 -81.5v-302h-107v690z" />
    <glyph glyph-name="Schwacyrillic" unicode="&#x4d8;" horiz-adv-x="500" 
d="M348 354v35q0 112 -25 160.5t-76 48.5q-43 0 -65.5 -31t-30.5 -91h-110q13 109 65.5 166t140.5 57q48 0 88 -18t68.5 -56.5t44.5 -98t16 -142.5v-83q0 -81 -16 -140t-44.5 -96.5t-68.5 -55.5t-88 -18t-86 17t-65 54.5t-41.5 96t-14.5 142.5v53h308zM247 92
q45 0 69.5 37.5t29.5 123.5h-195q3 -84 25.5 -122.5t70.5 -38.5z" />
    <glyph glyph-name="afii10846" unicode="&#x4d9;" horiz-adv-x="406" 
d="M45.0664 423.014q22.9951 45.9922 58.4893 65.9883q35.4932 19.9961 91.4834 19.9961q45.9912 0 79.9854 -16.4971q33.9932 -16.4971 56.4893 -46.4912t33.4941 -71.4863q10.998 -41.4932 10.998 -91.4834v-67.9883q0 -110.979 -43.4922 -167.469
q-43.4922 -56.4902 -124.478 -56.4902q-86.9844 0 -127.977 58.9893t-40.9922 170.969v54.9902h229.958q0 28.9951 -3 54.9902q-2.99902 25.9951 -10.998 44.9912q-7.99805 18.9971 -21.9961 29.9951q-13.9971 10.998 -36.9932 10.998q-32.9932 0 -47.4912 -12.498
q-14.4971 -12.498 -25.4951 -34.4941zM207.036 84.0762q31.9941 0 45.9922 29.4941q13.9971 29.4951 15.9971 80.4854h-123.978q1 -109.979 61.9883 -109.979z" />
    <glyph glyph-name="Imacroncyrillic" unicode="&#x4e2;" horiz-adv-x="573" 
d="M181 690v-442l233 442h95v-690h-116v437l-232 -437h-96v690h116zM155 849h264v-94h-264v94z" />
    <glyph glyph-name="imacroncyrillic" unicode="&#x4e3;" horiz-adv-x="447" 
d="M155 210l150 290h93v-500h-107v299l-150 -299h-93v500h107v-290zM108 679h231v-94h-231v94z" />
    <glyph glyph-name="Obarredcyrillic" unicode="&#x4e8;" horiz-adv-x="516" 
d="M258 -9q-48 0 -88 18t-68.5 55.5t-44.5 96.5t-16 140v88q0 81 16 140t44.5 96.5t68.5 55.5t88 18t88 -18t68.5 -55.5t44.5 -96.5t16 -140v-88q0 -81 -16 -140t-44.5 -96.5t-68.5 -55.5t-88 -18zM258 91q51 0 76 49t25 161v6h-202v-6q0 -112 25 -161t76 -49zM258 599
q-49 0 -74 -45t-27 -147h202q-2 102 -27 147t-74 45z" />
    <glyph glyph-name="obarredcyrillic" unicode="&#x4e9;" horiz-adv-x="414" 
d="M31 282q0 111 45.5 169t130.5 58t130.5 -58t45.5 -169v-64q0 -111 -45.5 -169t-130.5 -58t-130.5 58t-45.5 169v64zM207 84q37 0 52 32.5t17 92.5h-138q1 -60 16 -92.5t53 -32.5zM207 416q-36 0 -51.5 -30t-17.5 -85h137q-2 55 -17.5 85t-50.5 30z" />
    <glyph glyph-name="Umacroncyrillic" unicode="&#x4ee;" horiz-adv-x="488" 
d="M483 690l-160 -510q-18 -55 -36.5 -91.5t-43 -58t-57.5 -30.5t-79 -9v103q21 0 36.5 2.5t26.5 9.5t19.5 20.5t15.5 35.5l-191 528h130l120 -372l101 372h118zM121 849h264v-94h-264v94z" />
    <glyph glyph-name="umacroncyrillic" unicode="&#x4ef;" horiz-adv-x="400" 
d="M117 500l88 -348l81 348h110l-144 -520q-14 -48 -29 -80.5t-36.5 -52.5t-51.5 -28.5t-73 -8.5v98q42 0 64 22t23 59l-145 511h113zM85 679h231v-94h-231v94z" />
    <glyph glyph-name="Germandbls" unicode="&#x1e9e;" horiz-adv-x="513" 
d="M372 455q46 -11 61.5 -42.5t15.5 -91.5v-181q0 -45 -7.5 -72.5t-22.5 -42.5t-37.5 -20t-53.5 -5h-73v100h37q23 0 32 14.5t9 47.5v140q0 35 -8 50.5t-33 15.5h-37v78l55 139q-8 4 -22 8.5t-30 4.5q-43 0 -60.5 -25t-17.5 -88v-485h-116v493q0 47 11 85t34.5 65t60 41.5
t88.5 14.5q31 0 61.5 -6.5t56.5 -15.5t45.5 -19.5t29.5 -18.5z" />
    <glyph glyph-name="hyphentwo" unicode="&#x2010;" horiz-adv-x="262" 
d="M25 336h212v-94h-212v94z" />
    <glyph glyph-name="uni2011" unicode="&#x2011;" horiz-adv-x="262" 
d="M25 336h212v-94h-212v94z" />
    <glyph glyph-name="figuredash" unicode="&#x2012;" 
d="M55 399h346v-100h-346v100z" />
    <glyph glyph-name="endash" unicode="&#x2013;" horiz-adv-x="421" 
d="M51 339h319v-100h-319v100z" />
    <glyph glyph-name="emdash" unicode="&#x2014;" horiz-adv-x="579" 
d="M17 339h545v-100h-545v100z" />
    <glyph glyph-name="quoteleft" unicode="&#x2018;" horiz-adv-x="214" 
d="M44 702l119 102v-270h-119v168z" />
    <glyph glyph-name="quoteright" unicode="&#x2019;" horiz-adv-x="218" 
d="M157 547l-113 -96v270h113v-174z" />
    <glyph glyph-name="quotesinglbase" unicode="&#x201a;" horiz-adv-x="220" 
d="M169 -50l-118 -102v270h118v-168z" />
    <glyph glyph-name="quotedblleft" unicode="&#x201c;" horiz-adv-x="366" 
d="M32 702l119 102v-270h-119v168zM199 702l118 102v-270h-118v168z" />
    <glyph glyph-name="quotedblright" unicode="&#x201d;" horiz-adv-x="366" 
d="M317 553l-119 -102v270h119v-168zM150 553l-118 -102v270h118v-168z" />
    <glyph glyph-name="quotedblbase" unicode="&#x201e;" horiz-adv-x="383" 
d="M336 -50l-119 -102v270h119v-168zM169 -50l-118 -102v270h118v-168z" />
    <glyph glyph-name="dagger" unicode="&#x2020;" horiz-adv-x="469" 
d="M176 500v190h116v-190h153v-101h-153v-589h-116v589h-153v101h153z" />
    <glyph glyph-name="daggerdbl" unicode="&#x2021;" horiz-adv-x="469" 
d="M176 500v190h116v-190h153v-101h-153v-299h153v-100h-153v-190h-116v190h-153v100h153v299h-153v101h153z" />
    <glyph glyph-name="bullet" unicode="&#x2022;" horiz-adv-x="283" 
d="M40 341q0 21 8 39.5t22 32.5t32.5 22t39.5 8t39.5 -8t32.5 -22t22 -32.5t8 -39.5t-8 -39.5t-22 -32.5t-32.5 -22t-39.5 -8t-39.5 8t-32.5 22t-22 32.5t-8 39.5z" />
    <glyph glyph-name="ellipsis" unicode="&#x2026;" horiz-adv-x="782" 
d="M189 0h-138v138h138v-138zM731 0h-138v138h138v-138zM460 0h-138v138h138v-138z" />
    <glyph glyph-name="perthousand" unicode="&#x2030;" horiz-adv-x="911" 
d="M518 690l-315 -690h-101l315 690h101zM263 480q0 -66 -31.5 -102t-90.5 -36t-90.5 36t-31.5 102v81q0 66 31.5 102t90.5 36t90.5 -36t31.5 -102v-81zM105 482q0 -34 8.5 -49t27.5 -15t27.5 15t8.5 49v77q0 34 -8.5 49t-27.5 15t-27.5 -15t-8.5 -49v-77zM603 129
q0 -66 -31.5 -102t-90.5 -36t-90.5 36t-31.5 102v81q0 66 31.5 102t90.5 36t90.5 -36t31.5 -102v-81zM445 131q0 -34 8.5 -49t27.5 -15t27.5 15t8.5 49v77q0 34 -8.5 49t-27.5 15t-27.5 -15t-8.5 -49v-77zM888 129q0 -66 -31.5 -102t-90.5 -36t-90.5 36t-31.5 102v81
q0 66 31.5 102t90.5 36t90.5 -36t31.5 -102v-81zM730 131q0 -34 8.5 -49t27.5 -15t27.5 15t8.5 49v77q0 34 -8.5 49t-27.5 15t-27.5 -15t-8.5 -49v-77z" />
    <glyph glyph-name="guilsinglleft" unicode="&#x2039;" horiz-adv-x="289" 
d="M25 283l207 231v-131l-90 -100l90 -100v-131z" />
    <glyph glyph-name="guilsinglright" unicode="&#x203a;" horiz-adv-x="290" 
d="M49 52v131l90 100l-90 100v131l207 -231z" />
    <glyph glyph-name="fraction" unicode="&#x2044;" horiz-adv-x="480" 
d="M497 690l-391 -690h-100l391 690h100z" />
    <glyph glyph-name="foursuperior" unicode="&#x2074;" horiz-adv-x="285" 
d="M203 690l-102 -201h50v50h72v-50h33v-62h-33v-53h-72v53h-135v55l107 208h80z" />
    <glyph glyph-name="Euro" unicode="&#x20ac;" 
d="M331 476q-4 61 -18.5 91.5t-48.5 30.5q-35 0 -52.5 -29.5t-23.5 -96.5h95v-101h-97v-56h97v-101h-94q5 -64 23 -93t52 -29q35 0 48.5 29.5t18.5 92.5h110q-8 -116 -49.5 -169.5t-127.5 -53.5q-84 0 -130.5 57.5t-59.5 165.5h-60v101h56v56h-56v101h60q24 227 190 227
q78 0 124 -52t53 -171h-110z" />
    <glyph glyph-name="uni20B4" unicode="&#x20b4;" 
d="M16 321h423v-94h-270q-5 -22 -5 -43q0 -19 3.5 -35.5t12 -29t23 -20t36.5 -7.5q34 0 54.5 19t43.5 56l86 -62q-20 -29 -39.5 -50.5t-42 -35.5t-49.5 -21t-62 -7q-47 0 -81 15.5t-56.5 42.5t-33.5 62t-11 74q0 22 3 42h-35v94zM16 465h267q3 9 5 21.5t2 28.5
q0 38 -15 60.5t-47 22.5t-52 -19.5t-39 -55.5l-84 63q29 55 71.5 84t101.5 29q47 0 81 -14.5t56 -39.5t32.5 -58t10.5 -70q0 -17 -2 -29l-4 -23h39v-95h-423v95z" />
    <glyph glyph-name="uni20B8" unicode="&#x20b8;" 
d="M438 540v-101h-152v-439h-116v439h-152v101h420zM18 589v101h420v-101h-420z" />
    <glyph glyph-name="uni20BD" unicode="&#x20bd;" 
d="M14 207h72v45h-72v100h72v338h146q98 0 154.5 -55.5t56.5 -162.5t-56 -163.5t-155 -56.5h-30v-45h83v-100h-83v-107h-116v107h-72v100zM216 352q60 0 85.5 30t25.5 90q0 57 -25.5 87.5t-85.5 30.5h-14v-238h14z" />
    <glyph glyph-name="afii61352" unicode="&#x2116;" horiz-adv-x="800" 
d="M483 690v-690h-105l-202 409v-409h-116v690h103l204 -415v415h116zM520 551q0 77 35 112.5t95 35.5t95 -35.5t35 -112.5v-76q0 -77 -35 -112.5t-95 -35.5t-95 35.5t-35 112.5v76zM542 285h216v-98h-216v98zM689 551q-2 61 -39 61q-39 0 -39 -61v-76q0 -61 39 -61t39 61
v76z" />
    <glyph glyph-name="trademark" unicode="&#x2122;" horiz-adv-x="887" 
d="M627 455l135 235h88v-417h-94v232l-94 -161h-76l-88 161v-232h-93v417h87zM368 690v-85h-126v-332h-94v332h-125v85h345z" />
    <glyph glyph-name="arrowleft" unicode="&#x2190;" horiz-adv-x="875" 
d="M413 -92l-353 353l353 353h110l-314 -314h606v-78h-606l314 -314h-110z" />
    <glyph glyph-name="arrowup" unicode="&#x2191;" horiz-adv-x="826" 
d="M766 176l-314 314v-606h-78v606l-314 -314v110l353 353l353 -353v-110z" />
    <glyph glyph-name="arrowright" unicode="&#x2192;" horiz-adv-x="875" 
d="M352 -92l314 314h-606v78h606l-314 314h110l353 -353l-353 -353h-110z" />
    <glyph glyph-name="arrowdown" unicode="&#x2193;" horiz-adv-x="826" 
d="M60 346l314 -314v606h78v-606l314 314v-110l-353 -353l-353 353v110z" />
    <glyph glyph-name="arrowupleft" unicode="&#x2196;" horiz-adv-x="698" 
d="M60 0v500h500l78 -77h-445l428 -429l-55 -55l-429 428v-445z" />
    <glyph glyph-name="arrowupright" unicode="&#x2197;" horiz-adv-x="698" 
d="M561 -78v445l-429 -428l-55 55l428 429h-445l78 77h500v-500z" />
    <glyph glyph-name="arrowdownright" unicode="&#x2198;" horiz-adv-x="698" 
d="M638 500v-500h-500l-78 77h445l-428 429l55 55l429 -428v445z" />
    <glyph glyph-name="arrowdownleft" unicode="&#x2199;" horiz-adv-x="698" 
d="M137 578v-445l429 428l55 -55l-428 -429h445l-78 -77h-500v500z" />
    <glyph glyph-name="uni21A3" unicode="&#x21a3;" horiz-adv-x="1320" 
d="M349 331h780l-60 60l50 51l161 -161l-161 -161l-50 50l60 61h-780l-111 -111l-51 50l111 111l-111 110l51 51zM251 281l-160 -161l-51 50l110 111l-110 110l51 51z" />
    <glyph glyph-name="partialdiff" unicode="&#x2202;" 
d="M52 282q0 111 44 169t116 58q28 0 49.5 -9t38.5 -24v24q0 55 -19.5 81t-62.5 26q-23 0 -44 -11.5t-41 -29.5l-49 71q25 28 62.5 45t82.5 17q89 0 132 -59t43 -174v-248q0 -111 -45.5 -169t-130.5 -58t-130.5 58t-45.5 169v64zM297 280q0 65 -15 100.5t-54 35.5t-54 -35.5
t-15 -100.5v-60q0 -65 15 -100.5t54 -35.5t54 35.5t15 100.5v60z" />
    <glyph glyph-name="product" unicode="&#x220f;" horiz-adv-x="544" 
d="M485 690v-880h-116v779h-194v-779h-116v880h426z" />
    <glyph glyph-name="summation" unicode="&#x2211;" horiz-adv-x="433" 
d="M408 590h-241l146 -292v-98l-146 -290h241v-100h-383v83l186 357l-186 357v83h383v-100z" />
    <glyph glyph-name="minus" unicode="&#x2212;" 
d="M66 401h323v-94h-323v94z" />
    <glyph glyph-name="divisionslash" unicode="&#x2215;" horiz-adv-x="416" 
d="M40 -116l275 928h97l-275 -928h-97z" />
    <glyph glyph-name="radical" unicode="&#x221a;" horiz-adv-x="572" 
d="M184 500l105 -324l88 514h242v-101h-149l-117 -589h-111l-145 399h-85v101h172z" />
    <glyph glyph-name="infinity" unicode="&#x221e;" horiz-adv-x="663" 
d="M331 274q-33 -48 -70 -79.5t-86 -31.5q-33 0 -60.5 14t-47 38.5t-30 57t-10.5 69.5t11 69.5t30.5 57t47.5 38.5t62 14q47 0 86 -30.5t72 -78.5q32 48 67.5 78.5t83.5 30.5q33 0 60.5 -14t47 -38.5t30.5 -57t11 -69.5t-10.5 -69.5t-30 -57t-46 -38.5t-57.5 -14
q-52 0 -90.5 31.5t-70.5 79.5zM485 261q23 0 40 21.5t17 59.5q0 36 -17.5 58t-42.5 22q-26 0 -45.5 -21.5t-42.5 -56.5q23 -37 44.5 -60t46.5 -23zM180 261q29 0 50.5 23t42.5 59q-21 35 -44 57t-49 22q-24 0 -41.5 -22t-17.5 -58q0 -38 17.5 -59.5t41.5 -21.5z" />
    <glyph glyph-name="integral" unicode="&#x222b;" horiz-adv-x="257" 
d="M173 -31q0 -44 -9 -74.5t-27.5 -49.5t-46 -27t-64.5 -8h-31v100h20q29 0 38.5 18.5t9.5 62.5v540q0 88 36.5 123.5t110.5 35.5h30v-100h-19q-27 0 -37.5 -18.5t-10.5 -63.5v-539z" />
    <glyph glyph-name="approxequal" unicode="&#x2248;" 
d="M400 400q-20 -24 -40.5 -38t-51.5 -14q-23 0 -43.5 8.5t-40 18l-38 18t-36.5 8.5t-31.5 -8.5t-25.5 -22.5l-38 77q22 26 43 39t49 13q21 0 42 -8.5t41.5 -18l40 -18t38.5 -8.5q17 0 29 8t26 22zM400 234q-20 -25 -40.5 -39t-51.5 -14q-23 0 -43.5 8.5t-40 18l-38 18
t-36.5 8.5t-31.5 -8.5t-25.5 -22.5l-38 77q22 26 43 39t49 13q21 0 42 -8.5t41.5 -18l40 -18t38.5 -8.5q17 0 29 8t26 22z" />
    <glyph glyph-name="notequal" unicode="&#x2260;" 
d="M68 476h157l58 164l87 -30l-47 -134h64v-99h-99l-25 -73h124v-98h-158l-57 -163l-87 30l46 133h-63v98h97l26 73h-123v99z" />
    <glyph glyph-name="lessequal" unicode="&#x2264;" 
d="M198 440l148 -107v-124l-266 183v97l266 183v-124zM346 143v-124l-266 183v124z" />
    <glyph glyph-name="greaterequal" unicode="&#x2265;" 
d="M110 548v124l266 -183v-97l-266 -183v124l148 107zM376 326v-124l-266 -183v124z" />
    <glyph glyph-name="uni231A" unicode="&#x231a;" horiz-adv-x="666" 
d="M185 30q-57 34 -91 92t-34 128t34 127.5t91 91.5v235h261v-234q48 -29 80.5 -76t41.5 -104h38v-80h-38q-9 -58 -41.5 -104.5t-80.5 -75.5v-235h-261v235zM105 250q0 -44 16.5 -82t45.5 -67t67 -45.5t82 -16.5q43 0 81.5 16.5t67 45.5t45 67t16.5 82q0 43 -16.5 81.5
t-45 67t-67 45t-81.5 16.5q-44 0 -82 -16.5t-67 -45t-45.5 -67t-16.5 -81.5zM316 225l-133 75l-6 20l20 5l119 -70l153 87l19 -5l-6 -19z" />
    <glyph glyph-name="uni23F2" unicode="&#x23f2;" horiz-adv-x="1072" 
d="M60 342q0 99 37.5 185.5t102 151t151 102t185.5 37.5t185.5 -37.5t151 -102t102 -151t37.5 -185.5t-37.5 -185.5t-102 -151t-151 -102t-185.5 -37.5t-185.5 37.5t-151 102t-102 151t-37.5 185.5zM114 342q0 -87 33 -164t90.5 -134.5t134.5 -90.5t164 -33t164 33t134 90.5
t90 134.5t33 164t-33 164t-90 134t-134 90t-164 33t-164 -33t-134.5 -90t-90.5 -134t-33 -164zM536 316l-248 142l-10 35l36 10l222 -129l309 179l36 -9l-10 -36zM928 364v-46h-126v46h126zM513 76h46v-126h-46v126zM271 364v-46h-126v46h126zM513 733h46v-126h-46v126z" />
    <glyph glyph-name="SF430000" unicode="&#x2550;" horiz-adv-x="2158" 
d="M2158 303h-2158v100h2158v-100zM2158 156h-2158v101h2158v-101z" />
    <glyph glyph-name="lozenge" unicode="&#x25ca;" horiz-adv-x="466" 
d="M444 296l-154 -296h-114l-154 296l154 291h114zM137 296l96 -193l96 193l-96 188z" />
    <glyph glyph-name="pointingindexupwhite" unicode="&#x261d;" horiz-adv-x="705" 
d="M275 -28l-215 292q21 18 45 25q20 6 46 1.5t53 -32.5l71 -74v450q0 32 13.5 46.5t36.5 14.5t36.5 -14.5t13.5 -43.5v-229h36q29 0 41.5 -12.5t12.5 -41.5h36q29 0 41.5 -12.5t12.5 -41.5h34q30 0 43 -12.5t13 -38.5v-277h-370zM275 -82h370v-161h-370v161zM565 -135
q-12 0 -20 -7.5t-8 -19.5t8 -20t20 -8q13 0 20 8t7 20t-7.5 19.5t-19.5 7.5z" />
    <glyph glyph-name="pointingindexrightwhite" unicode="&#x261e;" horiz-adv-x="1061" 
d="M278 421l292 215q18 -21 25 -45q6 -20 1.5 -46t-32.5 -53l-74 -71h450q32 0 46.5 -13.5t14.5 -36.5t-14.5 -36.5t-43.5 -13.5h-229v-36q0 -29 -12.5 -41.5t-41.5 -12.5v-36q0 -29 -12.5 -41.5t-41.5 -12.5v-34q0 -30 -12.5 -43t-38.5 -13h-277v370zM224 421v-370h-164
v370h164zM169 131q0 12 -7.5 20t-19.5 8t-20 -8t-8 -20q0 -13 8 -20t20 -7t19.5 7.5t7.5 19.5z" />
    <glyph glyph-name="uni26F3" unicode="&#x26f3;" horiz-adv-x="674" 
d="M60 513q0 57 22 107.5t59.5 88t88 59.5t107.5 22t107.5 -22t88 -59.5t59.5 -88t22 -107.5q0 -20 -3.5 -42t-13 -47.5t-25.5 -56.5t-40 -70l-195 -307l-197 309q-24 38 -39.5 68.5t-24.5 56t-12.5 47.5t-3.5 42zM226 513q0 -23 9 -43t24 -35t35 -23.5t43 -8.5t43 8.5
t35 23.5t23.5 35t8.5 43t-8.5 43t-23.5 35t-35 23.5t-43 8.5t-43 -8.5t-35 -23.5t-24 -35t-9 -43z" />
    <glyph glyph-name="uni2709" unicode="&#x2709;" horiz-adv-x="1236" 
d="M1176 578v-60l-558 -334l-558 334v60h1116zM398 280l-338 -243v444zM60 0l366 263l192 -114l192 114l366 -263h-1116zM1176 481v-444l-338 243z" />
    <glyph glyph-name="uniF040" unicode="&#xf040;" horiz-adv-x="3054" 
d="M1742 331h1312v-100h-1310l-115 -115l-51 50l114 114l-114 114l51 50zM0 331h1312l113 113l51 -50l-114 -114l114 -114l-51 -50l-115 115h-1310v100z" />
    <glyph glyph-name="uniF041" unicode="&#xf041;" horiz-adv-x="2855" 
d="M1632 389l-34 -58h1257v-100h-1314l-58 -100l-74 42l149 259zM1446 389l-149 -258l-74 42l33 58h-1256v100h1314l58 101z" />
    <glyph glyph-name="uniF042" unicode="&#xf042;" horiz-adv-x="2825" 
d="M1449 331h1376v-100h-1376v100zM1256 231h-1256v100h1256v-100z" />
    <glyph glyph-name="uniF043" unicode="&#xf043;" horiz-adv-x="705" 
d="M275 -28l-215 292q21 18 45 25q20 6 46 1.5t53 -32.5l71 -74v450q0 32 13.5 46.5t36.5 14.5t36.5 -14.5t13.5 -43.5v-229h36q29 0 41.5 -12.5t12.5 -41.5h36q29 0 41.5 -12.5t12.5 -41.5h34q30 0 43 -12.5t13 -38.5v-277h-370zM275 -82h370v-161h-370v161zM565 -135
q-12 0 -20 -7.5t-8 -19.5t8 -20t20 -8q13 0 20 8t7 20t-7.5 19.5t-19.5 7.5zM241 660v-55h-158v55h158zM567 660v-55h-158v55h158zM297 883h55v-158h-55v158z" />
    <glyph glyph-name="uniF044" unicode="&#xf044;" horiz-adv-x="931" 
d="M177 126q8 27 24 46q14 17 37.5 27t61.5 2l201 -45v478q0 32 13.5 46.5t36.5 14.5t36.5 -14.5t13.5 -43.5v-229h36q29 0 41.5 -12.5t12.5 -41.5h36q29 0 41.5 -12.5t12.5 -41.5h34q30 0 43 -12.5t13 -38.5v-277h-370zM501 -82h370v-161h-370v161zM711 814v-158h-55v103
h-103v55h158zM60 15v158h55v-103h103v-55h-158zM791 -135q-12 0 -20 -7.5t-8 -19.5t8 -20t20 -8q13 0 20 8t7 20t-7.5 19.5t-19.5 7.5z" />
    <glyph glyph-name="uniF045" unicode="&#xf045;" horiz-adv-x="903" 
d="M873 665v-55h-498v-202h36q29 0 41.5 -12.5t12.5 -41.5h36q29 0 41.5 -12.5t12.5 -41.5h34q30 0 43 -12.5t13 -38.5v-277h-370l-215 292q21 18 45 25q20 6 46 1.5t53 -32.5l71 -74v450q0 32 13.5 46.5t36.5 14.5q34 0 45 -30h503zM275 -82h370v-161h-370v161zM199 749
l39 -39l-73 -73l73 -73l-39 -39l-112 112zM565 -135q-12 0 -20 -7.5t-8 -19.5t8 -20t20 -8q13 0 20 8t7 20t-7.5 19.5t-19.5 7.5z" />
    <glyph glyph-name="uniF046" unicode="&#xf046;" horiz-adv-x="952" 
d="M522 -28l-215 292q21 18 45 25q20 6 46 1.5t53 -32.5l71 -74v426h-492v55h497q5 15 17 22.5t28 7.5q23 0 36.5 -14.5t13.5 -43.5v-229h36q29 0 41.5 -12.5t12.5 -41.5h36q29 0 41.5 -12.5t12.5 -41.5h34q30 0 43 -12.5t13 -38.5v-277h-370zM522 -82h370v-161h-370v161z
M704 525l-39 39l73 73l-73 73l39 39l112 -112zM812 -135q-12 0 -20 -7.5t-8 -19.5t8 -20t20 -8q13 0 20 8t7 20t-7.5 19.5t-19.5 7.5z" />
    <glyph glyph-name="uniF047" unicode="&#xf047;" horiz-adv-x="1010" 
d="M866 -124h-55v603l-137 -79l17 -31q14 -25 10 -42t-29 -31l18 -32q14 -25 9.5 -42t-29.5 -31l17 -30q15 -26 10.5 -43t-27.5 -31q-8 -5 -22 -13l-32.5 -19l-39 -23l-41.5 -24l-104 -60l-185 321l145 332q26 -10 44 -27q15 -15 24.5 -39t-1.5 -62l-29 -99l391 226
q28 16 47 11.5t31 -24.5q11 -20 5.5 -39t-31.5 -34l-6 -4v-634zM200 243l184 -321l-139 -81l-185 321zM838 802l112 -112l-39 -39l-73 73l-73 -73l-39 39zM276 -20q-12 0 -20 -7.5t-8 -19.5t8 -20t20 -8q13 0 20 8t7 20t-7.5 19.5t-19.5 7.5z" />
    <glyph glyph-name="uniF048" unicode="&#xf048;" horiz-adv-x="1145" 
d="M431 458l360 40q5 -28 -1 -52q-5 -20 -21.5 -40.5t-54.5 -29.5l-100 -24l332 -192v603h55v-635l4 -2q27 -16 32.5 -35t-5.5 -39t-30.5 -24t-45.5 10l-198 115l-18 -30q-14 -25 -31.5 -30t-41.5 9l-18 -31q-14 -25 -31.5 -29t-42.5 10l-17 -30q-15 -26 -32.5 -31t-40.5 9
q-8 4 -22 12l-32.5 18.5l-39 22.5l-41.5 24l-105 60zM385 485l-186 -320l-139 80l185 320zM861 -51l39 39l73 -73l73 73l39 -39l-112 -112zM172 301q-12 0 -20 -7.5t-8 -19.5t8 -20t20 -8q13 0 20 8t7 20t-7.5 19.5t-19.5 7.5z" />
    <glyph glyph-name="accent" unicode="&#xf400;" horiz-adv-x="0" 
d="M-199 725h115l-74 -158h-98z" />
    <glyph glyph-name="Accent" unicode="&#xf401;" horiz-adv-x="0" 
d="M-239 873h119l-84 -129h-100z" />
    <glyph glyph-name="Breve" unicode="&#xf406;" horiz-adv-x="425" 
d="M212 727q-34 0 -63.5 9.5t-51 29t-34 47.5t-12.5 66h97q4 -27 18 -45t46 -18t46 18t18 45h97q0 -38 -12.5 -66t-34.5 -47.5t-51 -29t-63 -9.5z" />
    <glyph glyph-name="Cedilla" unicode="&#xf407;" horiz-adv-x="336" 
d="M133 25l67 -3l-10 -45q20 -9 34 -26t14 -47q0 -42 -30.5 -62.5t-72.5 -20.5q-28 0 -38 3l13 59q5 -1 16 -1q12 0 19.5 5t7.5 19t-10 18.5t-27 4.5z" />
    <glyph glyph-name="Circumflex" unicode="&#xf408;" horiz-adv-x="425" 
d="M262 880l118 -142h-107l-61 80l-61 -80h-107l118 142h100z" />
    <glyph glyph-name="Commaaccent" unicode="&#xf409;" horiz-adv-x="324" 
d="M221 -171l-118 -102v216h118v-114z" />
    <glyph glyph-name="Apostrophe" unicode="&#xf40a;" horiz-adv-x="166" 
d="M160 546l-118 -101v245h118v-144z" />
    <glyph glyph-name="Dotaccent" unicode="&#xf40b;" horiz-adv-x="325" 
d="M103 869h118v-101h-118v101z" />
    <glyph glyph-name="Ring" unicode="&#xf40c;" horiz-adv-x="364" 
d="M68 800q0 46 32.5 72.5t80.5 26.5q49 0 81.5 -26.5t32.5 -72.5q0 -45 -32.5 -71.5t-81.5 -26.5q-48 0 -80.5 26.5t-32.5 71.5zM135 800q0 -19 13 -28.5t33 -9.5t33 9.5t13 28.5q0 20 -13 29t-33 9t-33 -9t-13 -29z" />
    <glyph glyph-name="Tilde" unicode="&#xf40d;" horiz-adv-x="411" 
d="M261 744q-17 0 -31 5t-27 10.5l-24.5 10.5t-23.5 5q-25 0 -48 -29l-59 50q20 29 47.5 45.5t56.5 16.5q16 0 30 -5t27 -10.5l25 -10.5t25 -5q25 0 45 29l59 -50q-19 -29 -46 -45.5t-56 -16.5z" />
    <glyph glyph-name="Ogonek" unicode="&#xf40e;" horiz-adv-x="338" 
d="M222 0q-17 -19 -27 -33t-10 -31q0 -15 6.5 -20t16.5 -5q8 0 16 2l12 -58q-12 -5 -39 -5q-18 0 -35.5 4t-31 13t-21.5 23.5t-8 35.5q0 39 26.5 67t68.5 53z" />
    <glyph glyph-name="dollar.fitted" unicode="&#xf5f5;" horiz-adv-x="481" 
d="M197 -5q-54 8 -94.5 34.5t-69.5 74.5l89 62q17 -26 34.5 -43t40.5 -25v207q-73 24 -111.5 72t-38.5 131q0 34 9 65t27 56t46.5 42.5t67.5 23.5v117h98v-118q97 -18 145 -108l-86 -62q-12 23 -26 39t-33 25v-200q37 -12 65 -29t47 -41t29 -55.5t10 -73.5q0 -34 -9 -66
t-28 -58t-47 -44.5t-67 -25.5v-111h-98v111zM330 184q0 25 -7.5 44t-27.5 35v-159q20 12 27.5 33t7.5 47zM163 508q0 -28 8.5 -46.5t25.5 -32.5v157q-34 -21 -34 -78z" />
    <glyph glyph-name="Euro.fitted" unicode="&#xf5f6;" horiz-adv-x="528" 
d="M6 470h79q15 119 72 174t140 55q84 0 138 -55t68 -168h-110q-8 63 -31 92.5t-65 29.5q-41 0 -65 -30t-32 -98h122v-97h-126v-60h126v-97h-121q8 -65 32 -94.5t64 -29.5q43 0 65 29.5t31 92.5h110q-15 -117 -67 -170t-139 -53q-83 0 -139.5 53.5t-72.5 171.5h-79v97h74v60
h-74v97z" />
    <glyph glyph-name="cent.fitted" unicode="&#xf5f7;" horiz-adv-x="371" 
d="M165 -3q-66 16 -100 74t-34 146v68q0 91 34 146.5t100 71.5v119h95v-118q33 -8 59 -27t43 -50l-80 -55q-11 20 -26 32t-40 12q-45 0 -61.5 -35.5t-16.5 -100.5v-58q0 -29 3 -54.5t11 -44.5t23.5 -29.5t40.5 -10.5q24 0 40 11t28 36l78 -53q-33 -68 -102 -81v-112h-95v113
z" />
    <glyph glyph-name="sterling.fitted" unicode="&#xf5f8;" horiz-adv-x="446" 
d="M23 100h64v195h-64v101h64v22q0 76 13.5 129.5t37.5 87.5t58 49t75 15q52 0 91.5 -22.5t68.5 -73.5l-92 -55q-11 20 -27.5 35t-40.5 15q-16 0 -28.5 -9t-21.5 -30t-13.5 -55.5t-4.5 -85.5v-22h108v-101h-108v-195h210v-100h-390v100z" />
    <glyph glyph-name="yen.fitted" unicode="&#xf5f9;" horiz-adv-x="492" 
d="M304 0h-116v127h-113v101h113v56h-113v101h71l-132 305h128l104 -272l104 272h128l-132 -305h71v-101h-113v-56h113v-101h-113v-127z" />
    <glyph glyph-name="florin.fitted" unicode="&#xf5fa;" horiz-adv-x="278" 
d="M75 500v31q0 88 39 123.5t113 35.5h33v-101h-21q-30 0 -39 -20.5t-9 -68.5h69v-101h-69v-404q0 -50 -10 -85.5t-31 -57.5t-54 -32t-79 -10v101q35 0 46.5 20.5t11.5 60.5v407h-55v101h55z" />
    <glyph glyph-name="uni20B4.fitted" unicode="&#xf5fb;" horiz-adv-x="496" 
d="M33 321h430v-94h-276q-3 -10 -4 -21t-1 -22q0 -19 4 -35.5t13 -29t23.5 -20t36.5 -7.5q34 0 54 18t44 55l86 -60q-20 -29 -39 -50.5t-41.5 -35.5t-49.5 -21t-62 -7q-47 0 -81.5 16.5t-57.5 43.5t-34.5 62t-11.5 72q0 25 4 42h-37v94zM33 465h272q4 9 6 19t2 24
q0 44 -16.5 67t-50.5 23q-31 0 -50 -18.5t-38 -54.5l-85 61q30 55 72 84t101 29q47 0 81.5 -15t57 -41t33.5 -60t11 -71q0 -13 -1.5 -24.5t-3.5 -22.5h39v-95h-430v95z" />
    <glyph glyph-name="uni20BD.fitted" unicode="&#xf5fc;" horiz-adv-x="449" 
d="M8 207h72v45h-72v100h72v338h146q98 0 154.5 -55.5t56.5 -162.5t-56 -163.5t-155 -56.5h-30v-45h83v-100h-83v-107h-116v107h-72v100zM210 352q60 0 85.5 30t25.5 90q0 57 -25.5 87.5t-85.5 30.5h-14v-238h14z" />
    <glyph glyph-name="uni20B8.fitted" unicode="&#xf5fd;" horiz-adv-x="438" 
d="M432 540v-101h-155v-439h-116v439h-155v101h426zM6 690h426v-101h-426v101z" />
    <glyph glyph-name="currency.fitted" unicode="&#xf5fe;" horiz-adv-x="478" 
d="M66 369q0 28 6.5 53t17.5 48l-63 77l77 63l53 -65q38 22 82 22q43 0 81 -22l54 65l77 -63l-63 -77q11 -22 17.5 -47.5t6.5 -53.5q0 -57 -25 -104l64 -77l-77 -63l-56 67q-35 -21 -79 -21t-80 21l-55 -67l-77 63l63 77q-11 23 -17.5 49t-6.5 55zM163 367q0 -45 18.5 -75.5
t57.5 -30.5t57.5 30.5t18.5 75.5t-18.5 75.5t-57.5 30.5t-57.5 -30.5t-18.5 -75.5z" />
    <glyph glyph-name="uniF639" unicode="&#xf639;" horiz-adv-x="472" 
d="M424 203q0 -55 -15.5 -95t-41 -66t-60 -38.5t-71.5 -12.5q-38 0 -72 12.5t-59.5 38.5t-41 66t-15.5 95v284q0 55 15.5 95t41 66t59.5 38.5t72 12.5q37 0 71.5 -12.5t60 -38.5t41 -66t15.5 -95v-284zM163 209q0 -59 17.5 -88.5t55.5 -29.5t55.5 29.5t17.5 88.5v272
q0 59 -17.5 88.5t-55.5 29.5t-55.5 -29.5t-17.5 -88.5v-272z" />
    <glyph glyph-name="uniF63A" unicode="&#xf63a;" horiz-adv-x="430" 
d="M381 0h-347v82l189 278q26 40 38 74.5t12 70.5q0 48 -20 71.5t-48 23.5q-30 0 -48.5 -24t-20.5 -71h-105q0 44 14.5 79.5t39 61t57 39.5t68.5 14q38 0 70.5 -14.5t56.5 -40t37.5 -62t13.5 -79.5q0 -33 -8 -62.5t-20 -56t-26 -49.5t-27 -42l-130 -193h204v-100z" />
    <glyph glyph-name="uniF63B" unicode="&#xf63b;" horiz-adv-x="428" 
d="M155 406h41q37 0 57 27t20 76q0 38 -18 64.5t-50 26.5q-30 0 -46 -24.5t-20 -60.5h-105q1 42 15.5 76t38 58t55 37t67.5 13q39 0 71.5 -14.5t56 -40t37 -59.5t13.5 -73q0 -57 -24 -95.5t-53 -58.5q37 -21 61.5 -62t24.5 -105q0 -41 -12 -77.5t-34.5 -63.5t-56.5 -43
t-77 -16q-45 0 -79.5 14t-58.5 39.5t-37.5 60t-15.5 75.5h105q5 -38 23 -63t56 -25q35 0 53.5 28.5t18.5 73.5q0 53 -20.5 82.5t-65.5 29.5h-41v100z" />
    <glyph glyph-name="uniF63C" unicode="&#xf63c;" horiz-adv-x="455" 
d="M330 690l-184 -485h116v188h115v-188h56v-101h-56v-104h-115v104h-248v82l196 504h120z" />
    <glyph glyph-name="uniF63D" unicode="&#xf63d;" horiz-adv-x="433" 
d="M221 367q-23 0 -36.5 -14.5t-22.5 -36.5h-103v374h319v-109h-207v-144q12 16 31.5 27t49.5 11q66 0 107 -64t41 -185q0 -114 -44 -174.5t-132 -60.5q-35 0 -66.5 12.5t-56 36t-40.5 57t-19 74.5h112q6 -38 22.5 -58.5t44.5 -20.5q31 0 47.5 30.5t16.5 99.5
q0 72 -14.5 108.5t-49.5 36.5z" />
    <glyph glyph-name="uniF63E" unicode="&#xf63e;" horiz-adv-x="440" 
d="M202 398q13 7 26 9.5t27 2.5q33 0 61.5 -15.5t49 -42.5t32.5 -64.5t12 -81.5q0 -52 -15 -92t-40.5 -67.5t-59.5 -41.5t-73 -14t-74 13.5t-60.5 40.5t-40.5 66.5t-15 92.5q0 38 14 84t35 98l117 304h121zM147 203q0 -51 18.5 -81t56.5 -30q37 0 55 30t18 81q0 50 -18 80.5
t-55 30.5q-38 0 -56.5 -30.5t-18.5 -80.5z" />
    <glyph glyph-name="uniF63F" unicode="&#xf63f;" horiz-adv-x="372" 
d="M16 476v214h343v-89l-163 -601h-117l165 589h-128v-113h-100z" />
    <glyph glyph-name="uniF640" unicode="&#xf640;" horiz-adv-x="442" 
d="M222 -9q-39 0 -73.5 14t-61 40t-41.5 63.5t-15 84.5q0 59 25 103t58 62q-34 21 -54.5 61.5t-20.5 89.5q0 45 15 80t40.5 59.5t58.5 37.5t69 13t69 -13t58.5 -37.5t40.5 -59.5t15 -80q0 -49 -20.5 -89.5t-54.5 -61.5q33 -18 58 -62t25 -103q0 -47 -15 -84.5t-41.5 -63.5
t-61 -40t-73.5 -14zM222 91q35 0 55.5 30.5t20.5 78.5q0 53 -23.5 80.5t-52.5 27.5t-52.5 -27.5t-23.5 -80.5q0 -48 20.5 -78.5t55.5 -30.5zM153 501q0 -44 19.5 -71.5t49.5 -27.5t49.5 27.5t19.5 71.5q0 43 -19.5 70t-49.5 27t-49.5 -27t-19.5 -70z" />
    <glyph glyph-name="uniF641" unicode="&#xf641;" horiz-adv-x="440" 
d="M240 292q-13 -7 -26 -9.5t-27 -2.5q-33 0 -61.5 15.5t-49 42.5t-32.5 64.5t-12 81.5q0 52 14.5 92t40 67.5t60 41.5t73.5 14t74 -13.5t60.5 -40.5t40.5 -67t15 -92q0 -38 -14 -84t-35 -98l-117 -304h-121zM295 487q0 51 -18.5 81t-56.5 30q-37 0 -55 -30t-18 -81
q0 -50 18 -80.5t55 -30.5q38 0 56.5 30.5t18.5 80.5z" />
    <glyph glyph-name="uniF6BA" unicode="&#xf6ba;" horiz-adv-x="262" 
d="M25 392h212v-94h-212v94z" />
    <glyph glyph-name="uniF6BB" unicode="&#xf6bb;" horiz-adv-x="421" 
d="M51 395h319v-100h-319v100z" />
    <glyph glyph-name="uniF6BC" unicode="&#xf6bc;" horiz-adv-x="579" 
d="M17 395h545v-100h-545v100z" />
    <glyph glyph-name="commaaccent" unicode="&#xf6c3;" horiz-adv-x="271" 
d="M195 -171l-119 -102v216h119v-114z" />
    <glyph glyph-name="Acute" unicode="&#xf6c9;" horiz-adv-x="313" 
d="M129 873h119l-84 -129h-100z" />
    <glyph glyph-name="Caron" unicode="&#xf6ca;" horiz-adv-x="425" 
d="M162 738l-118 142h107l61 -80l61 80h107l-118 -142h-100z" />
    <glyph glyph-name="Dieresis" unicode="&#xf6cb;" horiz-adv-x="402" 
d="M51 869h108v-105h-108v105zM241 869h109v-105h-109v105z" />
    <glyph glyph-name="Grave" unicode="&#xf6ce;" horiz-adv-x="329" 
d="M256 744h-99l-85 129h119z" />
    <glyph glyph-name="Hungarumlaut" unicode="&#xf6cf;" horiz-adv-x="482" 
d="M119 873h119l-84 -129h-100zM309 873h119l-93 -129h-99z" />
    <glyph glyph-name="Macron" unicode="&#xf6d0;" horiz-adv-x="401" 
d="M68 849h264v-94h-264v94z" />
    <glyph glyph-name="cyrBreve" unicode="&#xf6d1;" horiz-adv-x="375" 
d="M187 732q-79 0 -123 36t-44 111h108q0 -29 14 -49.5t45 -20.5t45 20.5t14 49.5h108q0 -75 -44 -111t-123 -36z" />
    <glyph glyph-name="cyrbreve" unicode="&#xf6d4;" horiz-adv-x="341" 
d="M170 632q24 0 33.5 16t9.5 42h98q0 -33 -12 -56.5t-31.5 -38.5t-45 -22t-52.5 -7t-52.5 7t-45 22t-31.5 38.5t-12 56.5h98q0 -26 9.5 -42t33.5 -16z" />
    <glyph glyph-name="uniF6DC" unicode="&#xf6dc;" horiz-adv-x="288" 
d="M225 0h-115v564l-80 -67v117l91 76h104v-690z" />
    <glyph glyph-name="zerowidthjoiner" unicode="&#xfeff;" horiz-adv-x="0" 
 />
    <glyph glyph-name="u1F4D3" unicode="&#x1f4d3;" horiz-adv-x="752" 
d="M60 875q0 26 17.5 43.5t43.5 17.5h510q25 0 43 -17.5t18 -43.5v-815q0 -25 -18 -42.5t-43 -17.5h-510q-26 0 -43.5 17.5t-17.5 42.5v815zM334 66q0 -17 12 -29t30 -12q17 0 29 12t12 29t-12 29t-29 12q-18 0 -30 -12t-12 -29zM104 823v-691h544v691h-544zM357 879
q0 -8 5 -13t13 -5t13 5t5 13t-5 12.5t-13 4.5t-13 -4.5t-5 -12.5z" />
    <glyph glyph-name="u1F4F1" unicode="&#x1f4f1;" horiz-adv-x="552" 
d="M60 775q0 26 17.5 43.5t43.5 17.5h310q25 0 43 -17.5t18 -43.5v-715q0 -25 -18 -42.5t-43 -17.5h-310q-26 0 -43.5 17.5t-17.5 42.5v715zM234 66q0 -17 12 -29t30 -12q17 0 29 12t12 29t-12 29t-29 12q-18 0 -30 -12t-12 -29zM104 723v-591h344v591h-344zM229 790
q-5 0 -8 -3.5t-3 -8.5t2.5 -8.5t8.5 -3.5h94q6 0 8.5 3.5t2.5 8.5t-3 8.5t-8 3.5h-94z" />
    <glyph glyph-name="uni2197.ss02" horiz-adv-x="667" 
d="M529 0v367l-414 -414l-55 55l414 414h-367v78h500v-500h-78z" />
    <glyph glyph-name="uni2199.ss02" horiz-adv-x="667" 
d="M138 500v-367l414 414l55 -55l-414 -414h367v-78h-500v500h78z" />
    <glyph glyph-name="a.ss01" horiz-adv-x="435" 
d="M279 500h107v-500h-107v33q-14 -20 -35 -31t-55 -11q-38 0 -67.5 17t-49.5 47t-30.5 72t-10.5 92v63q0 111 44 169t114 58q29 0 51.5 -12t38.5 -34v37zM208 84q21 0 34.5 10.5t22 29t11.5 44t3 54.5v66q0 62 -16.5 95t-54.5 33q-39 0 -54.5 -35t-15.5 -101v-58
q0 -29 3 -54.5t10.5 -44t21 -29t35.5 -10.5z" />
    <glyph glyph-name="uni2198.ss02" horiz-adv-x="667" 
d="M607 500v-500h-500v78h367l-414 414l55 55l414 -414v367h78z" />
    <glyph glyph-name="afii10069.ss01" horiz-adv-x="432" 
d="M31 282q0 111 44 169t116 58q28 0 49.5 -9t38.5 -24v24q0 55 -19.5 81t-62.5 26q-23 0 -44 -11.5t-41 -29.5l-49 71q25 28 62.5 45t82.5 17q89 0 132 -59t43 -174v-248q0 -111 -45.5 -169t-130.5 -58t-130.5 58t-45.5 169v64zM276 280q0 65 -15 100.5t-54 35.5t-54 -35.5
t-15 -100.5v-60q0 -65 15 -100.5t54 -35.5t54 35.5t15 100.5v60z" />
    <glyph glyph-name="afii10075.ss01" horiz-adv-x="443" 
d="M394 0h-105v39q-11 -22 -31.5 -35t-58.5 -13q-31 0 -58.5 10.5t-47.5 34t-32 61t-12 91.5v312h107v-301q0 -33 4 -55t11.5 -35t19.5 -18.5t28 -5.5q37 0 52.5 28t15.5 85v302h107v-500zM221 632q24 0 33.5 16t9.5 42h98q0 -33 -12 -56.5t-31.5 -38.5t-45 -22t-52.5 -7
t-52.5 7t-45 22t-31.5 38.5t-12 56.5h98q0 -26 9.5 -42t33.5 -16z" />
    <glyph glyph-name="afii10084.ss01" horiz-adv-x="663" 
d="M48 500h105v-41q12 20 34 35t56 15q74 0 111 -73q20 35 50 54t68 19q67 0 105 -49t38 -147v-313h-107v301q0 62 -14.5 87.5t-44.5 25.5q-29 0 -46.5 -28.5t-17.5 -79.5v-306h-107v301q0 64 -16.5 88.5t-43.5 24.5q-30 0 -46.5 -29.5t-16.5 -82.5v-302h-107v500z" />
    <glyph glyph-name="afii10081.ss01" horiz-adv-x="443" 
d="M49 500h105v-40q13 20 35.5 34.5t59.5 14.5q29 0 55.5 -10.5t46.5 -33.5t31.5 -60.5t11.5 -91.5v-313h-107v301q0 63 -15 88t-47 25q-38 0 -53.5 -30.5t-15.5 -81.5v-302h-107v500z" />
    <glyph glyph-name="uni2196.ss02" horiz-adv-x="667" 
d="M60 0v500h500v-78h-367l414 -414l-55 -55l-414 414v-367h-78z" />
    <glyph glyph-name="uni261E.ss02" horiz-adv-x="1061" 
d="M278 421l292 215q18 -21 25 -45q6 -20 1.5 -46t-32.5 -53l-74 -71h450q32 0 46.5 -13.5t14.5 -36.5t-14.5 -36.5t-43.5 -13.5h-229v-36q0 -29 -12.5 -41.5t-41.5 -12.5v-36q0 -29 -12.5 -41.5t-41.5 -12.5v-34q0 -30 -12.5 -43t-38.5 -13h-277v370zM224 421v-370h-164
v370h164zM86 77h20v319h-20v-319zM198 396h-20v-319h20v319zM132 174h20v222h-20v-222zM132 77h20v35h-20v-35z" />
    <glyph glyph-name="afii10074.ss01" horiz-adv-x="443" 
d="M394 0h-105v39q-11 -22 -31.5 -35t-58.5 -13q-31 0 -58.5 10.5t-47.5 34t-32 61t-12 91.5v312h107v-301q0 -33 4 -55t11.5 -35t19.5 -18.5t28 -5.5q37 0 52.5 28t15.5 85v302h107v-500z" />
    <glyph glyph-name="uni2192.ss02" horiz-adv-x="855" 
d="M387 -37l259 259h-586v78h586l-259 259l55 55l353 -353l-353 -353z" />
    <glyph glyph-name="acircumflex.ss01" horiz-adv-x="435" 
d="M279 500h107v-500h-107v33q-14 -20 -35 -31t-55 -11q-38 0 -67.5 17t-49.5 47t-30.5 72t-10.5 92v63q0 111 44 169t114 58q29 0 51.5 -12t38.5 -34v37zM208 84q21 0 34.5 10.5t22 29t11.5 44t3 54.5v66q0 62 -16.5 95t-54.5 33q-39 0 -54.5 -35t-15.5 -101v-58
q0 -29 3 -54.5t10.5 -44t21 -29t35.5 -10.5zM260 700l97 -142h-96l-45 81l-45 -81h-96l97 142h88z" />
    <glyph glyph-name="atilde.ss01" horiz-adv-x="435" 
d="M279 500h107v-500h-107v33q-14 -20 -35 -31t-55 -11q-38 0 -67.5 17t-49.5 47t-30.5 72t-10.5 92v63q0 111 44 169t114 58q29 0 51.5 -12t38.5 -34v37zM208 84q21 0 34.5 10.5t22 29t11.5 44t3 54.5v66q0 62 -16.5 95t-54.5 33q-39 0 -54.5 -35t-15.5 -101v-58
q0 -29 3 -54.5t10.5 -44t21 -29t35.5 -10.5zM275 572q-17 0 -31 5t-27 10.5l-24.5 10.5t-23.5 5q-27 0 -47 -29l-60 51q20 29 48 45.5t57 16.5q16 0 29.5 -5t26.5 -10.5l25 -10.5t25 -5q25 0 46 29l59 -51q-19 -29 -46 -45.5t-57 -16.5z" />
    <glyph glyph-name="adieresis.ss01" horiz-adv-x="435" 
d="M279 500h107v-500h-107v33q-14 -20 -35 -31t-55 -11q-38 0 -67.5 17t-49.5 47t-30.5 72t-10.5 92v63q0 111 44 169t114 58q29 0 51.5 -12t38.5 -34v37zM208 84q21 0 34.5 10.5t22 29t11.5 44t3 54.5v66q0 62 -16.5 95t-54.5 33q-39 0 -54.5 -35t-15.5 -101v-58
q0 -29 3 -54.5t10.5 -44t21 -29t35.5 -10.5zM70 690h109v-105h-109v105zM249 690h108v-105h-108v105z" />
    <glyph glyph-name="aring.ss01" horiz-adv-x="435" 
d="M279 500h107v-500h-107v33q-14 -20 -35 -31t-55 -11q-38 0 -67.5 17t-49.5 47t-30.5 72t-10.5 92v63q0 111 44 169t114 58q29 0 51.5 -12t38.5 -34v37zM208 84q21 0 34.5 10.5t22 29t11.5 44t3 54.5v66q0 62 -16.5 95t-54.5 33q-39 0 -54.5 -35t-15.5 -101v-58
q0 -29 3 -54.5t10.5 -44t21 -29t35.5 -10.5zM96 646q0 23 8.5 43t24.5 35t37 23.5t47 8.5q25 0 46.5 -8.5t37.5 -23.5t24.5 -35t8.5 -43t-8.5 -43t-24.5 -34.5t-37.5 -23t-46.5 -8.5q-26 0 -47 8.5t-37 23t-24.5 34.5t-8.5 43zM167 646q0 -22 13 -36t33 -14t33 14t13 36
q0 23 -13 36t-33 13t-33 -13t-13 -36z" />
    <glyph glyph-name="egrave.ss01" horiz-adv-x="406" 
d="M361 77q-23 -46 -58.5 -66t-91.5 -20q-46 0 -80 16.5t-56.5 46.5t-33.5 71.5t-11 91.5v68q0 111 43.5 167.5t124.5 56.5q87 0 128 -42.5t41 -114.5q0 -32 -8.5 -58.5t-27.5 -45.5t-50 -30t-75 -11h-69q0 -23 3 -45.5t11 -40t22 -28t37 -10.5q33 0 47.5 12.5t25.5 34.5z
M204 416q-21 0 -34 -10t-20.5 -27t-10 -40t-2.5 -48h61q32 0 47 13t15 51q0 35 -15 48t-41 13zM266 567h-98l-75 158h116z" />
    <glyph glyph-name="eacute.ss01" horiz-adv-x="406" 
d="M361 77q-23 -46 -58.5 -66t-91.5 -20q-46 0 -80 16.5t-56.5 46.5t-33.5 71.5t-11 91.5v68q0 111 43.5 167.5t124.5 56.5q87 0 128 -42.5t41 -114.5q0 -32 -8.5 -58.5t-27.5 -45.5t-50 -30t-75 -11h-69q0 -23 3 -45.5t11 -40t22 -28t37 -10.5q33 0 47.5 12.5t25.5 34.5z
M204 416q-21 0 -34 -10t-20.5 -27t-10 -40t-2.5 -48h61q32 0 47 13t15 51q0 35 -15 48t-41 13zM203 725h115l-74 -158h-98z" />
    <glyph glyph-name="ecircumflex.ss01" horiz-adv-x="406" 
d="M361 77q-23 -46 -58.5 -66t-91.5 -20q-46 0 -80 16.5t-56.5 46.5t-33.5 71.5t-11 91.5v68q0 111 43.5 167.5t124.5 56.5q87 0 128 -42.5t41 -114.5q0 -32 -8.5 -58.5t-27.5 -45.5t-50 -30t-75 -11h-69q0 -23 3 -45.5t11 -40t22 -28t37 -10.5q33 0 47.5 12.5t25.5 34.5z
M204 416q-21 0 -34 -10t-20.5 -27t-10 -40t-2.5 -48h61q32 0 47 13t15 51q0 35 -15 48t-41 13zM249 700l97 -142h-96l-45 81l-45 -81h-96l97 142h88z" />
    <glyph glyph-name="edieresis.ss01" horiz-adv-x="406" 
d="M361 77q-23 -46 -58.5 -66t-91.5 -20q-46 0 -80 16.5t-56.5 46.5t-33.5 71.5t-11 91.5v68q0 111 43.5 167.5t124.5 56.5q87 0 128 -42.5t41 -114.5q0 -32 -8.5 -58.5t-27.5 -45.5t-50 -30t-75 -11h-69q0 -23 3 -45.5t11 -40t22 -28t37 -10.5q33 0 47.5 12.5t25.5 34.5z
M204 416q-21 0 -34 -10t-20.5 -27t-10 -40t-2.5 -48h61q32 0 47 13t15 51q0 35 -15 48t-41 13zM58 690h109v-105h-109v105zM237 690h108v-105h-108v105z" />
    <glyph glyph-name="afii10065.ss01" horiz-adv-x="435" 
d="M279 500h107v-500h-107v33q-14 -20 -35 -31t-55 -11q-38 0 -67.5 17t-49.5 47t-30.5 72t-10.5 92v63q0 111 44 169t114 58q29 0 51.5 -12t38.5 -34v37zM208 84q21 0 34.5 10.5t22 29t11.5 44t3 54.5v66q0 62 -16.5 95t-54.5 33q-39 0 -54.5 -35t-15.5 -101v-58
q0 -29 3 -54.5t10.5 -44t21 -29t35.5 -10.5z" />
    <glyph glyph-name="afii10070.ss01" horiz-adv-x="406" 
d="M361 77q-23 -46 -58.5 -66t-91.5 -20q-46 0 -80 16.5t-56.5 46.5t-33.5 71.5t-11 91.5v68q0 111 43.5 167.5t124.5 56.5q87 0 128 -42.5t41 -114.5q0 -32 -8.5 -58.5t-27.5 -45.5t-50 -30t-75 -11h-69q0 -23 3 -45.5t11 -40t22 -28t37 -10.5q33 0 47.5 12.5t25.5 34.5z
M204 416q-21 0 -34 -10t-20.5 -27t-10 -40t-2.5 -48h61q32 0 47 13t15 51q0 35 -15 48t-41 13z" />
    <glyph glyph-name="afii10071.ss01" horiz-adv-x="406" 
d="M361 77q-23 -46 -58.5 -66t-91.5 -20q-46 0 -80 16.5t-56.5 46.5t-33.5 71.5t-11 91.5v68q0 111 43.5 167.5t124.5 56.5q87 0 128 -42.5t41 -114.5q0 -32 -8.5 -58.5t-27.5 -45.5t-50 -30t-75 -11h-69q0 -23 3 -45.5t11 -40t22 -28t37 -10.5q33 0 47.5 12.5t25.5 34.5z
M204 416q-21 0 -34 -10t-20.5 -27t-10 -40t-2.5 -48h61q32 0 47 13t15 51q0 35 -15 48t-41 13zM60 690h109v-105h-109v105zM239 690h108v-105h-108v105z" />
    <glyph glyph-name="aogonek.ss01" horiz-adv-x="435" 
d="M279 500h107v-500q-17 -19 -26.5 -33.5t-9.5 -30.5q0 -14 5.5 -19.5t16.5 -5.5q7 0 15 2l12 -58q-10 -5 -43 -5q-15 0 -31 4t-29 13t-21.5 23.5t-8.5 35.5t8.5 39t23.5 35h-19v33q-14 -20 -35 -31t-55 -11q-38 0 -67.5 17t-49.5 47t-30.5 72t-10.5 92v63q0 111 44 169
t114 58q29 0 51.5 -12t38.5 -34v37zM208 84q21 0 34.5 10.5t22 29t11.5 44t3 54.5v66q0 62 -16.5 95t-54.5 33q-39 0 -54.5 -35t-15.5 -101v-58q0 -29 3 -54.5t10.5 -44t21 -29t35.5 -10.5z" />
    <glyph glyph-name="abreve.ss01" horiz-adv-x="435" 
d="M279 500h107v-500h-107v33q-14 -20 -35 -31t-55 -11q-38 0 -67.5 17t-49.5 47t-30.5 72t-10.5 92v63q0 111 44 169t114 58q29 0 51.5 -12t38.5 -34v37zM208 84q21 0 34.5 10.5t22 29t11.5 44t3 54.5v66q0 62 -16.5 95t-54.5 33q-39 0 -54.5 -35t-15.5 -101v-58
q0 -29 3 -54.5t10.5 -44t21 -29t35.5 -10.5zM225 634q24 0 35.5 15t13.5 41h84q-1 -31 -11.5 -54.5t-28.5 -39.5t-41.5 -24t-51.5 -8t-51.5 8t-41.5 24t-28.5 39.5t-11.5 54.5h84q2 -26 13.5 -41t35.5 -15z" />
    <glyph glyph-name="eogonek.ss01" horiz-adv-x="406" 
d="M361 77q-30 -61 -86 -77q-17 -19 -26 -33.5t-9 -30.5q0 -14 5.5 -19.5t16.5 -5.5q7 0 15 2l12 -58q-10 -5 -43 -5q-15 0 -31 4t-29 13t-21.5 23.5t-8.5 35.5q0 36 26 67q-77 10 -114.5 71t-37.5 153v68q0 111 43.5 167.5t124.5 56.5q87 0 128 -42.5t41 -114.5
q0 -32 -8.5 -58.5t-27.5 -45.5t-50 -30t-75 -11h-69q0 -23 3 -45.5t11 -40t22 -28t37 -10.5q33 0 47.5 12.5t25.5 34.5zM204 416q-21 0 -34 -10t-20.5 -27t-10 -40t-2.5 -48h61q32 0 47 13t15 51q0 35 -15 48t-41 13z" />
    <glyph glyph-name="ecaron.ss01" horiz-adv-x="406" 
d="M361 77q-23 -46 -58.5 -66t-91.5 -20q-46 0 -80 16.5t-56.5 46.5t-33.5 71.5t-11 91.5v68q0 111 43.5 167.5t124.5 56.5q87 0 128 -42.5t41 -114.5q0 -32 -8.5 -58.5t-27.5 -45.5t-50 -30t-75 -11h-69q0 -23 3 -45.5t11 -40t22 -28t37 -10.5q33 0 47.5 12.5t25.5 34.5z
M204 416q-21 0 -34 -10t-20.5 -27t-10 -40t-2.5 -48h61q32 0 47 13t15 51q0 35 -15 48t-41 13zM159 558l-97 142h96l45 -81l45 81h96l-97 -142h-88z" />
    <glyph glyph-name="amacron.ss01" horiz-adv-x="435" 
d="M279 500h107v-500h-107v33q-14 -20 -35 -31t-55 -11q-38 0 -67.5 17t-49.5 47t-30.5 72t-10.5 92v63q0 111 44 169t114 58q29 0 51.5 -12t38.5 -34v37zM208 84q21 0 34.5 10.5t22 29t11.5 44t3 54.5v66q0 62 -16.5 95t-54.5 33q-39 0 -54.5 -35t-15.5 -101v-58
q0 -29 3 -54.5t10.5 -44t21 -29t35.5 -10.5zM102 679h231v-94h-231v94z" />
    <glyph glyph-name="emacron.ss01" horiz-adv-x="406" 
d="M361 77q-23 -46 -58.5 -66t-91.5 -20q-46 0 -80 16.5t-56.5 46.5t-33.5 71.5t-11 91.5v68q0 111 43.5 167.5t124.5 56.5q87 0 128 -42.5t41 -114.5q0 -32 -8.5 -58.5t-27.5 -45.5t-50 -30t-75 -11h-69q0 -23 3 -45.5t11 -40t22 -28t37 -10.5q33 0 47.5 12.5t25.5 34.5z
M204 416q-21 0 -34 -10t-20.5 -27t-10 -40t-2.5 -48h61q32 0 47 13t15 51q0 35 -15 48t-41 13zM86 679h231v-94h-231v94z" />
    <glyph glyph-name="edotaccent.ss01" horiz-adv-x="406" 
d="M361 77q-23 -46 -58.5 -66t-91.5 -20q-46 0 -80 16.5t-56.5 46.5t-33.5 71.5t-11 91.5v68q0 111 43.5 167.5t124.5 56.5q87 0 128 -42.5t41 -114.5q0 -32 -8.5 -58.5t-27.5 -45.5t-50 -30t-75 -11h-69q0 -23 3 -45.5t11 -40t22 -28t37 -10.5q33 0 47.5 12.5t25.5 34.5z
M204 416q-21 0 -34 -10t-20.5 -27t-10 -40t-2.5 -48h61q32 0 47 13t15 51q0 35 -15 48t-41 13zM155 690h107v-109h-107v109z" />
    <glyph glyph-name="afii10065.var.accented.ss01" horiz-adv-x="435" 
d="M279 500h107v-500h-107v33q-14 -20 -35 -31t-55 -11q-38 0 -67.5 17t-49.5 47t-30.5 72t-10.5 92v63q0 111 44 169t114 58q29 0 51.5 -12t38.5 -34v37zM208 84q21 0 34.5 10.5t22 29t11.5 44t3 54.5v66q0 62 -16.5 95t-54.5 33q-39 0 -54.5 -35t-15.5 -101v-58
q0 -29 3 -54.5t10.5 -44t21 -29t35.5 -10.5zM216 725h115l-74 -158h-98z" />
    <glyph glyph-name="afii10070.var.accented.ss01" horiz-adv-x="406" 
d="M361 77q-23 -46 -58.5 -66t-91.5 -20q-46 0 -80 16.5t-56.5 46.5t-33.5 71.5t-11 91.5v68q0 111 43.5 167.5t124.5 56.5q87 0 128 -42.5t41 -114.5q0 -32 -8.5 -58.5t-27.5 -45.5t-50 -30t-75 -11h-69q0 -23 3 -45.5t11 -40t22 -28t37 -10.5q33 0 47.5 12.5t25.5 34.5z
M204 416q-21 0 -34 -10t-20.5 -27t-10 -40t-2.5 -48h61q32 0 47 13t15 51q0 35 -15 48t-41 13zM203 725h115l-74 -158h-98z" />
    <glyph glyph-name="afii10074.var.accented.ss01" horiz-adv-x="443" 
d="M394 0h-105v39q-11 -22 -31.5 -35t-58.5 -13q-31 0 -58.5 10.5t-47.5 34t-32 61t-12 91.5v312h107v-301q0 -33 4 -55t11.5 -35t19.5 -18.5t28 -5.5q37 0 52.5 28t15.5 85v302h107v-500zM228 725h115l-74 -158h-98z" />
    <glyph glyph-name="afii10071.var.accented.ss01" horiz-adv-x="406" 
d="M361 77q-23 -46 -58.5 -66t-91.5 -20q-46 0 -80 16.5t-56.5 46.5t-33.5 71.5t-11 91.5v68q0 111 43.5 167.5t124.5 56.5q87 0 128 -42.5t41 -114.5q0 -32 -8.5 -58.5t-27.5 -45.5t-50 -30t-75 -11h-69q0 -23 3 -45.5t11 -40t22 -28t37 -10.5q33 0 47.5 12.5t25.5 34.5z
M204 416q-21 0 -34 -10t-20.5 -27t-10 -40t-2.5 -48h61q32 0 47 13t15 51q0 35 -15 48t-41 13zM56 690h109v-105h-109v105zM235 690h108v-105h-108v105zM209 875h115l-74 -158h-98z" />
    <glyph glyph-name="cyrimacron.ss01" horiz-adv-x="443" 
d="M394 0h-105v39q-11 -22 -31.5 -35t-58.5 -13q-31 0 -58.5 10.5t-47.5 34t-32 61t-12 91.5v312h107v-301q0 -33 4 -55t11.5 -35t19.5 -18.5t28 -5.5q37 0 52.5 28t15.5 85v302h107v-500zM106 679h231v-94h-231v94z" />
    <glyph glyph-name="afii10193.ss01" horiz-adv-x="443" 
d="M154 -3q-46 13 -75.5 58t-29.5 133v312h107v-301q0 -33 4 -55t11.5 -35t19.5 -18.5t28 -5.5q37 0 52.5 28t15.5 85v302h107v-500h-105v39q-8 -14 -19 -25t-28 -17v-114h-88v114z" />
    <glyph glyph-name="uni2190.ss02" horiz-adv-x="855" 
d="M413 -92l-353 353l353 353l55 -55l-259 -259h586v-78h-586l259 -259z" />
    <glyph glyph-name="aacute.ss01" horiz-adv-x="435" 
d="M279 500h107v-500h-107v33q-14 -20 -35 -31t-55 -11q-38 0 -67.5 17t-49.5 47t-30.5 72t-10.5 92v63q0 111 44 169t114 58q29 0 51.5 -12t38.5 -34v37zM208 84q21 0 34.5 10.5t22 29t11.5 44t3 54.5v66q0 62 -16.5 95t-54.5 33q-39 0 -54.5 -35t-15.5 -101v-58
q0 -29 3 -54.5t10.5 -44t21 -29t35.5 -10.5zM214 725h115l-74 -158h-98z" />
    <glyph glyph-name="agrave.ss01" horiz-adv-x="435" 
d="M279 500h107v-500h-107v33q-14 -20 -35 -31t-55 -11q-38 0 -67.5 17t-49.5 47t-30.5 72t-10.5 92v63q0 111 44 169t114 58q29 0 51.5 -12t38.5 -34v37zM208 84q21 0 34.5 10.5t22 29t11.5 44t3 54.5v66q0 62 -16.5 95t-54.5 33q-39 0 -54.5 -35t-15.5 -101v-58
q0 -29 3 -54.5t10.5 -44t21 -29t35.5 -10.5zM300 567h-98l-75 158h116z" />
    <glyph glyph-name="afii10091.ss01" horiz-adv-x="688" 
d="M616 92h57v-209h-100v117h-62v41q-12 -20 -34 -35t-56 -15q-75 0 -111 73q-20 -35 -50 -54t-68 -19q-67 0 -105 49t-38 147v313h107v-301q0 -62 14.5 -87.5t44.5 -25.5q29 0 46.5 28.5t17.5 79.5v306h107v-301q0 -64 16.5 -88.5t43.5 -24.5q30 0 46.5 29.5t16.5 82.5v302
h107v-408z" />
    <glyph glyph-name="afii10090.ss01" horiz-adv-x="665" 
d="M616 0h-105v41q-12 -20 -34 -35t-56 -15q-75 0 -111 73q-20 -35 -50 -54t-68 -19q-67 0 -105 49t-38 147v313h107v-301q0 -62 14.5 -87.5t44.5 -25.5q29 0 46.5 28.5t17.5 79.5v306h107v-301q0 -64 16.5 -88.5t43.5 -24.5q30 0 46.5 29.5t16.5 82.5v302h107v-500z" />
    <glyph glyph-name="afii10088.ss01" horiz-adv-x="466" 
d="M351 0h-62v39q-11 -22 -31.5 -35t-58.5 -13q-31 0 -58.5 10.5t-47.5 34t-32 61t-12 91.5v312h107v-301q0 -33 4 -55t11.5 -35t19.5 -18.5t28 -5.5q37 0 52.5 28t15.5 85v302h107v-408h57v-209h-100v117z" />
    <glyph glyph-name="e.ss01" horiz-adv-x="406" 
d="M361 77q-23 -46 -58.5 -66t-91.5 -20q-46 0 -80 16.5t-56.5 46.5t-33.5 71.5t-11 91.5v68q0 111 43.5 167.5t124.5 56.5q87 0 128 -42.5t41 -114.5q0 -32 -8.5 -58.5t-27.5 -45.5t-50 -30t-75 -11h-69q0 -23 3 -45.5t11 -40t22 -28t37 -10.5q33 0 47.5 12.5t25.5 34.5z
M204 416q-21 0 -34 -10t-20.5 -27t-10 -40t-2.5 -48h61q32 0 47 13t15 51q0 35 -15 48t-41 13z" />
    <glyph glyph-name="uni2191.ss02" horiz-adv-x="826" 
d="M711 221l-259 259v-586h-78v586l-259 -259l-55 55l353 353l353 -353z" />
    <glyph glyph-name="uni2193.ss02" horiz-adv-x="826" 
d="M115 301l259 -259v586h78v-586l259 259l55 -55l-353 -353l-353 353z" />
    </font>
</defs>
</svg>
