<svg width="40" height="50" viewBox="0 0 40 50" fill="none" xmlns="http://www.w3.org/2000/svg">
<path opacity="0.6" fill-rule="evenodd" clip-rule="evenodd" d="M23.8473 5.65161C23.8473 5.65161 24.2014 10.389 21.3897 13.9628C18.578 17.5366 9.6222 21.2143 6.24816 25.1206C2.87411 29.0268 2.14516 34.3876 3.06156 37.9198C3.95714 41.4313 11.3717 48.9945 19.786 48.1841C28.2003 47.3738 32.6782 45.0674 36.0939 40.2677C39.5096 35.468 39.5304 28.6528 38.0308 22.7934C36.5729 17.0795 35.0108 14.7939 34.5735 15.812C33.7404 17.7444 34.0111 17.1834 33.4488 19.1365C32.8864 21.0896 30.8662 24.8297 29.9706 23.9778C29.075 23.1051 30.887 22.3363 30.283 18.3885C29.679 14.4407 28.5752 11.6772 27.8046 10.5137C27.0339 9.35009 23.8473 5.65161 23.8473 5.65161Z" fill="#F6D159"/>
<path d="M38.6557 26.3465L39.6971 26.201C39.2805 23.209 38.739 19.2196 36.0939 15.7913C35.9065 15.5419 35.719 15.3341 35.5108 15.1471C35.3025 14.9809 35.0317 14.7524 34.5111 14.7316C34.157 14.7108 33.7612 14.9186 33.5738 15.1471C33.2822 15.4796 33.2197 15.7497 33.1572 16.0198C33.0948 16.2899 33.0739 16.56 33.0531 16.8925C32.949 18.3054 32.8448 19.1781 32.4075 20.03C31.9701 20.8819 31.137 21.8169 29.4083 23.1467L30.0331 23.9778L30.8454 24.6219C31.012 24.4141 31.012 24.331 31.0537 24.2063C31.1787 23.8531 31.3036 23.3544 31.4078 22.6272C31.5119 21.9 31.5952 20.9858 31.5952 19.9469C31.5952 18.4716 31.4286 16.7055 30.9287 14.8563C29.5749 9.91109 25.3053 4.28026 18.4739 0.415559C18.0157 0.166224 17.5575 0 17.0577 0C16.5786 0 16.0371 0.187002 15.7039 0.602561C15.3498 0.997343 15.2248 1.49601 15.2248 1.95313C15.2248 2.22324 15.2665 2.49336 15.329 2.76347C15.4956 3.42837 15.5997 4.03093 15.6206 4.59193L15.6414 5.00749C15.6414 6.62817 15.1207 7.89563 14.2251 9.0592C12.8922 10.8253 10.6636 12.3213 8.35178 13.942C6.06077 15.5835 3.68647 17.3496 2.22855 19.9261C0.562356 22.8973 0.0208274 26.201 0 29.4424V29.5671C0 40.143 8.70586 49.1815 19.786 49.2438H19.8694C23.41 49.2438 27.638 48.101 31.3036 45.9401C34.9484 43.7792 38.0725 40.5171 39.0722 36.216C39.6971 33.4733 39.8637 31.0423 39.8637 29.2762C39.8637 27.3854 39.6762 26.2426 39.6762 26.1802L38.6557 26.3465L39.6971 26.201L38.6557 26.3465L37.6352 26.5127L37.656 26.6789C37.6976 27.0321 37.8018 27.9672 37.8018 29.2762C37.8018 30.9176 37.656 33.2032 37.0728 35.7589C36.2605 39.3327 33.6155 42.1793 30.2831 44.1532C26.9715 46.1271 22.9935 47.166 19.911 47.166H19.8277C9.91386 47.1244 2.10356 39.0003 2.10356 29.5671V29.4632C2.12439 26.4504 2.62425 23.5207 4.06134 20.9442C5.58174 18.1599 8.81001 16.2068 11.83 14.0251C13.3296 12.9239 14.7667 11.7603 15.8913 10.3059C16.9952 8.8722 17.7241 7.08529 17.7241 4.98671L17.7033 4.46726C17.6617 3.76081 17.5575 3.01281 17.3492 2.24402L17.3076 1.95313V1.8908L17.0368 1.80768L17.2034 2.03624L17.3284 1.8908L17.0577 1.80768L17.2243 2.03624L17.0368 1.76613L17.141 2.09858L17.2451 2.05702L17.0577 1.78691L17.1618 2.11935L17.1201 1.99469V2.14013H17.1618L17.1201 2.01546V2.16091C17.1201 2.16091 17.2868 2.18169 17.5159 2.30635C23.9307 5.92172 27.8463 11.2201 28.9918 15.4796C29.45 17.1211 29.5958 18.7002 29.5958 20.03C29.5958 21.1104 29.4916 22.0247 29.3875 22.6688C29.325 22.9804 29.2833 23.2506 29.2209 23.4168L29.1792 23.583L29.8249 23.8531L29.2833 23.4376L29.1792 23.6038L29.8249 23.8739L29.2833 23.4583C28.9501 23.8739 28.9918 24.4557 29.3667 24.8297C29.7416 25.2037 30.3247 25.2452 30.7413 24.9128C32.5741 23.4999 33.6779 22.3571 34.3236 21.0896C34.9692 19.8222 35.0942 18.5755 35.1984 17.1418C35.2192 16.7886 35.2608 16.56 35.2817 16.5185L35.1358 16.4769L35.2817 16.56L35.3025 16.5393L35.1567 16.4977L35.3025 16.5808L34.7193 16.2692L35.115 16.7886L35.3025 16.5808L34.7193 16.2692L35.115 16.7886L34.6152 16.1237V16.9548L35.115 16.7886L34.6152 16.1237V16.9548V16.1029L34.3028 16.747L34.6152 16.8094V16.1029L34.3028 16.747L34.4277 16.5185L34.2611 16.7263L34.3028 16.747L34.4277 16.5185L34.2611 16.7263C34.2819 16.7263 34.4069 16.8509 34.5735 17.0795C36.8229 19.9676 37.3644 23.5207 37.7601 26.4919V26.5127L38.6557 26.3465Z" fill="#464646"/>
<path d="M26.3882 34.1174L27.4296 33.972C27.2421 32.6214 26.3882 30.3774 24.2222 28.0295C23.1183 26.8244 22.1602 25.6608 19.7651 24.2687C19.536 24.144 19.2652 24.0193 18.932 24.0193C18.5987 24.0193 18.1822 24.1648 17.9323 24.4765C17.6823 24.7674 17.6199 25.1206 17.6199 25.3907L17.6823 25.8478C17.724 26.0348 17.7656 26.2218 17.7656 26.3673V26.4711C17.7656 26.9075 17.6407 27.1984 17.4116 27.5308C17.0575 28.0295 16.3494 28.5489 15.5371 29.1307C14.7457 29.7333 13.8293 30.3982 13.2253 31.4994C12.5796 32.6838 12.3922 33.972 12.3713 35.1979V35.2395C12.3713 39.3535 15.6412 42.8857 19.89 42.9273H19.9317C21.3063 42.9273 22.8684 42.491 24.243 41.6391C25.6176 40.808 26.8256 39.5197 27.2213 37.7536C27.4504 36.7147 27.5129 35.8005 27.5129 35.1356C27.5129 34.4291 27.4504 33.972 27.4296 33.9304L26.3882 34.1174L27.4296 33.972L26.3882 34.1174L25.3677 34.2837V34.3252C25.3885 34.4291 25.4093 34.7408 25.4093 35.1771C25.4093 35.7173 25.3676 36.4861 25.1802 37.338C24.9511 38.3769 24.1805 39.2704 23.1391 39.9145C22.1186 40.5586 20.8273 40.8911 19.9109 40.8911H19.89C16.8701 40.8911 14.4333 38.2938 14.4541 35.281V35.2602C14.4541 34.2421 14.6207 33.3071 15.0581 32.5383C15.4538 31.7695 16.4744 31.0839 17.5574 30.2735C18.0989 29.858 18.6404 29.4216 19.0986 28.8191C19.5568 28.2165 19.8692 27.4269 19.8692 26.5335V26.3049C19.8484 26.014 19.8067 25.7024 19.7234 25.3907L19.5151 25.453H19.7234V25.3907L19.5151 25.453H19.7234H19.0361L19.536 25.8894C19.7026 25.7024 19.7026 25.5154 19.7026 25.453H19.0153L19.5151 25.8894L18.932 25.3907V26.1803C19.0778 26.1803 19.3693 26.0971 19.5151 25.8894L18.932 25.3907V26.1803V25.7647L18.7237 26.1387L18.932 26.1803V25.7647L18.7237 26.1387C20.9106 27.4269 21.5146 28.2373 22.7018 29.5255C24.5762 31.541 25.2635 33.5357 25.3677 34.3252V34.346L26.3882 34.1174Z" fill="#464646"/>
</svg>
