<svg width="46" height="51" viewBox="0 0 46 51" fill="none" xmlns="http://www.w3.org/2000/svg">
<path opacity="0.6" d="M45.633 50.2204H7.31046L9.76808 11.511H43.1129L45.633 50.2204Z" fill="#F6D159"/>
<path d="M43.2378 10.6383L43.217 10.4513H33.678V10.2228C33.678 4.59193 28.6794 0 22.5562 0C16.4329 0 11.4343 4.59193 11.4343 10.2228V10.4513H2.77009L0.0208478 50.719L0 50.9476H45.9662L43.2378 10.6383ZM11.4343 16.7678C10.3929 17.2042 9.68482 18.2223 9.68482 19.3651C9.68482 20.9234 10.9553 22.1909 12.5173 22.1909C14.0794 22.1909 15.3498 20.9234 15.3498 19.3651C15.3498 18.2223 14.6625 17.2042 13.6003 16.7678V12.6122H31.5119V16.7678C30.4706 17.2042 29.7624 18.2223 29.7624 19.3651C29.7624 20.9234 31.033 22.1909 32.595 22.1909C34.1571 22.1909 35.4275 20.9234 35.4275 19.3651C35.4275 18.2223 34.7402 17.2042 33.678 16.7678V12.6122H41.1967L43.6752 48.7867H2.33266L4.81114 12.6122H11.4551V16.7678H11.4343ZM13.6003 10.4513V10.2228C13.6003 5.77628 17.6201 2.16091 22.5562 2.16091C27.4923 2.16091 31.5119 5.77628 31.5119 10.2228V10.4513H13.6003Z" fill="#434343"/>
</svg>
