<svg width="46" height="49" viewBox="0 0 46 49" fill="none" xmlns="http://www.w3.org/2000/svg">
<path opacity="0.6" d="M41.0509 23.8797C41.0509 23.8797 28.7419 23.0902 26.2218 24.4615C23.7017 25.8536 22.9727 27.3289 21.0149 30.9027C20.5359 31.7961 20.2443 33.2714 17.8283 33.9986C13.5379 35.2661 2.99919 36.4504 1.20803 36.9491C1.04141 38.0503 1.20803 46.6939 1.20803 46.6939C1.20803 46.6939 14.1419 46.2992 15.5373 46.3823C16.9327 46.4654 21.4315 47.255 24.5556 47.3381C27.6797 47.4212 36.6147 48.2938 37.7394 47.3381C38.864 46.3823 40.8635 45.4265 41.3842 44.0551C41.9048 42.663 41.3842 40.0658 41.3842 40.0658C41.3842 40.0658 43.6335 39.8164 43.6335 37.1984C43.6335 34.5804 42.8421 32.4403 42.8421 32.4403C42.8421 32.4403 44.3208 30.0092 43.6335 28.2016C42.9462 26.3939 41.0509 23.8797 41.0509 23.8797Z" fill="#F6D159"/>
<path d="M45.3413 28.6795C45.2372 27.0588 44.0917 25.6251 43.3419 24.8563C43.6543 24.1706 44.0084 23.2564 44.0084 22.5915C44.0084 21.7188 44.0084 19.0385 41.3425 17.6048C39.6346 16.6906 34.5944 17.1061 30.5539 17.6256L31.3453 12.909C31.3661 12.8051 31.4703 12.5765 31.5536 12.3895C31.8868 11.6623 32.3867 10.5611 32.4491 8.5456C32.5325 6.30158 31.9909 3.06022 30.179 1.27331C29.2834 0.379858 28.1587 -0.0564799 26.9924 0.00585399C26.0551 0.0474099 25.2429 0.421414 24.6597 1.08631C23.3059 2.6031 23.5142 5.2419 23.6183 6.50936L23.6391 6.84181C23.5975 7.36126 21.7438 11.7454 19.7861 14.9868C19.0988 16.0464 18.4115 16.8983 17.745 17.7295C16.537 19.2463 15.3915 20.6592 14.8916 22.8616C14.4959 24.5862 12.6423 25.4173 12.2882 25.5628C11.9341 25.6459 11.6425 25.7913 11.4134 25.9783C11.4134 25.9783 11.3926 25.9575 11.3718 25.9575C11.1219 25.7498 10.8303 25.5212 10.2888 25.5212H2.89501C1.45792 25.5212 0.229102 26.7471 0.0208274 28.3678L0 45.759C0.0416549 47.2965 1.33296 48.5432 2.87419 48.5432H14.1002C14.8083 48.5432 15.4331 48.2315 15.8705 47.6705C15.9746 47.5459 16.058 47.4004 16.1413 47.2134C17.5784 47.5043 20.6608 48.1276 22.0563 48.2523C23.0351 48.3354 23.2851 48.377 23.7849 48.5016C24.1182 48.5848 24.5139 48.6679 25.1804 48.7718C25.7844 48.8757 26.5758 48.9172 27.6797 48.9172C28.5752 48.9172 29.5333 48.8964 30.6163 48.8549C31.5744 48.8341 32.6366 48.7925 33.5947 48.7925C36.7812 48.7925 38.1975 48.003 41.1758 45.8836C43.1544 44.4707 43.3419 42.7254 43.1336 41.5202C43.092 41.2086 43.0087 40.8969 42.8837 40.5852C43.6543 40.0035 44.8206 38.7152 44.7998 36.3465C44.7998 34.7258 44.3208 33.6454 43.8626 33.0013C44.6749 32.1494 45.4871 30.7365 45.3413 28.6795ZM41.4674 31.8377L39.5096 32.9597L41.5091 34.0194C41.5091 34.0194 42.3422 34.5181 42.3422 36.3258C42.3422 38.362 41.0717 38.7983 40.9467 38.8399L39.1972 39.297L40.2386 40.7515C40.3011 40.8346 40.5927 41.3125 40.676 41.8942C40.8009 42.6838 40.5094 43.3072 39.7179 43.8682C37.1145 45.7174 36.0523 46.32 33.5738 46.32C32.6158 46.32 31.5952 46.3615 30.4705 46.3823C28.6794 46.4446 26.6383 46.507 25.5969 46.32C24.9304 46.1953 24.5555 46.1122 24.2848 46.0498C23.7641 45.9252 23.41 45.8421 22.2437 45.759C20.8066 45.6551 17.0368 44.8655 16.2662 44.6993L13.1213 28.5132C13.1213 28.4093 13.1005 28.3055 13.0588 28.16L13.038 28.0769C13.0171 28.0146 13.0171 27.9522 13.0171 27.9107H13.038C13.1838 27.8691 16.5995 26.6432 17.3284 23.3811C17.7033 21.7396 18.5781 20.6592 19.6819 19.267C20.3276 18.4775 21.119 17.4801 21.8688 16.2335C23.6808 13.283 26.0968 8.10926 26.0968 6.86259C26.0968 6.73792 26.076 6.55092 26.0551 6.2808C25.9926 5.57435 25.826 3.43422 26.4925 2.70699C26.6383 2.56154 26.8049 2.49921 27.0757 2.47843C27.5755 2.45765 28.0129 2.62388 28.4086 3.01866C29.4083 4.016 30.0332 6.19769 29.9499 8.44171C29.8874 9.97928 29.5333 10.7481 29.2625 11.3714C29.1168 11.7039 28.9501 12.0779 28.8668 12.4934C28.7419 13.3038 27.8046 18.8723 27.8046 18.8723L27.5339 20.5553L29.2209 20.3059C34.2611 19.5371 39.2597 19.3086 40.1553 19.7657C41.5091 20.4929 41.5091 21.7812 41.5091 22.5707C41.5091 22.7993 41.155 23.7135 40.7176 24.5446L40.2386 25.4381L41.0301 26.0822C41.5924 26.5393 42.8004 27.8276 42.8629 28.8249C43.0087 30.9443 41.5299 31.8169 41.4674 31.8377ZM2.89501 27.973H10.3096C10.4554 27.973 10.5595 28.347 10.622 28.6379L13.9544 45.6758C13.996 45.8421 13.996 45.9875 13.9752 46.0706H2.91584C2.72839 46.0706 2.52012 45.8213 2.49929 45.6551V28.4509C2.49929 28.2639 2.64508 27.973 2.89501 27.973Z" fill="#434343"/>
</svg>
