<svg width="60" height="56" viewBox="0 0 60 56" fill="none" xmlns="http://www.w3.org/2000/svg">
<path d="M49.2122 16.1806L25.789 5.68696C25.615 5.59659 25.435 5.51833 25.2502 5.45273H25.016C24.8143 5.41952 24.6086 5.41952 24.407 5.45273L24.0791 5.6167L0.562157 16.1806C0.390217 16.3139 0.250432 16.4841 0.153129 16.6787C0.0558272 16.8734 0.00349523 17.0873 0 17.3049V44.2182C0.00349523 44.4357 0.0558272 44.6497 0.153129 44.8443C0.250432 45.0389 0.390217 45.2091 0.562157 45.3425L24.3367 56H24.8989C25.18 56 25.461 56 25.461 55.7189L49.2356 45.0614C49.4075 44.9281 49.5473 44.7578 49.6446 44.5632C49.7419 44.3686 49.7943 44.1546 49.7977 43.9371V17.6094C49.8229 17.3416 49.7828 17.0717 49.6808 16.8229C49.5789 16.574 49.418 16.3536 49.2122 16.1806ZM24.8989 7.74821L45.9798 17.1175L37.1258 21.0526L16.0917 11.9644L24.8989 7.74821ZM23.5169 52.8847L2.2252 43.5155V18.9679L23.5169 28.5012V52.8847ZM24.8989 26.5336L3.81798 17.1643L13.4918 12.9482L34.2213 22.3174L24.8989 26.5336ZM47.5725 43.6326L25.9998 53.1658V28.5012L35.369 24.285V29.6021C35.369 29.894 35.485 30.1741 35.6915 30.3805C35.898 30.587 36.178 30.703 36.4699 30.703C36.7619 30.703 37.0419 30.587 37.2484 30.3805C37.4548 30.1741 37.5708 29.894 37.5708 29.6021V23.4652L47.5257 19.249L47.5725 43.6326Z" fill="#434343"/>
<path d="M48.3221 10.8401L51.4608 7.06899L47.268 6.22576L48.3221 3.08705L52.304 4.98433L51.8824 0.299683H55.4427L55.0211 4.98433L59.0031 3.08705L59.8463 6.22576L55.4427 7.06899L58.3941 10.5825L55.677 12.4798L53.3581 8.24015L51.0158 12.4329L48.3221 10.8401Z" fill="#CE1037"/>
</svg>
