<svg width="61" height="46" viewBox="0 0 61 46" fill="none" xmlns="http://www.w3.org/2000/svg">
<g clip-path="url(#clip0)">
<path d="M59.1877 26.907L59.1161 26.9296L53.5598 17.8927H51.9621L51.509 13.8385L48.0274 13.6347L47.9797 12.004C47.9797 11.9134 47.5266 11.936 47.5266 11.8454L39.371 11.6416V7.63272H13.4973C10.5641 7.63272 8.17944 9.89761 8.17944 12.6834V37.2575V37.7785C8.17944 38.6844 8.17944 39.4998 8.37022 40.2245L9.92026 40.2019C9.9918 42.7612 12.1857 44.7996 14.8804 44.7996C17.6228 44.7996 19.8405 42.6933 19.8405 40.0887C19.8405 40.066 19.8405 40.066 19.8405 40.0434L43.1388 39.681C43.1149 39.8395 43.0911 40.0207 43.0911 40.1792C43.0911 42.7839 45.3088 44.8902 48.0512 44.8902C50.7936 44.8902 53.0113 42.7839 53.0113 40.1792C53.0113 39.9528 52.9637 39.7263 52.9398 39.5224L58.5676 39.4318L59.1877 26.907Z" fill="#D1D1D1"/>
<path d="M58.3292 22.8981L52.6775 14.3594C51.0559 12.3663 48.2182 11.0074 45.6189 11.0074H39.8718V5.05071C39.8718 2.26489 37.4871 0 34.554 0H5.31785C2.3847 0 2.62265e-05 2.26489 2.62265e-05 5.05071V30.4175V30.9385C2.62265e-05 32.5239 -0.0238205 33.9055 0.906203 34.7888C1.38314 35.2418 2.027 35.4909 2.7901 35.4909C2.86164 35.4909 2.90933 35.4909 2.90933 35.4909C2.95702 35.5815 3.05241 35.8533 3.00472 36.7592C3.00472 36.8951 3.00472 37.031 3.00472 37.1216C3.00472 37.9823 3.29088 38.6844 3.8632 39.228C4.88861 40.1792 6.43865 40.2698 8.08408 40.2698H8.10792C8.53716 43.0783 11.3272 46 14.9519 46C18.4097 46 21.3667 43.5086 21.796 40.2698H41.2072C41.6365 43.5086 44.5934 46 48.0512 46C51.509 46 54.466 43.486 54.8952 40.2698H55.6345C58.5676 40.2698 60.9523 38.0049 60.9523 35.2191V30.4402C61 28.0394 59.8315 24.7326 58.3292 22.8981ZM48.0751 35.3324C50.4598 35.3324 52.3913 37.1669 52.3913 39.4318C52.3913 41.6967 50.4598 43.5313 48.0751 43.5313C45.6904 43.5313 43.7588 41.6967 43.7588 39.4318C43.7588 37.1669 45.6904 35.3324 48.0751 35.3324ZM47.622 27.8129H57.9476C58.2338 28.7868 58.4007 29.6928 58.4007 30.4175V35.1965C58.4007 36.6233 57.1845 37.8011 55.6583 37.8011H54.7522C53.9652 34.9247 51.199 32.8636 48.0751 32.8636C44.9512 32.8636 42.1611 34.9247 41.398 37.8011H39.8479V13.4761H42.3042V22.7622C42.3042 25.548 44.6888 27.8129 47.622 27.8129ZM44.8796 22.7622V13.4761H45.595C47.3358 13.4761 49.482 14.4727 50.5551 15.7863L56.2068 24.325C56.4453 24.6194 56.6599 24.9591 56.8984 25.3895H47.5981C46.1196 25.3668 44.8796 24.2117 44.8796 22.7622ZM14.9758 43.5313C12.5911 43.5313 10.6595 41.6967 10.6595 39.4318C10.6595 37.1669 12.5911 35.3324 14.9758 35.3324C17.3605 35.3324 19.292 37.1669 19.292 39.4318C19.292 41.6967 17.3605 43.5313 14.9758 43.5313ZM4.76938 33.7469C4.43552 33.4072 3.81551 32.9995 2.81394 32.9995C2.7901 32.9995 2.76625 32.9995 2.7424 32.9995C2.59932 32.7051 2.59932 31.482 2.59932 30.9385V5.05071C2.59932 3.62383 3.81551 2.44609 5.3417 2.44609H34.554C36.0563 2.44609 37.2963 3.60118 37.2963 5.05071V37.8011H21.6529C20.8659 34.9247 18.0997 32.8636 14.9758 32.8636C11.8519 32.8636 9.06179 34.9247 8.27485 37.8011C7.36867 37.8011 6.03326 37.7784 5.6994 37.484C5.62786 37.416 5.60401 37.3028 5.60401 37.1216V36.8272C5.65171 35.9439 5.67555 34.6529 4.76938 33.7469Z" fill="#434343"/>
</g>
<defs>
<clipPath id="clip0">
<rect width="61" height="46" fill="white"/>
</clipPath>
</defs>
</svg>
